<?xml version="1.0" encoding="utf-8" standalone="no"?>
<!DOCTYPE svg PUBLIC "-//W3C//DTD SVG 1.1//EN"
  "http://www.w3.org/Graphics/SVG/1.1/DTD/svg11.dtd">
<svg xmlns:xlink="http://www.w3.org/1999/xlink" width="460.8pt" height="345.6pt" viewBox="0 0 460.8 345.6" xmlns="http://www.w3.org/2000/svg" version="1.1">
 <metadata>
  <rdf:RDF xmlns:dc="http://purl.org/dc/elements/1.1/" xmlns:cc="http://creativecommons.org/ns#" xmlns:rdf="http://www.w3.org/1999/02/22-rdf-syntax-ns#">
   <cc:Work>
    <dc:type rdf:resource="http://purl.org/dc/dcmitype/StillImage"/>
    <dc:date>2024-03-07T14:59:51.447215</dc:date>
    <dc:format>image/svg+xml</dc:format>
    <dc:creator>
     <cc:Agent>
      <dc:title>Matplotlib v3.8.2, https://matplotlib.org/</dc:title>
     </cc:Agent>
    </dc:creator>
   </cc:Work>
  </rdf:RDF>
 </metadata>
 <defs>
  <style type="text/css">*{stroke-linejoin: round; stroke-linecap: butt}</style>
 </defs>
 <g id="figure_1">
  <g id="patch_1">
   <path d="M 0 345.6 
L 460.8 345.6 
L 460.8 0 
L 0 0 
z
" style="fill: #ffffff"/>
  </g>
  <g id="axes_1">
   <g id="patch_2">
    <path d="M 30.49 317.72 
L 450 317.72 
L 450 10.8 
L 30.49 10.8 
z
" style="fill: #ffffff"/>
   </g>
   <g id="PolyCollection_1">
    <path d="M 49.558636 288.6503 
L 49.558636 303.769091 
L 51.066038 296.713184 
L 52.573441 303.119 
L 54.080843 303.769091 
L 55.588245 303.769091 
L 57.095647 303.769091 
L 58.603049 303.769091 
L 60.110451 303.769091 
L 61.617853 303.769091 
L 63.125255 303.769091 
L 64.632657 303.769091 
L 66.140059 303.769091 
L 67.647461 303.769091 
L 69.154863 303.769091 
L 70.662266 303.769091 
L 72.169668 303.769091 
L 73.67707 302.560598 
L 75.184472 302.742828 
L 76.691874 300.160414 
L 78.199276 299.299676 
L 79.706678 296.310269 
L 81.21408 294.604971 
L 82.721482 294.411173 
L 84.228884 290.885207 
L 85.736286 289.379671 
L 87.243688 287.584368 
L 88.751091 287.391798 
L 90.258493 284.313314 
L 91.765895 282.418154 
L 93.273297 282.128989 
L 94.780699 279.684928 
L 96.288101 280.488208 
L 97.795503 278.596671 
L 99.302905 275.588612 
L 100.810307 276.882934 
L 102.317709 273.299613 
L 103.825111 272.447219 
L 105.332513 272.030675 
L 106.839916 271.565048 
L 108.347318 270.062029 
L 109.85472 270.555622 
L 111.362122 267.151321 
L 112.869524 268.360608 
L 114.376926 266.811419 
L 115.884328 267.016952 
L 117.39173 265.899462 
L 118.899132 264.949305 
L 120.406534 263.712294 
L 121.913936 264.529955 
L 123.421338 264.246412 
L 124.928741 264.236527 
L 126.436143 263.170471 
L 127.943545 263.309183 
L 129.450947 264.10063 
L 130.958349 262.908161 
L 132.465751 264.410731 
L 133.973153 263.609707 
L 135.480555 263.479986 
L 136.987957 263.889925 
L 138.495359 263.388222 
L 140.002761 264.010585 
L 141.510163 265.992883 
L 143.017566 267.158096 
L 144.524968 266.672977 
L 146.03237 268.292574 
L 147.539772 267.586902 
L 149.047174 269.465671 
L 150.554576 270.854788 
L 152.061978 272.412147 
L 153.56938 272.888589 
L 155.076782 273.723063 
L 156.584184 274.988273 
L 158.091586 275.482406 
L 159.598989 276.753282 
L 161.106391 277.725375 
L 162.613793 279.18984 
L 164.121195 280.020349 
L 165.628597 282.082108 
L 167.135999 282.673778 
L 168.643401 283.434302 
L 170.150803 285.006223 
L 171.658205 287.028102 
L 173.165607 287.859299 
L 174.673009 289.164767 
L 176.180411 290.512947 
L 177.687814 293.678671 
L 179.195216 293.771086 
L 180.702618 295.502732 
L 182.21002 296.311703 
L 183.717422 299.302613 
L 185.224824 299.723485 
L 186.732226 300.501425 
L 188.239628 302.446535 
L 189.74703 303.769091 
L 191.254432 303.769091 
L 192.761834 303.769091 
L 194.269236 303.769091 
L 195.776639 303.769091 
L 197.284041 303.769091 
L 198.791443 303.769091 
L 200.298845 303.769091 
L 201.806247 303.769091 
L 203.313649 303.769091 
L 204.821051 303.769091 
L 206.328453 303.769091 
L 207.835855 303.769091 
L 209.343257 303.769091 
L 210.850659 303.769091 
L 212.358061 303.769091 
L 213.865464 303.769091 
L 215.372866 303.769091 
L 216.880268 303.769091 
L 218.38767 303.769091 
L 219.895072 303.769091 
L 221.402474 303.769091 
L 222.909876 303.769091 
L 224.417278 303.769091 
L 225.92468 303.769091 
L 227.432082 303.769091 
L 228.939484 303.769091 
L 230.446886 303.769091 
L 231.954289 303.769091 
L 233.461691 303.769091 
L 234.969093 303.769091 
L 236.476495 303.769091 
L 237.983897 303.769091 
L 239.491299 303.769091 
L 240.998701 303.769091 
L 242.506103 303.769091 
L 244.013505 303.769091 
L 245.520907 303.769091 
L 247.028309 303.769091 
L 248.535711 303.769091 
L 250.043114 303.769091 
L 251.550516 303.769091 
L 253.057918 303.769091 
L 254.56532 303.769091 
L 256.072722 303.769091 
L 257.580124 303.769091 
L 259.087526 303.769091 
L 260.594928 303.769091 
L 262.10233 303.769091 
L 263.609732 303.769091 
L 265.117134 303.769091 
L 266.624536 303.769091 
L 268.131939 303.769091 
L 269.639341 303.769091 
L 271.146743 303.769091 
L 272.654145 303.769091 
L 274.161547 303.769091 
L 275.668949 303.769091 
L 277.176351 303.769091 
L 278.683753 303.769091 
L 280.191155 303.769091 
L 281.698557 303.769091 
L 283.205959 303.769091 
L 284.713361 303.769091 
L 286.220764 303.769091 
L 287.728166 303.769091 
L 289.235568 303.769091 
L 290.74297 303.769091 
L 292.250372 303.769091 
L 293.757774 303.769091 
L 295.265176 303.769091 
L 296.772578 303.769091 
L 298.27998 303.769091 
L 299.787382 303.769091 
L 301.294784 303.769091 
L 302.802186 303.769091 
L 304.309589 303.769091 
L 305.816991 303.769091 
L 307.324393 303.769091 
L 308.831795 303.769091 
L 310.339197 303.769091 
L 311.846599 303.769091 
L 313.354001 303.769091 
L 314.861403 303.769091 
L 316.368805 303.769091 
L 317.876207 303.769091 
L 319.383609 303.769091 
L 320.891011 303.769091 
L 322.398414 303.769091 
L 323.905816 303.769091 
L 325.413218 303.769091 
L 326.92062 303.769091 
L 328.428022 303.769091 
L 329.935424 303.769091 
L 331.442826 303.769091 
L 332.950228 303.769091 
L 334.45763 303.769091 
L 335.965032 303.769091 
L 337.472434 303.769091 
L 338.979837 303.769091 
L 340.487239 303.769091 
L 341.994641 303.769091 
L 343.502043 303.769091 
L 345.009445 303.769091 
L 346.516847 303.769091 
L 348.024249 303.769091 
L 349.531651 303.769091 
L 351.039053 303.769091 
L 352.546455 303.769091 
L 354.053857 303.769091 
L 355.561259 303.769091 
L 357.068662 303.769091 
L 358.576064 303.769091 
L 360.083466 303.769091 
L 361.590868 303.769091 
L 363.09827 303.769091 
L 364.605672 303.769091 
L 366.113074 303.769091 
L 367.620476 303.769091 
L 369.127878 303.769091 
L 370.63528 303.769091 
L 372.142682 303.769091 
L 373.650084 303.769091 
L 375.157487 303.769091 
L 376.664889 303.769091 
L 378.172291 303.769091 
L 379.679693 303.769091 
L 381.187095 303.769091 
L 382.694497 303.769091 
L 384.201899 303.769091 
L 385.709301 303.769091 
L 387.216703 303.769091 
L 388.724105 303.769091 
L 390.231507 303.769091 
L 391.738909 303.769091 
L 393.246312 303.769091 
L 394.753714 303.769091 
L 396.261116 303.769091 
L 397.768518 303.769091 
L 399.27592 303.769091 
L 400.783322 303.769091 
L 402.290724 303.769091 
L 403.798126 303.769091 
L 405.305528 303.769091 
L 406.81293 303.769091 
L 408.320332 303.769091 
L 409.827734 303.769091 
L 411.335137 303.769091 
L 412.842539 303.769091 
L 414.349941 303.769091 
L 415.857343 303.769091 
L 417.364745 303.445425 
L 418.872147 294.029258 
L 420.379549 303.769091 
L 421.886951 287.752287 
L 423.394353 284.942483 
L 424.901755 288.434397 
L 426.409157 285.841582 
L 427.916559 297.955017 
L 429.423962 303.769091 
L 430.931364 281.276896 
L 430.931364 202.091275 
L 430.931364 202.091275 
L 429.423962 148.732748 
L 427.916559 185.317079 
L 426.409157 206.118867 
L 424.901755 217.776231 
L 423.394353 230.530195 
L 421.886951 230.545774 
L 420.379549 197.800947 
L 418.872147 236.778552 
L 417.364745 243.609352 
L 415.857343 245.572212 
L 414.349941 242.341323 
L 412.842539 251.824783 
L 411.335137 257.34175 
L 409.827734 254.704305 
L 408.320332 256.247945 
L 406.81293 255.23277 
L 405.305528 246.438935 
L 403.798126 248.775234 
L 402.290724 241.856987 
L 400.783322 246.312789 
L 399.27592 238.635992 
L 397.768518 247.841826 
L 396.261116 243.411493 
L 394.753714 243.413645 
L 393.246312 230.354104 
L 391.738909 240.424724 
L 390.231507 235.441365 
L 388.724105 228.529509 
L 387.216703 230.123471 
L 385.709301 235.411663 
L 384.201899 237.452015 
L 382.694497 240.428019 
L 381.187095 233.497726 
L 379.679693 238.711717 
L 378.172291 238.60584 
L 376.664889 235.772541 
L 375.157487 226.058823 
L 373.650084 224.461336 
L 372.142682 230.363173 
L 370.63528 224.580649 
L 369.127878 237.999023 
L 367.620476 233.795696 
L 366.113074 223.465248 
L 364.605672 227.38717 
L 363.09827 217.419761 
L 361.590868 219.514459 
L 360.083466 224.19103 
L 358.576064 229.204728 
L 357.068662 223.367705 
L 355.561259 226.41121 
L 354.053857 220.397471 
L 352.546455 215.453826 
L 351.039053 220.789633 
L 349.531651 215.231653 
L 348.024249 213.984853 
L 346.516847 210.391478 
L 345.009445 210.694897 
L 343.502043 209.200497 
L 341.994641 203.535762 
L 340.487239 200.004693 
L 338.979837 196.993039 
L 337.472434 196.053323 
L 335.965032 194.66462 
L 334.45763 181.608389 
L 332.950228 186.286976 
L 331.442826 190.332412 
L 329.935424 185.494421 
L 328.428022 180.994814 
L 326.92062 182.840166 
L 325.413218 179.534576 
L 323.905816 178.470484 
L 322.398414 181.93249 
L 320.891011 178.202182 
L 319.383609 181.61321 
L 317.876207 185.238427 
L 316.368805 184.807896 
L 314.861403 185.685578 
L 313.354001 183.598673 
L 311.846599 179.668926 
L 310.339197 178.346987 
L 308.831795 176.641548 
L 307.324393 173.247142 
L 305.816991 173.606314 
L 304.309589 166.252414 
L 302.802186 166.354599 
L 301.294784 167.197911 
L 299.787382 163.943039 
L 298.27998 163.680886 
L 296.772578 162.747886 
L 295.265176 159.389059 
L 293.757774 156.027028 
L 292.250372 158.604726 
L 290.74297 153.484408 
L 289.235568 158.998766 
L 287.728166 150.000005 
L 286.220764 149.041318 
L 284.713361 147.388982 
L 283.205959 148.998281 
L 281.698557 142.19843 
L 280.191155 143.324641 
L 278.683753 139.053787 
L 277.176351 138.016932 
L 275.668949 136.779352 
L 274.161547 131.013426 
L 272.654145 131.618208 
L 271.146743 126.988892 
L 269.639341 127.929631 
L 268.131939 123.368804 
L 266.624536 117.554312 
L 265.117134 120.284373 
L 263.609732 116.16972 
L 262.10233 115.802449 
L 260.594928 112.461905 
L 259.087526 112.663328 
L 257.580124 107.753456 
L 256.072722 103.502079 
L 254.56532 107.55864 
L 253.057918 107.32232 
L 251.550516 103.776893 
L 250.043114 100.678593 
L 248.535711 93.627567 
L 247.028309 95.849406 
L 245.520907 90.476156 
L 244.013505 85.746183 
L 242.506103 86.444403 
L 240.998701 83.154469 
L 239.491299 83.315648 
L 237.983897 80.132761 
L 236.476495 75.942775 
L 234.969093 73.867496 
L 233.461691 71.826388 
L 231.954289 70.044172 
L 230.446886 68.587886 
L 228.939484 68.851872 
L 227.432082 65.029945 
L 225.92468 63.140193 
L 224.417278 63.024556 
L 222.909876 61.337949 
L 221.402474 60.261685 
L 219.895072 59.008338 
L 218.38767 56.216964 
L 216.880268 53.474872 
L 215.372866 53.952 
L 213.865464 55.763638 
L 212.358061 53.113465 
L 210.850659 49.330474 
L 209.343257 51.84384 
L 207.835855 48.163557 
L 206.328453 46.746871 
L 204.821051 47.031129 
L 203.313649 49.095625 
L 201.806247 46.618591 
L 200.298845 41.768285 
L 198.791443 42.096034 
L 197.284041 43.523301 
L 195.776639 39.895742 
L 194.269236 41.553129 
L 192.761834 38.855098 
L 191.254432 37.709976 
L 189.74703 38.169593 
L 188.239628 37.145074 
L 186.732226 37.672171 
L 185.224824 35.388324 
L 183.717422 34.370056 
L 182.21002 33.276799 
L 180.702618 35.689395 
L 179.195216 35.026262 
L 177.687814 33.115006 
L 176.180411 31.537312 
L 174.673009 32.652526 
L 173.165607 34.55105 
L 171.658205 34.146348 
L 170.150803 31.575264 
L 168.643401 32.054803 
L 167.135999 33.200997 
L 165.628597 34.543934 
L 164.121195 34.284384 
L 162.613793 33.56984 
L 161.106391 32.62624 
L 159.598989 36.047351 
L 158.091586 35.3212 
L 156.584184 36.520577 
L 155.076782 36.192083 
L 153.56938 39.517112 
L 152.061978 41.452685 
L 150.554576 38.104568 
L 149.047174 41.25722 
L 147.539772 39.458848 
L 146.03237 45.940066 
L 144.524968 43.851375 
L 143.017566 46.087208 
L 141.510163 46.878124 
L 140.002761 46.221172 
L 138.495359 47.947821 
L 136.987957 50.645981 
L 135.480555 52.865262 
L 133.973153 53.47299 
L 132.465751 56.049694 
L 130.958349 57.675149 
L 129.450947 63.898151 
L 127.943545 61.946251 
L 126.436143 63.658655 
L 124.928741 64.328934 
L 123.421338 64.987223 
L 121.913936 67.107899 
L 120.406534 70.345962 
L 118.899132 71.286935 
L 117.39173 75.627047 
L 115.884328 75.264421 
L 114.376926 77.848965 
L 112.869524 73.938255 
L 111.362122 81.554352 
L 109.85472 79.056605 
L 108.347318 82.542263 
L 106.839916 79.780211 
L 105.332513 83.365746 
L 103.825111 80.964943 
L 102.317709 86.221463 
L 100.810307 83.303934 
L 99.302905 84.560539 
L 97.795503 85.629184 
L 96.288101 84.383813 
L 94.780699 89.532694 
L 93.273297 88.013412 
L 91.765895 86.71293 
L 90.258493 86.778117 
L 88.751091 82.822891 
L 87.243688 90.085802 
L 85.736286 83.574044 
L 84.228884 85.683779 
L 82.721482 85.072739 
L 81.21408 83.728866 
L 79.706678 80.4824 
L 78.199276 78.49594 
L 76.691874 78.144852 
L 75.184472 72.323725 
L 73.67707 76.624377 
L 72.169668 68.573013 
L 70.662266 70.044165 
L 69.154863 67.279029 
L 67.647461 66.526037 
L 66.140059 61.649007 
L 64.632657 53.034284 
L 63.125255 56.473891 
L 61.617853 53.361115 
L 60.110451 48.097877 
L 58.603049 43.081752 
L 57.095647 37.539486 
L 55.588245 37.035558 
L 54.080843 27.891489 
L 52.573441 30.944162 
L 51.066038 24.750909 
L 49.558636 288.6503 
z
" clip-path="url(#p67cefbd6ab)" style="fill: #1f77b4; fill-opacity: 0.3"/>
   </g>
   <g id="matplotlib.axis_1">
    <g id="xtick_1">
     <g id="line2d_1">
      <defs>
       <path id="mf8b597ceb0" d="M 0 0 
L 0 3.5 
" style="stroke: #000000; stroke-width: 0.8"/>
      </defs>
      <g>
       <use xlink:href="#mf8b597ceb0" x="49.558636" y="317.72" style="stroke: #000000; stroke-width: 0.8"/>
      </g>
     </g>
     <g id="text_1">
      <!-- 0 -->
      <g transform="translate(46.377386 332.318437) scale(0.1 -0.1)">
       <defs>
        <path id="DejaVuSans-30" d="M 2034 4250 
Q 1547 4250 1301 3770 
Q 1056 3291 1056 2328 
Q 1056 1369 1301 889 
Q 1547 409 2034 409 
Q 2525 409 2770 889 
Q 3016 1369 3016 2328 
Q 3016 3291 2770 3770 
Q 2525 4250 2034 4250 
z
M 2034 4750 
Q 2819 4750 3233 4129 
Q 3647 3509 3647 2328 
Q 3647 1150 3233 529 
Q 2819 -91 2034 -91 
Q 1250 -91 836 529 
Q 422 1150 422 2328 
Q 422 3509 836 4129 
Q 1250 4750 2034 4750 
z
" transform="scale(0.015625)"/>
       </defs>
       <use xlink:href="#DejaVuSans-30"/>
      </g>
     </g>
    </g>
    <g id="xtick_2">
     <g id="line2d_2">
      <g>
       <use xlink:href="#mf8b597ceb0" x="124.928741" y="317.72" style="stroke: #000000; stroke-width: 0.8"/>
      </g>
     </g>
     <g id="text_2">
      <!-- 50 -->
      <g transform="translate(118.566241 332.318437) scale(0.1 -0.1)">
       <defs>
        <path id="DejaVuSans-35" d="M 691 4666 
L 3169 4666 
L 3169 4134 
L 1269 4134 
L 1269 2991 
Q 1406 3038 1543 3061 
Q 1681 3084 1819 3084 
Q 2600 3084 3056 2656 
Q 3513 2228 3513 1497 
Q 3513 744 3044 326 
Q 2575 -91 1722 -91 
Q 1428 -91 1123 -41 
Q 819 9 494 109 
L 494 744 
Q 775 591 1075 516 
Q 1375 441 1709 441 
Q 2250 441 2565 725 
Q 2881 1009 2881 1497 
Q 2881 1984 2565 2268 
Q 2250 2553 1709 2553 
Q 1456 2553 1204 2497 
Q 953 2441 691 2322 
L 691 4666 
z
" transform="scale(0.015625)"/>
       </defs>
       <use xlink:href="#DejaVuSans-35"/>
       <use xlink:href="#DejaVuSans-30" x="63.623047"/>
      </g>
     </g>
    </g>
    <g id="xtick_3">
     <g id="line2d_3">
      <g>
       <use xlink:href="#mf8b597ceb0" x="200.298845" y="317.72" style="stroke: #000000; stroke-width: 0.8"/>
      </g>
     </g>
     <g id="text_3">
      <!-- 100 -->
      <g transform="translate(190.755095 332.318437) scale(0.1 -0.1)">
       <defs>
        <path id="DejaVuSans-31" d="M 794 531 
L 1825 531 
L 1825 4091 
L 703 3866 
L 703 4441 
L 1819 4666 
L 2450 4666 
L 2450 531 
L 3481 531 
L 3481 0 
L 794 0 
L 794 531 
z
" transform="scale(0.015625)"/>
       </defs>
       <use xlink:href="#DejaVuSans-31"/>
       <use xlink:href="#DejaVuSans-30" x="63.623047"/>
       <use xlink:href="#DejaVuSans-30" x="127.246094"/>
      </g>
     </g>
    </g>
    <g id="xtick_4">
     <g id="line2d_4">
      <g>
       <use xlink:href="#mf8b597ceb0" x="275.668949" y="317.72" style="stroke: #000000; stroke-width: 0.8"/>
      </g>
     </g>
     <g id="text_4">
      <!-- 150 -->
      <g transform="translate(266.125199 332.318437) scale(0.1 -0.1)">
       <use xlink:href="#DejaVuSans-31"/>
       <use xlink:href="#DejaVuSans-35" x="63.623047"/>
       <use xlink:href="#DejaVuSans-30" x="127.246094"/>
      </g>
     </g>
    </g>
    <g id="xtick_5">
     <g id="line2d_5">
      <g>
       <use xlink:href="#mf8b597ceb0" x="351.039053" y="317.72" style="stroke: #000000; stroke-width: 0.8"/>
      </g>
     </g>
     <g id="text_5">
      <!-- 200 -->
      <g transform="translate(341.495303 332.318437) scale(0.1 -0.1)">
       <defs>
        <path id="DejaVuSans-32" d="M 1228 531 
L 3431 531 
L 3431 0 
L 469 0 
L 469 531 
Q 828 903 1448 1529 
Q 2069 2156 2228 2338 
Q 2531 2678 2651 2914 
Q 2772 3150 2772 3378 
Q 2772 3750 2511 3984 
Q 2250 4219 1831 4219 
Q 1534 4219 1204 4116 
Q 875 4013 500 3803 
L 500 4441 
Q 881 4594 1212 4672 
Q 1544 4750 1819 4750 
Q 2544 4750 2975 4387 
Q 3406 4025 3406 3419 
Q 3406 3131 3298 2873 
Q 3191 2616 2906 2266 
Q 2828 2175 2409 1742 
Q 1991 1309 1228 531 
z
" transform="scale(0.015625)"/>
       </defs>
       <use xlink:href="#DejaVuSans-32"/>
       <use xlink:href="#DejaVuSans-30" x="63.623047"/>
       <use xlink:href="#DejaVuSans-30" x="127.246094"/>
      </g>
     </g>
    </g>
    <g id="xtick_6">
     <g id="line2d_6">
      <g>
       <use xlink:href="#mf8b597ceb0" x="430.931364" y="317.72" style="stroke: #000000; stroke-width: 0.8"/>
      </g>
     </g>
     <g id="text_6">
      <!-- 253 -->
      <g transform="translate(421.387614 332.318437) scale(0.1 -0.1)">
       <defs>
        <path id="DejaVuSans-33" d="M 2597 2516 
Q 3050 2419 3304 2112 
Q 3559 1806 3559 1356 
Q 3559 666 3084 287 
Q 2609 -91 1734 -91 
Q 1441 -91 1130 -33 
Q 819 25 488 141 
L 488 750 
Q 750 597 1062 519 
Q 1375 441 1716 441 
Q 2309 441 2620 675 
Q 2931 909 2931 1356 
Q 2931 1769 2642 2001 
Q 2353 2234 1838 2234 
L 1294 2234 
L 1294 2753 
L 1863 2753 
Q 2328 2753 2575 2939 
Q 2822 3125 2822 3475 
Q 2822 3834 2567 4026 
Q 2313 4219 1838 4219 
Q 1578 4219 1281 4162 
Q 984 4106 628 3988 
L 628 4550 
Q 988 4650 1302 4700 
Q 1616 4750 1894 4750 
Q 2613 4750 3031 4423 
Q 3450 4097 3450 3541 
Q 3450 3153 3228 2886 
Q 3006 2619 2597 2516 
z
" transform="scale(0.015625)"/>
       </defs>
       <use xlink:href="#DejaVuSans-32"/>
       <use xlink:href="#DejaVuSans-35" x="63.623047"/>
       <use xlink:href="#DejaVuSans-33" x="127.246094"/>
      </g>
     </g>
    </g>
    <g id="text_7">
     <!-- HAB index -->
     <g transform="translate(193.660156 352.075312) scale(0.18 -0.18)">
      <defs>
       <path id="DejaVuSans-48" d="M 628 4666 
L 1259 4666 
L 1259 2753 
L 3553 2753 
L 3553 4666 
L 4184 4666 
L 4184 0 
L 3553 0 
L 3553 2222 
L 1259 2222 
L 1259 0 
L 628 0 
L 628 4666 
z
" transform="scale(0.015625)"/>
       <path id="DejaVuSans-41" d="M 2188 4044 
L 1331 1722 
L 3047 1722 
L 2188 4044 
z
M 1831 4666 
L 2547 4666 
L 4325 0 
L 3669 0 
L 3244 1197 
L 1141 1197 
L 716 0 
L 50 0 
L 1831 4666 
z
" transform="scale(0.015625)"/>
       <path id="DejaVuSans-42" d="M 1259 2228 
L 1259 519 
L 2272 519 
Q 2781 519 3026 730 
Q 3272 941 3272 1375 
Q 3272 1813 3026 2020 
Q 2781 2228 2272 2228 
L 1259 2228 
z
M 1259 4147 
L 1259 2741 
L 2194 2741 
Q 2656 2741 2882 2914 
Q 3109 3088 3109 3444 
Q 3109 3797 2882 3972 
Q 2656 4147 2194 4147 
L 1259 4147 
z
M 628 4666 
L 2241 4666 
Q 2963 4666 3353 4366 
Q 3744 4066 3744 3513 
Q 3744 3084 3544 2831 
Q 3344 2578 2956 2516 
Q 3422 2416 3680 2098 
Q 3938 1781 3938 1306 
Q 3938 681 3513 340 
Q 3088 0 2303 0 
L 628 0 
L 628 4666 
z
" transform="scale(0.015625)"/>
       <path id="DejaVuSans-20" transform="scale(0.015625)"/>
       <path id="DejaVuSans-69" d="M 603 3500 
L 1178 3500 
L 1178 0 
L 603 0 
L 603 3500 
z
M 603 4863 
L 1178 4863 
L 1178 4134 
L 603 4134 
L 603 4863 
z
" transform="scale(0.015625)"/>
       <path id="DejaVuSans-6e" d="M 3513 2113 
L 3513 0 
L 2938 0 
L 2938 2094 
Q 2938 2591 2744 2837 
Q 2550 3084 2163 3084 
Q 1697 3084 1428 2787 
Q 1159 2491 1159 1978 
L 1159 0 
L 581 0 
L 581 3500 
L 1159 3500 
L 1159 2956 
Q 1366 3272 1645 3428 
Q 1925 3584 2291 3584 
Q 2894 3584 3203 3211 
Q 3513 2838 3513 2113 
z
" transform="scale(0.015625)"/>
       <path id="DejaVuSans-64" d="M 2906 2969 
L 2906 4863 
L 3481 4863 
L 3481 0 
L 2906 0 
L 2906 525 
Q 2725 213 2448 61 
Q 2172 -91 1784 -91 
Q 1150 -91 751 415 
Q 353 922 353 1747 
Q 353 2572 751 3078 
Q 1150 3584 1784 3584 
Q 2172 3584 2448 3432 
Q 2725 3281 2906 2969 
z
M 947 1747 
Q 947 1113 1208 752 
Q 1469 391 1925 391 
Q 2381 391 2643 752 
Q 2906 1113 2906 1747 
Q 2906 2381 2643 2742 
Q 2381 3103 1925 3103 
Q 1469 3103 1208 2742 
Q 947 2381 947 1747 
z
" transform="scale(0.015625)"/>
       <path id="DejaVuSans-65" d="M 3597 1894 
L 3597 1613 
L 953 1613 
Q 991 1019 1311 708 
Q 1631 397 2203 397 
Q 2534 397 2845 478 
Q 3156 559 3463 722 
L 3463 178 
Q 3153 47 2828 -22 
Q 2503 -91 2169 -91 
Q 1331 -91 842 396 
Q 353 884 353 1716 
Q 353 2575 817 3079 
Q 1281 3584 2069 3584 
Q 2775 3584 3186 3129 
Q 3597 2675 3597 1894 
z
M 3022 2063 
Q 3016 2534 2758 2815 
Q 2500 3097 2075 3097 
Q 1594 3097 1305 2825 
Q 1016 2553 972 2059 
L 3022 2063 
z
" transform="scale(0.015625)"/>
       <path id="DejaVuSans-78" d="M 3513 3500 
L 2247 1797 
L 3578 0 
L 2900 0 
L 1881 1375 
L 863 0 
L 184 0 
L 1544 1831 
L 300 3500 
L 978 3500 
L 1906 2253 
L 2834 3500 
L 3513 3500 
z
" transform="scale(0.015625)"/>
      </defs>
      <use xlink:href="#DejaVuSans-48"/>
      <use xlink:href="#DejaVuSans-41" x="75.195312"/>
      <use xlink:href="#DejaVuSans-42" x="143.603516"/>
      <use xlink:href="#DejaVuSans-20" x="212.207031"/>
      <use xlink:href="#DejaVuSans-69" x="243.994141"/>
      <use xlink:href="#DejaVuSans-6e" x="271.777344"/>
      <use xlink:href="#DejaVuSans-64" x="335.15625"/>
      <use xlink:href="#DejaVuSans-65" x="398.632812"/>
      <use xlink:href="#DejaVuSans-78" x="458.40625"/>
     </g>
    </g>
   </g>
   <g id="matplotlib.axis_2">
    <g id="ytick_1">
     <g id="line2d_7">
      <defs>
       <path id="ma001a5da3d" d="M 0 0 
L -3.5 0 
" style="stroke: #000000; stroke-width: 0.8"/>
      </defs>
      <g>
       <use xlink:href="#ma001a5da3d" x="30.49" y="303.769091" style="stroke: #000000; stroke-width: 0.8"/>
      </g>
     </g>
     <g id="text_8">
      <!-- 0 -->
      <g transform="translate(17.1275 307.56831) scale(0.1 -0.1)">
       <use xlink:href="#DejaVuSans-30"/>
      </g>
     </g>
    </g>
    <g id="ytick_2">
     <g id="line2d_8">
      <g>
       <use xlink:href="#ma001a5da3d" x="30.49" y="266.862549" style="stroke: #000000; stroke-width: 0.8"/>
      </g>
     </g>
     <g id="text_9">
      <!-- 5 -->
      <g transform="translate(17.1275 270.661767) scale(0.1 -0.1)">
       <use xlink:href="#DejaVuSans-35"/>
      </g>
     </g>
    </g>
    <g id="ytick_3">
     <g id="line2d_9">
      <g>
       <use xlink:href="#ma001a5da3d" x="30.49" y="229.956006" style="stroke: #000000; stroke-width: 0.8"/>
      </g>
     </g>
     <g id="text_10">
      <!-- 10 -->
      <g transform="translate(10.765 233.755225) scale(0.1 -0.1)">
       <use xlink:href="#DejaVuSans-31"/>
       <use xlink:href="#DejaVuSans-30" x="63.623047"/>
      </g>
     </g>
    </g>
    <g id="ytick_4">
     <g id="line2d_10">
      <g>
       <use xlink:href="#ma001a5da3d" x="30.49" y="193.049464" style="stroke: #000000; stroke-width: 0.8"/>
      </g>
     </g>
     <g id="text_11">
      <!-- 15 -->
      <g transform="translate(10.765 196.848683) scale(0.1 -0.1)">
       <use xlink:href="#DejaVuSans-31"/>
       <use xlink:href="#DejaVuSans-35" x="63.623047"/>
      </g>
     </g>
    </g>
    <g id="ytick_5">
     <g id="line2d_11">
      <g>
       <use xlink:href="#ma001a5da3d" x="30.49" y="156.142922" style="stroke: #000000; stroke-width: 0.8"/>
      </g>
     </g>
     <g id="text_12">
      <!-- 20 -->
      <g transform="translate(10.765 159.942141) scale(0.1 -0.1)">
       <use xlink:href="#DejaVuSans-32"/>
       <use xlink:href="#DejaVuSans-30" x="63.623047"/>
      </g>
     </g>
    </g>
    <g id="ytick_6">
     <g id="line2d_12">
      <g>
       <use xlink:href="#ma001a5da3d" x="30.49" y="119.23638" style="stroke: #000000; stroke-width: 0.8"/>
      </g>
     </g>
     <g id="text_13">
      <!-- 25 -->
      <g transform="translate(10.765 123.035598) scale(0.1 -0.1)">
       <use xlink:href="#DejaVuSans-32"/>
       <use xlink:href="#DejaVuSans-35" x="63.623047"/>
      </g>
     </g>
    </g>
    <g id="ytick_7">
     <g id="line2d_13">
      <g>
       <use xlink:href="#ma001a5da3d" x="30.49" y="82.329837" style="stroke: #000000; stroke-width: 0.8"/>
      </g>
     </g>
     <g id="text_14">
      <!-- 30 -->
      <g transform="translate(10.765 86.129056) scale(0.1 -0.1)">
       <use xlink:href="#DejaVuSans-33"/>
       <use xlink:href="#DejaVuSans-30" x="63.623047"/>
      </g>
     </g>
    </g>
    <g id="ytick_8">
     <g id="line2d_14">
      <g>
       <use xlink:href="#ma001a5da3d" x="30.49" y="45.423295" style="stroke: #000000; stroke-width: 0.8"/>
      </g>
     </g>
     <g id="text_15">
      <!-- 35 -->
      <g transform="translate(10.765 49.222514) scale(0.1 -0.1)">
       <use xlink:href="#DejaVuSans-33"/>
       <use xlink:href="#DejaVuSans-35" x="63.623047"/>
      </g>
     </g>
    </g>
    <g id="text_16">
     <!-- Mean Difference from Neighbors -->
     <g transform="translate(3.021562 310.629531) rotate(-90) scale(0.18 -0.18)">
      <defs>
       <path id="DejaVuSans-4d" d="M 628 4666 
L 1569 4666 
L 2759 1491 
L 3956 4666 
L 4897 4666 
L 4897 0 
L 4281 0 
L 4281 4097 
L 3078 897 
L 2444 897 
L 1241 4097 
L 1241 0 
L 628 0 
L 628 4666 
z
" transform="scale(0.015625)"/>
       <path id="DejaVuSans-61" d="M 2194 1759 
Q 1497 1759 1228 1600 
Q 959 1441 959 1056 
Q 959 750 1161 570 
Q 1363 391 1709 391 
Q 2188 391 2477 730 
Q 2766 1069 2766 1631 
L 2766 1759 
L 2194 1759 
z
M 3341 1997 
L 3341 0 
L 2766 0 
L 2766 531 
Q 2569 213 2275 61 
Q 1981 -91 1556 -91 
Q 1019 -91 701 211 
Q 384 513 384 1019 
Q 384 1609 779 1909 
Q 1175 2209 1959 2209 
L 2766 2209 
L 2766 2266 
Q 2766 2663 2505 2880 
Q 2244 3097 1772 3097 
Q 1472 3097 1187 3025 
Q 903 2953 641 2809 
L 641 3341 
Q 956 3463 1253 3523 
Q 1550 3584 1831 3584 
Q 2591 3584 2966 3190 
Q 3341 2797 3341 1997 
z
" transform="scale(0.015625)"/>
       <path id="DejaVuSans-44" d="M 1259 4147 
L 1259 519 
L 2022 519 
Q 2988 519 3436 956 
Q 3884 1394 3884 2338 
Q 3884 3275 3436 3711 
Q 2988 4147 2022 4147 
L 1259 4147 
z
M 628 4666 
L 1925 4666 
Q 3281 4666 3915 4102 
Q 4550 3538 4550 2338 
Q 4550 1131 3912 565 
Q 3275 0 1925 0 
L 628 0 
L 628 4666 
z
" transform="scale(0.015625)"/>
       <path id="DejaVuSans-66" d="M 2375 4863 
L 2375 4384 
L 1825 4384 
Q 1516 4384 1395 4259 
Q 1275 4134 1275 3809 
L 1275 3500 
L 2222 3500 
L 2222 3053 
L 1275 3053 
L 1275 0 
L 697 0 
L 697 3053 
L 147 3053 
L 147 3500 
L 697 3500 
L 697 3744 
Q 697 4328 969 4595 
Q 1241 4863 1831 4863 
L 2375 4863 
z
" transform="scale(0.015625)"/>
       <path id="DejaVuSans-72" d="M 2631 2963 
Q 2534 3019 2420 3045 
Q 2306 3072 2169 3072 
Q 1681 3072 1420 2755 
Q 1159 2438 1159 1844 
L 1159 0 
L 581 0 
L 581 3500 
L 1159 3500 
L 1159 2956 
Q 1341 3275 1631 3429 
Q 1922 3584 2338 3584 
Q 2397 3584 2469 3576 
Q 2541 3569 2628 3553 
L 2631 2963 
z
" transform="scale(0.015625)"/>
       <path id="DejaVuSans-63" d="M 3122 3366 
L 3122 2828 
Q 2878 2963 2633 3030 
Q 2388 3097 2138 3097 
Q 1578 3097 1268 2742 
Q 959 2388 959 1747 
Q 959 1106 1268 751 
Q 1578 397 2138 397 
Q 2388 397 2633 464 
Q 2878 531 3122 666 
L 3122 134 
Q 2881 22 2623 -34 
Q 2366 -91 2075 -91 
Q 1284 -91 818 406 
Q 353 903 353 1747 
Q 353 2603 823 3093 
Q 1294 3584 2113 3584 
Q 2378 3584 2631 3529 
Q 2884 3475 3122 3366 
z
" transform="scale(0.015625)"/>
       <path id="DejaVuSans-6f" d="M 1959 3097 
Q 1497 3097 1228 2736 
Q 959 2375 959 1747 
Q 959 1119 1226 758 
Q 1494 397 1959 397 
Q 2419 397 2687 759 
Q 2956 1122 2956 1747 
Q 2956 2369 2687 2733 
Q 2419 3097 1959 3097 
z
M 1959 3584 
Q 2709 3584 3137 3096 
Q 3566 2609 3566 1747 
Q 3566 888 3137 398 
Q 2709 -91 1959 -91 
Q 1206 -91 779 398 
Q 353 888 353 1747 
Q 353 2609 779 3096 
Q 1206 3584 1959 3584 
z
" transform="scale(0.015625)"/>
       <path id="DejaVuSans-6d" d="M 3328 2828 
Q 3544 3216 3844 3400 
Q 4144 3584 4550 3584 
Q 5097 3584 5394 3201 
Q 5691 2819 5691 2113 
L 5691 0 
L 5113 0 
L 5113 2094 
Q 5113 2597 4934 2840 
Q 4756 3084 4391 3084 
Q 3944 3084 3684 2787 
Q 3425 2491 3425 1978 
L 3425 0 
L 2847 0 
L 2847 2094 
Q 2847 2600 2669 2842 
Q 2491 3084 2119 3084 
Q 1678 3084 1418 2786 
Q 1159 2488 1159 1978 
L 1159 0 
L 581 0 
L 581 3500 
L 1159 3500 
L 1159 2956 
Q 1356 3278 1631 3431 
Q 1906 3584 2284 3584 
Q 2666 3584 2933 3390 
Q 3200 3197 3328 2828 
z
" transform="scale(0.015625)"/>
       <path id="DejaVuSans-4e" d="M 628 4666 
L 1478 4666 
L 3547 763 
L 3547 4666 
L 4159 4666 
L 4159 0 
L 3309 0 
L 1241 3903 
L 1241 0 
L 628 0 
L 628 4666 
z
" transform="scale(0.015625)"/>
       <path id="DejaVuSans-67" d="M 2906 1791 
Q 2906 2416 2648 2759 
Q 2391 3103 1925 3103 
Q 1463 3103 1205 2759 
Q 947 2416 947 1791 
Q 947 1169 1205 825 
Q 1463 481 1925 481 
Q 2391 481 2648 825 
Q 2906 1169 2906 1791 
z
M 3481 434 
Q 3481 -459 3084 -895 
Q 2688 -1331 1869 -1331 
Q 1566 -1331 1297 -1286 
Q 1028 -1241 775 -1147 
L 775 -588 
Q 1028 -725 1275 -790 
Q 1522 -856 1778 -856 
Q 2344 -856 2625 -561 
Q 2906 -266 2906 331 
L 2906 616 
Q 2728 306 2450 153 
Q 2172 0 1784 0 
Q 1141 0 747 490 
Q 353 981 353 1791 
Q 353 2603 747 3093 
Q 1141 3584 1784 3584 
Q 2172 3584 2450 3431 
Q 2728 3278 2906 2969 
L 2906 3500 
L 3481 3500 
L 3481 434 
z
" transform="scale(0.015625)"/>
       <path id="DejaVuSans-68" d="M 3513 2113 
L 3513 0 
L 2938 0 
L 2938 2094 
Q 2938 2591 2744 2837 
Q 2550 3084 2163 3084 
Q 1697 3084 1428 2787 
Q 1159 2491 1159 1978 
L 1159 0 
L 581 0 
L 581 4863 
L 1159 4863 
L 1159 2956 
Q 1366 3272 1645 3428 
Q 1925 3584 2291 3584 
Q 2894 3584 3203 3211 
Q 3513 2838 3513 2113 
z
" transform="scale(0.015625)"/>
       <path id="DejaVuSans-62" d="M 3116 1747 
Q 3116 2381 2855 2742 
Q 2594 3103 2138 3103 
Q 1681 3103 1420 2742 
Q 1159 2381 1159 1747 
Q 1159 1113 1420 752 
Q 1681 391 2138 391 
Q 2594 391 2855 752 
Q 3116 1113 3116 1747 
z
M 1159 2969 
Q 1341 3281 1617 3432 
Q 1894 3584 2278 3584 
Q 2916 3584 3314 3078 
Q 3713 2572 3713 1747 
Q 3713 922 3314 415 
Q 2916 -91 2278 -91 
Q 1894 -91 1617 61 
Q 1341 213 1159 525 
L 1159 0 
L 581 0 
L 581 4863 
L 1159 4863 
L 1159 2969 
z
" transform="scale(0.015625)"/>
       <path id="DejaVuSans-73" d="M 2834 3397 
L 2834 2853 
Q 2591 2978 2328 3040 
Q 2066 3103 1784 3103 
Q 1356 3103 1142 2972 
Q 928 2841 928 2578 
Q 928 2378 1081 2264 
Q 1234 2150 1697 2047 
L 1894 2003 
Q 2506 1872 2764 1633 
Q 3022 1394 3022 966 
Q 3022 478 2636 193 
Q 2250 -91 1575 -91 
Q 1294 -91 989 -36 
Q 684 19 347 128 
L 347 722 
Q 666 556 975 473 
Q 1284 391 1588 391 
Q 1994 391 2212 530 
Q 2431 669 2431 922 
Q 2431 1156 2273 1281 
Q 2116 1406 1581 1522 
L 1381 1569 
Q 847 1681 609 1914 
Q 372 2147 372 2553 
Q 372 3047 722 3315 
Q 1072 3584 1716 3584 
Q 2034 3584 2315 3537 
Q 2597 3491 2834 3397 
z
" transform="scale(0.015625)"/>
      </defs>
      <use xlink:href="#DejaVuSans-4d"/>
      <use xlink:href="#DejaVuSans-65" x="86.279297"/>
      <use xlink:href="#DejaVuSans-61" x="147.802734"/>
      <use xlink:href="#DejaVuSans-6e" x="209.082031"/>
      <use xlink:href="#DejaVuSans-20" x="272.460938"/>
      <use xlink:href="#DejaVuSans-44" x="304.248047"/>
      <use xlink:href="#DejaVuSans-69" x="381.25"/>
      <use xlink:href="#DejaVuSans-66" x="409.033203"/>
      <use xlink:href="#DejaVuSans-66" x="444.238281"/>
      <use xlink:href="#DejaVuSans-65" x="479.443359"/>
      <use xlink:href="#DejaVuSans-72" x="540.966797"/>
      <use xlink:href="#DejaVuSans-65" x="579.830078"/>
      <use xlink:href="#DejaVuSans-6e" x="641.353516"/>
      <use xlink:href="#DejaVuSans-63" x="704.732422"/>
      <use xlink:href="#DejaVuSans-65" x="759.712891"/>
      <use xlink:href="#DejaVuSans-20" x="821.236328"/>
      <use xlink:href="#DejaVuSans-66" x="853.023438"/>
      <use xlink:href="#DejaVuSans-72" x="888.228516"/>
      <use xlink:href="#DejaVuSans-6f" x="927.091797"/>
      <use xlink:href="#DejaVuSans-6d" x="988.273438"/>
      <use xlink:href="#DejaVuSans-20" x="1085.685547"/>
      <use xlink:href="#DejaVuSans-4e" x="1117.472656"/>
      <use xlink:href="#DejaVuSans-65" x="1192.277344"/>
      <use xlink:href="#DejaVuSans-69" x="1253.800781"/>
      <use xlink:href="#DejaVuSans-67" x="1281.583984"/>
      <use xlink:href="#DejaVuSans-68" x="1345.060547"/>
      <use xlink:href="#DejaVuSans-62" x="1408.439453"/>
      <use xlink:href="#DejaVuSans-6f" x="1471.916016"/>
      <use xlink:href="#DejaVuSans-72" x="1533.097656"/>
      <use xlink:href="#DejaVuSans-73" x="1574.210938"/>
     </g>
    </g>
   </g>
   <g id="line2d_15">
    <path d="M 49.558636 302.954127 
L 51.066038 160.732047 
L 52.573441 167.031581 
L 54.080843 166.834922 
L 55.588245 172.037088 
L 57.095647 173.547764 
L 58.603049 176.469886 
L 60.110451 178.629891 
L 61.617853 181.081727 
L 63.125255 183.1732 
L 64.632657 181.304121 
L 66.140059 185.025329 
L 67.647461 186.97225 
L 69.154863 187.012154 
L 70.662266 188.035229 
L 72.169668 187.370376 
L 73.67707 189.592488 
L 75.184472 187.533276 
L 76.691874 189.152633 
L 78.199276 188.897808 
L 79.706678 188.396334 
L 81.21408 189.166919 
L 82.721482 189.741956 
L 84.228884 188.284493 
L 85.736286 186.476858 
L 87.243688 188.835085 
L 88.751091 185.107344 
L 90.258493 185.545715 
L 91.765895 184.565542 
L 93.273297 185.071201 
L 94.780699 184.608811 
L 96.288101 182.436011 
L 97.795503 182.112927 
L 99.302905 180.074576 
L 100.810307 180.093434 
L 102.317709 179.760538 
L 103.825111 176.706081 
L 105.332513 177.69821 
L 106.839916 175.67263 
L 108.347318 176.302146 
L 109.85472 174.806114 
L 111.362122 174.352836 
L 112.869524 171.149432 
L 114.376926 172.330192 
L 115.884328 171.140686 
L 117.39173 170.763255 
L 118.899132 168.11812 
L 121.913936 165.818927 
L 123.421338 164.616818 
L 124.928741 164.282731 
L 127.943545 162.627717 
L 129.450947 163.999391 
L 130.958349 160.291655 
L 132.465751 160.230213 
L 133.973153 158.541349 
L 135.480555 158.172624 
L 136.987957 157.267953 
L 138.495359 155.668021 
L 140.002761 155.115878 
L 141.510163 156.435504 
L 143.017566 156.622652 
L 144.524968 155.262176 
L 146.03237 157.11632 
L 147.539772 153.522875 
L 149.047174 155.361446 
L 150.554576 154.479678 
L 152.061978 156.932416 
L 153.56938 156.20285 
L 155.076782 154.957573 
L 156.584184 155.754425 
L 158.091586 155.401803 
L 159.598989 156.400316 
L 161.106391 155.175808 
L 162.613793 156.37984 
L 164.121195 157.152367 
L 165.628597 158.313021 
L 167.135999 157.937387 
L 168.643401 157.744552 
L 170.150803 158.290744 
L 171.658205 160.587225 
L 173.165607 161.205174 
L 174.673009 160.908646 
L 176.180411 161.025129 
L 177.687814 163.396838 
L 179.195216 164.398674 
L 180.702618 165.596063 
L 182.21002 164.794251 
L 183.717422 166.836335 
L 185.224824 167.555905 
L 186.732226 169.086798 
L 188.239628 169.795804 
L 189.74703 171.315652 
L 191.254432 171.463208 
L 192.761834 172.737708 
L 194.269236 175.113457 
L 195.776639 174.765284 
L 197.284041 177.087793 
L 198.791443 177.289929 
L 200.298845 177.734971 
L 201.806247 180.576601 
L 203.313649 182.774926 
L 204.821051 182.341378 
L 206.328453 182.698739 
L 207.835855 184.30328 
L 209.343257 186.288372 
L 210.850659 186.155703 
L 212.358061 188.158092 
L 213.865464 189.642788 
L 215.372866 189.499346 
L 216.880268 189.576902 
L 219.895072 193.636866 
L 221.402474 194.483453 
L 224.417278 196.811985 
L 225.92468 197.620555 
L 227.432082 199.04347 
L 228.939484 201.80556 
L 230.446886 202.112717 
L 231.954289 202.863977 
L 234.969093 206.220633 
L 236.476495 207.648934 
L 237.983897 209.871945 
L 239.491299 211.421849 
L 240.998701 212.518577 
L 242.506103 214.120262 
L 244.013505 214.522324 
L 247.028309 219.428319 
L 248.535711 219.280083 
L 250.043114 222.759775 
L 251.550516 224.898342 
L 253.057918 226.490252 
L 254.56532 226.765054 
L 256.072722 225.942334 
L 257.580124 228.361967 
L 260.594928 230.651231 
L 262.10233 231.57016 
L 263.609732 232.956928 
L 265.117134 234.840938 
L 266.624536 234.750904 
L 268.131939 236.389422 
L 269.639341 238.773322 
L 271.146743 239.251295 
L 272.654145 240.804237 
L 274.161547 241.978927 
L 275.668949 243.761425 
L 277.176351 245.100943 
L 278.683753 245.379185 
L 280.191155 247.312883 
L 281.698557 247.93492 
L 283.205959 249.861477 
L 284.713361 250.223954 
L 287.728166 251.474309 
L 289.235568 254.305771 
L 290.74297 254.053174 
L 292.250372 255.186236 
L 293.757774 255.201556 
L 295.265176 255.77471 
L 296.772578 257.151911 
L 298.27998 257.493321 
L 299.787382 257.459828 
L 301.294784 258.565301 
L 302.802186 258.513347 
L 304.309589 259.836797 
L 305.816991 261.837156 
L 307.324393 262.565718 
L 308.831795 263.760265 
L 310.339197 265.133692 
L 311.846599 265.898641 
L 313.354001 267.165384 
L 314.861403 267.846252 
L 316.368805 266.132557 
L 317.876207 266.848138 
L 319.383609 265.413371 
L 320.891011 264.504753 
L 322.398414 265.351835 
L 323.905816 263.838602 
L 325.413218 264.439192 
L 326.92062 266.058413 
L 328.428022 265.690669 
L 329.935424 267.222775 
L 331.442826 268.564389 
L 332.950228 267.441492 
L 334.45763 267.125574 
L 335.965032 270.326613 
L 338.979837 271.817393 
L 340.487239 272.604447 
L 341.994641 273.77422 
L 343.502043 275.100234 
L 345.009445 276.228604 
L 346.516847 276.509232 
L 348.024249 277.171626 
L 349.531651 277.018086 
L 351.039053 277.741603 
L 352.546455 276.0511 
L 354.053857 276.77874 
L 355.561259 277.100866 
L 357.068662 276.834726 
L 358.576064 277.11473 
L 360.083466 275.922234 
L 361.590868 273.967705 
L 363.09827 273.48689 
L 364.605672 274.357487 
L 366.113074 273.600545 
L 367.620476 275.124487 
L 369.127878 275.860883 
L 370.63528 273.944725 
L 372.142682 274.179752 
L 373.650084 272.802296 
L 375.157487 273.782574 
L 378.172291 275.138816 
L 379.679693 275.616719 
L 381.187095 274.438633 
L 382.694497 274.480941 
L 384.201899 274.18978 
L 385.709301 273.683025 
L 387.216703 273.708233 
L 388.724105 275.012842 
L 390.231507 273.973759 
L 391.738909 274.960983 
L 393.246312 270.70016 
L 394.753714 273.997108 
L 396.261116 274.46417 
L 397.768518 276.653839 
L 399.27592 274.360741 
L 400.783322 276.533029 
L 402.290724 276.182503 
L 403.798126 277.421464 
L 405.305528 277.829856 
L 406.81293 281.705443 
L 408.320332 281.720479 
L 409.827734 282.422909 
L 411.335137 282.793214 
L 412.842539 282.071182 
L 414.349941 280.315436 
L 415.857343 278.762882 
L 417.364745 273.527388 
L 418.872147 265.403905 
L 420.379549 251.507961 
L 421.886951 259.149031 
L 423.394353 257.736339 
L 424.901755 253.105314 
L 426.409157 245.980224 
L 427.916559 241.636048 
L 429.423962 229.006599 
L 430.931364 241.684085 
L 430.931364 241.684085 
" clip-path="url(#p67cefbd6ab)" style="fill: none; stroke: #1f77b4; stroke-width: 1.5; stroke-linecap: square"/>
   </g>
   <g id="patch_3">
    <path d="M 30.49 317.72 
L 30.49 10.8 
" style="fill: none; stroke: #000000; stroke-width: 0.8; stroke-linejoin: miter; stroke-linecap: square"/>
   </g>
   <g id="patch_4">
    <path d="M 450 317.72 
L 450 10.8 
" style="fill: none; stroke: #000000; stroke-width: 0.8; stroke-linejoin: miter; stroke-linecap: square"/>
   </g>
   <g id="patch_5">
    <path d="M 30.49 317.72 
L 450 317.72 
" style="fill: none; stroke: #000000; stroke-width: 0.8; stroke-linejoin: miter; stroke-linecap: square"/>
   </g>
   <g id="patch_6">
    <path d="M 30.49 10.8 
L 450 10.8 
" style="fill: none; stroke: #000000; stroke-width: 0.8; stroke-linejoin: miter; stroke-linecap: square"/>
   </g>
   <g id="text_17">
    <!-- HAB Distance from Neighbors -->
    <g transform="translate(91.612188 4.8) scale(0.2 -0.2)">
     <defs>
      <path id="DejaVuSans-74" d="M 1172 4494 
L 1172 3500 
L 2356 3500 
L 2356 3053 
L 1172 3053 
L 1172 1153 
Q 1172 725 1289 603 
Q 1406 481 1766 481 
L 2356 481 
L 2356 0 
L 1766 0 
Q 1100 0 847 248 
Q 594 497 594 1153 
L 594 3053 
L 172 3053 
L 172 3500 
L 594 3500 
L 594 4494 
L 1172 4494 
z
" transform="scale(0.015625)"/>
     </defs>
     <use xlink:href="#DejaVuSans-48"/>
     <use xlink:href="#DejaVuSans-41" x="75.195312"/>
     <use xlink:href="#DejaVuSans-42" x="143.603516"/>
     <use xlink:href="#DejaVuSans-20" x="212.207031"/>
     <use xlink:href="#DejaVuSans-44" x="243.994141"/>
     <use xlink:href="#DejaVuSans-69" x="320.996094"/>
     <use xlink:href="#DejaVuSans-73" x="348.779297"/>
     <use xlink:href="#DejaVuSans-74" x="400.878906"/>
     <use xlink:href="#DejaVuSans-61" x="440.087891"/>
     <use xlink:href="#DejaVuSans-6e" x="501.367188"/>
     <use xlink:href="#DejaVuSans-63" x="564.746094"/>
     <use xlink:href="#DejaVuSans-65" x="619.726562"/>
     <use xlink:href="#DejaVuSans-20" x="681.25"/>
     <use xlink:href="#DejaVuSans-66" x="713.037109"/>
     <use xlink:href="#DejaVuSans-72" x="748.242188"/>
     <use xlink:href="#DejaVuSans-6f" x="787.105469"/>
     <use xlink:href="#DejaVuSans-6d" x="848.287109"/>
     <use xlink:href="#DejaVuSans-20" x="945.699219"/>
     <use xlink:href="#DejaVuSans-4e" x="977.486328"/>
     <use xlink:href="#DejaVuSans-65" x="1052.291016"/>
     <use xlink:href="#DejaVuSans-69" x="1113.814453"/>
     <use xlink:href="#DejaVuSans-67" x="1141.597656"/>
     <use xlink:href="#DejaVuSans-68" x="1205.074219"/>
     <use xlink:href="#DejaVuSans-62" x="1268.453125"/>
     <use xlink:href="#DejaVuSans-6f" x="1331.929688"/>
     <use xlink:href="#DejaVuSans-72" x="1393.111328"/>
     <use xlink:href="#DejaVuSans-73" x="1434.224609"/>
    </g>
   </g>
  </g>
 </g>
 <defs>
  <clipPath id="p67cefbd6ab">
   <rect x="30.49" y="10.8" width="419.51" height="306.92"/>
  </clipPath>
 </defs>
</svg>
