<?xml version="1.0" encoding="utf-8" standalone="no"?>
<!DOCTYPE svg PUBLIC "-//W3C//DTD SVG 1.1//EN"
  "http://www.w3.org/Graphics/SVG/1.1/DTD/svg11.dtd">
<svg xmlns:xlink="http://www.w3.org/1999/xlink" width="380.202886pt" height="303.94171pt" viewBox="0 0 380.202886 303.94171" xmlns="http://www.w3.org/2000/svg" version="1.1">
 <metadata>
  <rdf:RDF xmlns:dc="http://purl.org/dc/elements/1.1/" xmlns:cc="http://creativecommons.org/ns#" xmlns:rdf="http://www.w3.org/1999/02/22-rdf-syntax-ns#">
   <cc:Work>
    <dc:type rdf:resource="http://purl.org/dc/dcmitype/StillImage"/>
    <dc:date>2024-03-13T14:06:21.093288</dc:date>
    <dc:format>image/svg+xml</dc:format>
    <dc:creator>
     <cc:Agent>
      <dc:title>Matplotlib v3.8.2, https://matplotlib.org/</dc:title>
     </cc:Agent>
    </dc:creator>
   </cc:Work>
  </rdf:RDF>
 </metadata>
 <defs>
  <style type="text/css">*{stroke-linejoin: round; stroke-linecap: butt}</style>
 </defs>
 <g id="figure_1">
  <g id="patch_1">
   <path d="M 0 303.94171 
L 380.202886 303.94171 
L 380.202886 0 
L 0 0 
z
" style="fill: #ffffff"/>
  </g>
  <g id="axes_1">
   <g id="patch_2">
    <path d="M 40.583332 264.387189 
L 364.223332 264.387189 
L 364.223332 23.223189 
L 40.583332 23.223189 
z
" style="fill: #ffffff"/>
   </g>
   <g id="PolyCollection_1">
    <path d="M 53.243765 244.237012 
L 53.243765 253.425189 
L 54.472934 250.908529 
L 55.702102 245.423485 
L 56.93127 253.425189 
L 58.160438 253.425189 
L 59.389607 253.425189 
L 60.618775 253.425189 
L 61.847943 253.425189 
L 63.077111 253.425189 
L 64.30628 249.730503 
L 65.535448 253.425189 
L 66.764616 249.090001 
L 67.993784 253.425189 
L 69.222953 253.425189 
L 70.452121 253.425189 
L 71.681289 253.425189 
L 72.910457 253.425189 
L 74.139626 244.472644 
L 75.368794 245.046583 
L 76.597962 250.139208 
L 77.82713 253.425189 
L 79.056299 248.048137 
L 80.285467 243.720578 
L 81.514635 247.994239 
L 82.743803 246.378779 
L 83.972972 245.928348 
L 85.20214 245.912444 
L 86.431308 250.578424 
L 87.660476 244.889676 
L 88.889645 231.653597 
L 90.118813 237.038975 
L 91.347981 236.26997 
L 92.577149 246.957119 
L 93.806318 238.379701 
L 95.035486 239.023796 
L 96.264654 253.425189 
L 97.493822 230.591142 
L 98.722991 224.651336 
L 99.952159 227.873986 
L 101.181327 233.590103 
L 102.410495 222.489515 
L 103.639664 222.874057 
L 104.868832 220.904196 
L 106.098 231.925395 
L 107.327168 242.056862 
L 108.556337 225.243695 
L 109.785505 230.694759 
L 111.014673 227.403407 
L 112.243841 231.877369 
L 113.47301 222.133514 
L 114.702178 231.942464 
L 115.931346 238.620836 
L 117.160514 224.071257 
L 118.389683 227.745508 
L 119.618851 223.663738 
L 120.848019 213.642074 
L 122.077187 225.906102 
L 123.306356 222.327117 
L 124.535524 233.311202 
L 125.764692 214.850806 
L 126.99386 227.833361 
L 128.223029 229.48526 
L 129.452197 219.324079 
L 130.681365 218.647131 
L 131.910533 219.385226 
L 133.139702 221.01173 
L 134.36887 220.737062 
L 135.598038 222.567925 
L 136.827206 229.746505 
L 138.056375 220.934284 
L 139.285543 227.261946 
L 140.514711 221.932346 
L 141.743879 231.352779 
L 142.973048 215.786803 
L 144.202216 228.633164 
L 145.431384 235.768876 
L 146.660552 211.687777 
L 147.889721 230.089993 
L 149.118889 222.945635 
L 150.348057 224.367921 
L 151.577225 225.459372 
L 152.806394 218.477485 
L 154.035562 227.892593 
L 155.26473 240.636507 
L 156.493898 227.873241 
L 157.723067 227.505478 
L 158.952235 237.079429 
L 160.181403 231.572464 
L 161.410571 229.891657 
L 162.63974 240.559368 
L 163.868908 225.421431 
L 165.098076 246.257941 
L 166.327244 235.363399 
L 167.556413 239.009224 
L 168.785581 242.607681 
L 170.014749 231.999829 
L 171.243917 243.737778 
L 172.473086 253.425189 
L 173.702254 253.425189 
L 174.931422 241.570013 
L 176.16059 246.588222 
L 177.389759 252.119192 
L 178.618927 253.425189 
L 179.848095 250.811212 
L 181.077263 252.00046 
L 182.306432 253.425189 
L 183.5356 253.28109 
L 184.764768 253.425189 
L 185.993936 253.425189 
L 187.223105 253.425189 
L 188.452273 253.425189 
L 189.681441 253.425189 
L 190.910609 253.425189 
L 192.139778 253.425189 
L 193.368946 253.425189 
L 194.598114 253.425189 
L 195.827282 253.425189 
L 197.056451 253.425189 
L 198.285619 253.425189 
L 199.514787 253.425189 
L 200.743955 253.425189 
L 201.973124 253.425189 
L 203.202292 253.425189 
L 204.43146 253.425189 
L 205.660628 253.425189 
L 206.889797 253.425189 
L 208.118965 253.425189 
L 209.348133 253.425189 
L 210.577301 253.425189 
L 211.80647 253.425189 
L 213.035638 253.425189 
L 214.264806 253.425189 
L 215.493974 253.425189 
L 216.723143 253.425189 
L 217.952311 253.425189 
L 219.181479 253.425189 
L 220.410647 253.425189 
L 221.639816 253.425189 
L 222.868984 253.425189 
L 224.098152 253.425189 
L 225.32732 253.425189 
L 226.556488 253.425189 
L 227.785657 253.425189 
L 229.014825 253.425189 
L 230.243993 253.425189 
L 231.473161 253.425189 
L 232.70233 253.425189 
L 233.931498 253.425189 
L 235.160666 253.425189 
L 236.389834 253.425189 
L 237.619003 253.425189 
L 238.848171 253.425189 
L 240.077339 253.425189 
L 241.306507 253.425189 
L 242.535676 253.425189 
L 243.764844 253.425189 
L 244.994012 253.425189 
L 246.22318 253.425189 
L 247.452349 253.425189 
L 248.681517 253.425189 
L 249.910685 253.425189 
L 251.139853 253.425189 
L 252.369022 253.425189 
L 253.59819 253.425189 
L 254.827358 253.425189 
L 256.056526 253.425189 
L 257.285695 253.425189 
L 258.514863 253.425189 
L 259.744031 253.425189 
L 260.973199 253.425189 
L 262.202368 253.425189 
L 263.431536 253.425189 
L 264.660704 252.516264 
L 265.889872 253.425189 
L 267.119041 253.425189 
L 268.348209 253.425189 
L 269.577377 253.425189 
L 270.806545 253.425189 
L 272.035714 253.425189 
L 273.264882 253.425189 
L 274.49405 253.425189 
L 275.723218 253.425189 
L 276.952387 253.425189 
L 278.181555 253.425189 
L 279.410723 253.425189 
L 280.639891 253.425189 
L 281.86906 253.425189 
L 283.098228 253.425189 
L 284.327396 253.425189 
L 285.556564 253.425189 
L 286.785733 253.425189 
L 288.014901 253.425189 
L 289.244069 253.425189 
L 290.473237 253.425189 
L 291.702406 253.425189 
L 292.931574 253.425189 
L 294.160742 253.425189 
L 295.38991 253.425189 
L 296.619079 253.425189 
L 297.848247 253.425189 
L 299.077415 253.425189 
L 300.306583 253.425189 
L 301.535752 253.425189 
L 302.76492 253.425189 
L 303.994088 253.425189 
L 305.223256 243.996617 
L 306.452425 232.752434 
L 306.452425 34.185189 
L 306.452425 34.185189 
L 305.223256 240.276937 
L 303.994088 203.051648 
L 302.76492 216.060222 
L 301.535752 178.428483 
L 300.306583 224.715028 
L 299.077415 239.265348 
L 297.848247 235.805594 
L 296.619079 242.310045 
L 295.38991 244.628687 
L 294.160742 240.668263 
L 292.931574 222.885544 
L 291.702406 233.200071 
L 290.473237 220.898231 
L 289.244069 233.640979 
L 288.014901 228.711576 
L 286.785733 219.467825 
L 285.556564 217.714673 
L 284.327396 220.84194 
L 283.098228 220.476446 
L 281.86906 232.86393 
L 280.639891 218.315683 
L 279.410723 218.134028 
L 278.181555 207.560773 
L 276.952387 190.636387 
L 275.723218 191.77292 
L 274.49405 201.208334 
L 273.264882 180.8462 
L 272.035714 173.144307 
L 270.806545 212.491792 
L 269.577377 201.688599 
L 268.348209 179.150569 
L 267.119041 176.074298 
L 265.889872 188.903072 
L 264.660704 221.343196 
L 263.431536 189.61794 
L 262.202368 147.464353 
L 260.973199 177.604373 
L 259.744031 142.860107 
L 258.514863 205.196586 
L 257.285695 200.830955 
L 256.056526 188.654612 
L 254.827358 173.753316 
L 253.59819 185.639896 
L 252.369022 157.894473 
L 251.139853 203.618935 
L 249.910685 173.889239 
L 248.681517 154.857381 
L 247.452349 212.906435 
L 246.22318 194.71413 
L 244.994012 168.069241 
L 243.764844 199.286561 
L 242.535676 198.052485 
L 241.306507 191.695574 
L 240.077339 150.16068 
L 238.848171 194.963302 
L 237.619003 187.595846 
L 236.389834 191.296074 
L 235.160666 161.224962 
L 233.931498 145.376625 
L 232.70233 166.555491 
L 231.473161 169.587733 
L 230.243993 139.922529 
L 229.014825 144.360027 
L 227.785657 159.111295 
L 226.556488 150.206968 
L 225.32732 154.091383 
L 224.098152 128.496175 
L 222.868984 124.019338 
L 221.639816 133.618677 
L 220.410647 136.957498 
L 219.181479 108.074286 
L 217.952311 126.524178 
L 216.723143 94.664833 
L 215.493974 125.377017 
L 214.264806 117.999395 
L 213.035638 118.419822 
L 211.80647 101.026123 
L 210.577301 108.63098 
L 209.348133 109.006172 
L 208.118965 100.156091 
L 206.889797 94.606017 
L 205.660628 86.728625 
L 204.43146 124.572334 
L 203.202292 75.648827 
L 201.973124 95.320745 
L 200.743955 93.374747 
L 199.514787 105.726455 
L 198.285619 95.017268 
L 197.056451 103.645051 
L 195.827282 71.359082 
L 194.598114 72.750794 
L 193.368946 73.462947 
L 192.139778 75.855607 
L 190.910609 73.883724 
L 189.681441 74.200738 
L 188.452273 79.843102 
L 187.223105 73.159036 
L 185.993936 81.732306 
L 184.764768 71.180634 
L 183.5356 69.525567 
L 182.306432 61.980176 
L 181.077263 73.464726 
L 179.848095 77.734274 
L 178.618927 71.073922 
L 177.389759 59.136071 
L 176.16059 47.87301 
L 174.931422 44.122557 
L 173.702254 59.830933 
L 172.473086 64.447367 
L 171.243917 67.265453 
L 170.014749 34.75041 
L 168.785581 63.440122 
L 167.556413 56.574066 
L 166.327244 45.336913 
L 165.098076 75.78992 
L 163.868908 43.91113 
L 162.63974 63.547895 
L 161.410571 50.714098 
L 160.181403 48.998827 
L 158.952235 41.910326 
L 157.723067 57.682079 
L 156.493898 56.745028 
L 155.26473 77.213102 
L 154.035562 58.3204 
L 152.806394 44.611296 
L 151.577225 57.235339 
L 150.348057 68.306026 
L 149.118889 60.631224 
L 147.889721 95.738817 
L 146.660552 58.267343 
L 145.431384 89.065767 
L 144.202216 60.403659 
L 142.973048 70.445391 
L 141.743879 86.378534 
L 140.514711 74.231006 
L 139.285543 81.316248 
L 138.056375 81.047961 
L 136.827206 76.933453 
L 135.598038 77.369146 
L 134.36887 81.11481 
L 133.139702 91.698751 
L 131.910533 82.861041 
L 130.681365 74.342023 
L 129.452197 80.528854 
L 128.223029 94.387695 
L 126.99386 91.664949 
L 125.764692 77.983125 
L 124.535524 75.51595 
L 123.306356 100.190413 
L 122.077187 93.93014 
L 120.848019 92.853564 
L 119.618851 105.513104 
L 118.389683 75.721058 
L 117.160514 95.876029 
L 115.931346 92.406956 
L 114.702178 107.796175 
L 113.47301 114.650532 
L 112.243841 116.84843 
L 111.014673 111.959815 
L 109.785505 111.60445 
L 108.556337 115.246512 
L 107.327168 94.20516 
L 106.098 114.609476 
L 104.868832 111.732891 
L 103.639664 105.151731 
L 102.410495 112.38114 
L 101.181327 115.754701 
L 99.952159 111.956689 
L 98.722991 109.371145 
L 97.493822 100.211115 
L 96.264654 94.477522 
L 95.035486 123.460892 
L 93.806318 111.552335 
L 92.577149 104.318285 
L 91.347981 135.293762 
L 90.118813 123.18069 
L 88.889645 132.502964 
L 87.660476 118.716505 
L 86.431308 111.489322 
L 85.20214 112.483506 
L 83.972972 107.850025 
L 82.743803 109.286515 
L 81.514635 95.673836 
L 80.285467 121.891884 
L 79.056299 104.906444 
L 77.82713 130.142174 
L 76.597962 107.953369 
L 75.368794 139.261828 
L 74.139626 118.646312 
L 72.910457 108.911303 
L 71.681289 126.35402 
L 70.452121 85.314119 
L 69.222953 87.426403 
L 67.993784 91.584077 
L 66.764616 109.80168 
L 65.535448 93.962284 
L 64.30628 58.796006 
L 63.077111 62.216816 
L 61.847943 51.318904 
L 60.618775 78.025051 
L 59.389607 109.854392 
L 58.160438 58.724009 
L 56.93127 47.409624 
L 55.702102 121.661097 
L 54.472934 99.330746 
L 53.243765 244.237012 
z
" clip-path="url(#pc7e913c301)" style="fill: #1f77b4; fill-opacity: 0.3"/>
   </g>
   <g id="matplotlib.axis_1">
    <g id="xtick_1">
     <g id="line2d_1">
      <defs>
       <path id="m59d5abfe2f" d="M 0 0 
L 0 3.5 
" style="stroke: #000000; stroke-width: 0.8"/>
      </defs>
      <g>
       <use xlink:href="#m59d5abfe2f" x="53.243765" y="264.387189" style="stroke: #000000; stroke-width: 0.8"/>
      </g>
     </g>
     <g id="text_1">
      <!-- 0 -->
      <g transform="translate(50.317247 279.739854) scale(0.12 -0.12)">
       <defs>
        <path id="LMRoman17-Regular-30" d="M 2688 2025 
C 2688 2416 2682 3080 2413 3591 
C 2176 4039 1798 4198 1466 4198 
C 1158 4198 768 4058 525 3597 
C 269 3118 243 2524 243 2025 
C 243 1661 250 1106 448 619 
C 723 -39 1216 -128 1466 -128 
C 1760 -128 2208 -7 2470 600 
C 2662 1042 2688 1559 2688 2025 
z
M 2278 2096 
C 2278 1680 2278 1169 2202 792 
C 2067 95 1690 -26 1466 -26 
C 1056 -26 813 325 723 812 
C 653 1188 653 1738 653 2096 
C 653 2588 653 2997 736 3387 
C 858 3929 1216 4096 1466 4096 
C 1728 4096 2067 3923 2189 3400 
C 2272 3036 2278 2607 2278 2096 
z
" transform="scale(0.015625)"/>
       </defs>
       <use xlink:href="#LMRoman17-Regular-30" transform="scale(0.996264)"/>
      </g>
     </g>
    </g>
    <g id="xtick_2">
     <g id="line2d_2">
      <g>
       <use xlink:href="#m59d5abfe2f" x="114.702178" y="264.387189" style="stroke: #000000; stroke-width: 0.8"/>
      </g>
     </g>
     <g id="text_2">
      <!-- 50 -->
      <g transform="translate(108.849142 279.739854) scale(0.12 -0.12)">
       <defs>
        <path id="LMRoman17-Regular-35" d="M 2669 1264 
C 2669 2030 2170 2624 1549 2624 
C 1222 2624 947 2503 730 2274 
L 730 3692 
C 794 3666 1056 3584 1325 3584 
C 1920 3584 2246 3911 2432 4100 
C 2432 4157 2432 4192 2394 4192 
C 2394 4192 2374 4192 2323 4163 
C 2099 4058 1837 3973 1517 3973 
C 1325 3973 1037 3999 723 4139 
C 653 4171 634 4171 634 4171 
C 602 4171 595 4164 595 4037 
L 595 2203 
C 595 2089 595 2057 659 2057 
C 691 2057 704 2070 736 2114 
C 941 2401 1222 2522 1542 2522 
C 1766 2522 2246 2382 2246 1289 
C 2246 1085 2246 715 2054 421 
C 1894 159 1645 25 1370 25 
C 947 25 518 320 403 814 
C 429 807 480 795 506 795 
C 589 795 749 840 749 1038 
C 749 1210 627 1280 506 1280 
C 358 1280 262 1190 262 1011 
C 262 454 704 -128 1382 -128 
C 2042 -128 2669 440 2669 1264 
z
" transform="scale(0.015625)"/>
       </defs>
       <use xlink:href="#LMRoman17-Regular-35" transform="scale(0.996264)"/>
       <use xlink:href="#LMRoman17-Regular-30" transform="translate(45.690948 0) scale(0.996264)"/>
      </g>
     </g>
    </g>
    <g id="xtick_3">
     <g id="line2d_3">
      <g>
       <use xlink:href="#m59d5abfe2f" x="176.16059" y="264.387189" style="stroke: #000000; stroke-width: 0.8"/>
      </g>
     </g>
     <g id="text_3">
      <!-- 100 -->
      <g transform="translate(167.381036 279.739854) scale(0.12 -0.12)">
       <defs>
        <path id="LMRoman17-Regular-31" d="M 2458 0 
L 2458 160 
L 2266 160 
C 1715 160 1702 230 1702 458 
L 1702 4058 
C 1702 4192 1696 4192 1606 4192 
C 1357 3916 979 3827 621 3827 
C 602 3827 570 3827 563 3808 
C 557 3795 557 3782 557 3648 
C 755 3648 1088 3686 1344 3839 
L 1344 461 
C 1344 236 1331 160 781 160 
L 589 160 
L 589 0 
L 1523 0 
L 2458 0 
z
" transform="scale(0.015625)"/>
       </defs>
       <use xlink:href="#LMRoman17-Regular-31" transform="scale(0.996264)"/>
       <use xlink:href="#LMRoman17-Regular-30" transform="translate(45.690948 0) scale(0.996264)"/>
       <use xlink:href="#LMRoman17-Regular-30" transform="translate(91.381897 0) scale(0.996264)"/>
      </g>
     </g>
    </g>
    <g id="xtick_4">
     <g id="line2d_4">
      <g>
       <use xlink:href="#m59d5abfe2f" x="237.619003" y="264.387189" style="stroke: #000000; stroke-width: 0.8"/>
      </g>
     </g>
     <g id="text_4">
      <!-- 150 -->
      <g transform="translate(228.839449 279.739854) scale(0.12 -0.12)">
       <use xlink:href="#LMRoman17-Regular-31" transform="scale(0.996264)"/>
       <use xlink:href="#LMRoman17-Regular-35" transform="translate(45.690948 0) scale(0.996264)"/>
       <use xlink:href="#LMRoman17-Regular-30" transform="translate(91.381897 0) scale(0.996264)"/>
      </g>
     </g>
    </g>
    <g id="xtick_5">
     <g id="line2d_5">
      <g>
       <use xlink:href="#m59d5abfe2f" x="299.077415" y="264.387189" style="stroke: #000000; stroke-width: 0.8"/>
      </g>
     </g>
     <g id="text_5">
      <!-- 200 -->
      <g transform="translate(290.297861 279.739854) scale(0.12 -0.12)">
       <defs>
        <path id="LMRoman17-Regular-32" d="M 2669 989 
L 2554 989 
C 2490 536 2438 459 2413 420 
C 2381 369 1920 369 1830 369 
L 602 369 
L 1824 1597 
C 2214 1967 2669 2402 2669 3035 
C 2669 3790 2067 4224 1395 4224 
C 691 4224 262 3604 262 3030 
C 262 2780 448 2748 525 2748 
C 589 2748 781 2787 781 3010 
C 781 3207 614 3264 525 3264 
C 486 3264 448 3258 422 3245 
C 544 3790 915 4058 1306 4058 
C 1862 4058 2227 3617 2227 3035 
C 2227 2479 1901 2000 1536 1584 
L 262 146 
L 262 0 
L 2515 0 
L 2669 989 
z
" transform="scale(0.015625)"/>
       </defs>
       <use xlink:href="#LMRoman17-Regular-32" transform="scale(0.996264)"/>
       <use xlink:href="#LMRoman17-Regular-30" transform="translate(45.690948 0) scale(0.996264)"/>
       <use xlink:href="#LMRoman17-Regular-30" transform="translate(91.381897 0) scale(0.996264)"/>
      </g>
     </g>
    </g>
    <g id="xtick_6">
     <g id="line2d_6">
      <g>
       <use xlink:href="#m59d5abfe2f" x="364.223332" y="264.387189" style="stroke: #000000; stroke-width: 0.8"/>
      </g>
     </g>
     <g id="text_6">
      <!-- 253 -->
      <g transform="translate(355.443779 279.739854) scale(0.12 -0.12)">
       <defs>
        <path id="LMRoman17-Regular-33" d="M 2720 1085 
C 2720 1707 2208 2157 1600 2227 
C 2086 2328 2554 2756 2554 3329 
C 2554 3820 2048 4179 1472 4179 
C 890 4179 378 3829 378 3329 
C 378 3110 544 3072 627 3072 
C 762 3072 877 3155 877 3321 
C 877 3486 762 3569 627 3569 
C 602 3569 570 3569 544 3557 
C 730 3959 1235 4032 1459 4032 
C 1683 4032 2106 3925 2106 3320 
C 2106 3143 2080 2828 1862 2550 
C 1670 2304 1453 2304 1242 2284 
C 1210 2284 1062 2269 1037 2269 
C 992 2263 966 2257 966 2208 
C 966 2163 973 2157 1101 2157 
L 1414 2157 
C 1984 2157 2234 1662 2234 1090 
C 2234 320 1824 25 1453 25 
C 1114 25 563 194 390 693 
C 422 680 454 680 486 680 
C 640 680 755 782 755 948 
C 755 1133 614 1216 486 1216 
C 378 1216 211 1165 211 926 
C 211 335 787 -128 1466 -128 
C 2176 -128 2720 430 2720 1085 
z
" transform="scale(0.015625)"/>
       </defs>
       <use xlink:href="#LMRoman17-Regular-32" transform="scale(0.996264)"/>
       <use xlink:href="#LMRoman17-Regular-35" transform="translate(45.690948 0) scale(0.996264)"/>
       <use xlink:href="#LMRoman17-Regular-33" transform="translate(91.381897 0) scale(0.996264)"/>
      </g>
     </g>
    </g>
    <g id="text_7">
     <!-- HAB index -->
     <g transform="translate(173.712393 294.417114) scale(0.12 -0.12)">
      <defs>
       <path id="LMRoman17-Regular-48" d="M 4102 0 
L 4102 160 
C 3661 160 3590 160 3590 447 
L 3590 3905 
C 3590 4192 3661 4192 4102 4192 
L 4102 4352 
C 3917 4352 3578 4352 3379 4352 
C 3181 4352 2842 4352 2656 4352 
L 2656 4192 
C 3098 4192 3168 4192 3168 3904 
L 3168 2341 
L 1261 2341 
L 1261 3904 
C 1261 4192 1331 4192 1773 4192 
L 1773 4352 
C 1587 4352 1248 4352 1050 4352 
C 851 4352 512 4352 326 4352 
L 326 4192 
C 768 4192 838 4192 838 3905 
L 838 447 
C 838 160 768 160 326 160 
L 326 0 
C 512 0 851 0 1050 0 
C 1248 0 1587 0 1773 0 
L 1773 160 
C 1331 160 1261 160 1261 446 
L 1261 2176 
L 3168 2176 
L 3168 446 
C 3168 160 3098 160 2656 160 
L 2656 0 
C 2842 0 3181 0 3379 0 
C 3578 0 3917 0 4102 0 
z
" transform="scale(0.015625)"/>
       <path id="LMRoman17-Regular-41" d="M 4282 -13 
L 4282 153 
C 3942 153 3827 153 3744 387 
L 2323 4378 
C 2291 4461 2278 4480 2214 4480 
C 2150 4480 2138 4461 2106 4378 
L 749 566 
C 627 223 371 153 147 153 
L 147 -13 
C 262 0 518 0 640 0 
C 800 0 1056 0 1210 -13 
L 1210 153 
C 909 153 864 361 864 439 
C 864 497 877 530 890 569 
L 1229 1536 
L 2906 1536 
L 3290 442 
C 3322 365 3322 352 3322 327 
C 3322 153 3046 153 2925 153 
L 2925 0 
C 3110 0 3443 0 3642 0 
C 3808 0 4128 0 4282 -13 
z
M 2848 1702 
L 1286 1702 
L 2067 3874 
L 2848 1702 
z
" transform="scale(0.015625)"/>
       <path id="LMRoman17-Regular-42" d="M 3885 1164 
C 3885 1741 3360 2233 2675 2233 
C 3290 2356 3718 2771 3718 3264 
C 3718 3802 3194 4352 2368 4352 
L 333 4352 
L 333 4186 
C 774 4186 845 4186 845 3900 
L 845 452 
C 845 166 774 166 333 166 
L 333 0 
L 2534 0 
C 3354 0 3885 583 3885 1164 
z
M 3251 3277 
C 3251 2791 2861 2304 2170 2304 
L 1248 2304 
L 1248 3937 
C 1248 4155 1261 4186 1517 4186 
L 2336 4186 
C 2970 4186 3251 3674 3251 3277 
z
M 3411 1162 
C 3411 699 3046 166 2349 166 
L 1517 166 
C 1261 166 1248 197 1248 413 
L 1248 2202 
L 2432 2202 
C 3091 2202 3411 1625 3411 1162 
z
" transform="scale(0.015625)"/>
       <path id="LMRoman17-Regular-69" d="M 1370 -13 
L 1370 153 
C 992 153 979 191 979 420 
L 979 2778 
L 243 2708 
L 243 2542 
C 602 2542 653 2503 653 2198 
L 653 427 
C 653 184 627 153 218 153 
L 218 -13 
C 371 0 646 0 806 0 
C 960 0 1222 0 1370 -13 
z
M 1056 3835 
C 1056 3988 934 4096 800 4096 
C 646 4096 538 3975 538 3835 
C 538 3682 659 3574 794 3574 
C 947 3574 1056 3695 1056 3835 
z
" transform="scale(0.015625)"/>
       <path id="LMRoman17-Regular-6e" d="M 3091 -13 
L 3091 153 
C 2682 153 2656 178 2656 428 
L 2656 1933 
C 2656 2259 2592 2790 1837 2790 
C 1331 2790 1069 2400 973 2144 
L 966 2144 
L 966 2790 
L 211 2720 
L 211 2554 
C 589 2554 646 2515 646 2208 
L 646 428 
C 646 184 621 153 211 153 
L 211 -13 
C 365 0 646 0 813 0 
C 979 0 1267 0 1421 -13 
L 1421 153 
C 1011 153 986 178 986 428 
L 986 1658 
C 986 2247 1344 2688 1792 2688 
C 2266 2688 2317 2266 2317 1958 
L 2317 428 
C 2317 184 2291 153 1882 153 
L 1882 -13 
C 2035 0 2317 0 2483 0 
C 2650 0 2938 0 3091 -13 
z
" transform="scale(0.015625)"/>
       <path id="LMRoman17-Regular-64" d="M 3066 -63 
L 3066 128 
C 2688 128 2630 166 2630 473 
L 2630 4396 
L 1869 4326 
L 1869 4160 
C 2246 4160 2304 4122 2304 3820 
L 2304 2345 
C 2278 2377 2016 2790 1498 2790 
C 845 2790 211 2208 211 1364 
C 211 525 806 -64 1434 -64 
C 1978 -64 2259 337 2291 380 
L 2291 -63 
L 3066 -63 
z
M 2291 755 
C 2291 563 2176 390 2029 262 
C 1811 70 1594 38 1472 38 
C 1286 38 621 134 621 1356 
C 621 2612 1363 2688 1530 2688 
C 1824 2688 2061 2522 2208 2291 
C 2291 2157 2291 2138 2291 2023 
L 2291 755 
z
" transform="scale(0.015625)"/>
       <path id="LMRoman17-Regular-65" d="M 2464 1576 
C 2464 2238 2118 2816 1389 2816 
C 710 2816 173 2169 173 1383 
C 173 551 781 -64 1459 -64 
C 2176 -64 2458 606 2458 739 
C 2458 784 2406 784 2406 784 
C 2362 784 2355 771 2330 695 
C 2189 265 1837 51 1504 51 
C 1229 51 954 203 781 480 
C 582 803 582 1176 582 1472 
L 2438 1472 
C 2464 1498 2464 1511 2464 1576 
z
M 2118 1568 
L 589 1568 
C 634 2505 1126 2714 1382 2714 
C 1818 2714 2112 2297 2118 1568 
z
" transform="scale(0.015625)"/>
       <path id="LMRoman17-Regular-78" d="M 3091 -6 
L 3091 160 
C 2771 160 2675 172 2522 370 
L 1664 1478 
L 2253 2216 
C 2464 2458 2707 2560 2989 2560 
L 2989 2726 
L 2541 2726 
C 2368 2726 2170 2726 2022 2732 
L 2022 2566 
C 2112 2553 2163 2489 2163 2400 
C 2163 2285 2099 2215 2067 2171 
L 1594 1573 
L 1030 2306 
C 973 2376 973 2388 973 2420 
C 973 2497 1037 2560 1146 2560 
L 1146 2732 
C 992 2726 717 2726 557 2726 
C 384 2726 179 2726 38 2732 
L 38 2560 
C 384 2560 461 2534 614 2343 
L 1350 1395 
C 1363 1382 1395 1344 1395 1325 
C 1395 1299 838 619 768 530 
C 480 185 179 160 6 160 
L 6 0 
L 454 0 
C 582 0 864 0 979 -6 
L 979 160 
C 941 166 838 179 838 325 
C 838 440 890 510 947 586 
L 1478 1236 
L 2035 512 
C 2086 442 2163 346 2163 301 
C 2163 211 2086 160 1984 160 
L 1984 -6 
C 2138 0 2413 0 2573 0 
C 2746 0 2950 0 3091 -6 
z
" transform="scale(0.015625)"/>
      </defs>
      <use xlink:href="#LMRoman17-Regular-48" transform="scale(0.996264)"/>
      <use xlink:href="#LMRoman17-Regular-41" transform="translate(69.069678 0) scale(0.996264)"/>
      <use xlink:href="#LMRoman17-Regular-42" transform="translate(138.139357 0) scale(0.996264)"/>
      <use xlink:href="#LMRoman17-Regular-69" transform="translate(233.405111 0) scale(0.996264)"/>
      <use xlink:href="#LMRoman17-Regular-6e" transform="translate(258.277127 0) scale(0.996264)"/>
      <use xlink:href="#LMRoman17-Regular-64" transform="translate(309.174215 0) scale(0.996264)"/>
      <use xlink:href="#LMRoman17-Regular-65" transform="translate(360.071302 0) scale(0.996264)"/>
      <use xlink:href="#LMRoman17-Regular-78" transform="translate(400.556112 0) scale(0.996264)"/>
     </g>
    </g>
   </g>
   <g id="matplotlib.axis_2">
    <g id="ytick_1">
     <g id="line2d_7">
      <defs>
       <path id="m8d7a3aecb9" d="M 0 0 
L -3.5 0 
" style="stroke: #000000; stroke-width: 0.8"/>
      </defs>
      <g>
       <use xlink:href="#m8d7a3aecb9" x="40.583332" y="253.425189" style="stroke: #000000; stroke-width: 0.8"/>
      </g>
     </g>
     <g id="text_8">
      <!-- $\mathdefault{0}$ -->
      <g transform="translate(27.730297 257.601521) scale(0.12 -0.12)">
       <use xlink:href="#LMRoman17-Regular-30" transform="scale(0.996264)"/>
      </g>
     </g>
    </g>
    <g id="ytick_2">
     <g id="line2d_8">
      <g>
       <use xlink:href="#m8d7a3aecb9" x="40.583332" y="209.903601" style="stroke: #000000; stroke-width: 0.8"/>
      </g>
     </g>
     <g id="text_9">
      <!-- $\mathdefault{10}$ -->
      <g transform="translate(21.877261 214.079933) scale(0.12 -0.12)">
       <use xlink:href="#LMRoman17-Regular-31" transform="scale(0.996264)"/>
       <use xlink:href="#LMRoman17-Regular-30" transform="translate(45.690948 0) scale(0.996264)"/>
      </g>
     </g>
    </g>
    <g id="ytick_3">
     <g id="line2d_9">
      <g>
       <use xlink:href="#m8d7a3aecb9" x="40.583332" y="166.382013" style="stroke: #000000; stroke-width: 0.8"/>
      </g>
     </g>
     <g id="text_10">
      <!-- $\mathdefault{20}$ -->
      <g transform="translate(21.877261 170.558345) scale(0.12 -0.12)">
       <use xlink:href="#LMRoman17-Regular-32" transform="scale(0.996264)"/>
       <use xlink:href="#LMRoman17-Regular-30" transform="translate(45.690948 0) scale(0.996264)"/>
      </g>
     </g>
    </g>
    <g id="ytick_4">
     <g id="line2d_10">
      <g>
       <use xlink:href="#m8d7a3aecb9" x="40.583332" y="122.860425" style="stroke: #000000; stroke-width: 0.8"/>
      </g>
     </g>
     <g id="text_11">
      <!-- $\mathdefault{30}$ -->
      <g transform="translate(21.877261 127.036757) scale(0.12 -0.12)">
       <use xlink:href="#LMRoman17-Regular-33" transform="scale(0.996264)"/>
       <use xlink:href="#LMRoman17-Regular-30" transform="translate(45.690948 0) scale(0.996264)"/>
      </g>
     </g>
    </g>
    <g id="ytick_5">
     <g id="line2d_11">
      <g>
       <use xlink:href="#m8d7a3aecb9" x="40.583332" y="79.338836" style="stroke: #000000; stroke-width: 0.8"/>
      </g>
     </g>
     <g id="text_12">
      <!-- $\mathdefault{40}$ -->
      <g transform="translate(21.877261 83.515169) scale(0.12 -0.12)">
       <defs>
        <path id="LMRoman17-Regular-34" d="M 2803 1114 
L 2803 1280 
L 2150 1280 
L 2150 4154 
C 2150 4288 2144 4288 2029 4288 
L 128 1280 
L 128 1114 
L 1779 1114 
L 1779 487 
C 1779 255 1766 192 1318 192 
L 1197 192 
L 1197 32 
C 1402 32 1747 32 1965 32 
C 2182 32 2528 32 2733 32 
L 2733 192 
L 2611 192 
C 2163 192 2150 255 2150 487 
L 2150 1114 
L 2803 1114 
z
M 1798 1280 
L 256 1280 
L 1798 3734 
L 1798 1280 
z
" transform="scale(0.015625)"/>
       </defs>
       <use xlink:href="#LMRoman17-Regular-34" transform="scale(0.996264)"/>
       <use xlink:href="#LMRoman17-Regular-30" transform="translate(45.690948 0) scale(0.996264)"/>
      </g>
     </g>
    </g>
    <g id="ytick_6">
     <g id="line2d_12">
      <g>
       <use xlink:href="#m8d7a3aecb9" x="40.583332" y="35.817248" style="stroke: #000000; stroke-width: 0.8"/>
      </g>
     </g>
     <g id="text_13">
      <!-- $\mathdefault{50}$ -->
      <g transform="translate(21.877261 39.993581) scale(0.12 -0.12)">
       <use xlink:href="#LMRoman17-Regular-35" transform="scale(0.996264)"/>
       <use xlink:href="#LMRoman17-Regular-30" transform="translate(45.690948 0) scale(0.996264)"/>
      </g>
     </g>
    </g>
    <g id="text_14">
     <!-- Mean Difference -->
     <g transform="translate(15.552665 185.342334) rotate(-90) scale(0.12 -0.12)">
      <defs>
       <path id="LMRoman17-Regular-4d" d="M 5094 -13 
L 5094 153 
C 4653 153 4582 153 4582 438 
L 4582 3875 
C 4582 4160 4653 4160 5094 4160 
L 5094 4326 
L 4282 4326 
C 4147 4326 4141 4320 4102 4224 
L 2720 502 
L 1338 4230 
C 1299 4326 1293 4326 1158 4326 
L 339 4326 
L 339 4160 
C 781 4160 851 4160 851 3875 
L 851 610 
C 851 451 851 153 339 153 
L 339 -13 
C 486 0 755 0 915 0 
C 1075 0 1344 0 1491 -13 
L 1491 153 
C 979 153 979 451 979 610 
L 979 4135 
L 986 4135 
L 2490 89 
C 2515 25 2528 -13 2579 -13 
C 2630 -13 2643 25 2669 89 
L 4186 4166 
L 4192 4166 
L 4192 438 
C 4192 153 4122 153 3680 153 
L 3680 -13 
C 3853 0 4198 0 4384 0 
C 4570 0 4922 0 5094 -13 
z
" transform="scale(0.015625)"/>
       <path id="LMRoman17-Regular-61" d="M 2874 567 
L 2874 920 
L 2758 920 
L 2758 562 
C 2758 178 2586 128 2502 128 
C 2240 128 2240 458 2240 738 
L 2240 1653 
C 2240 2072 2240 2294 1971 2543 
C 1734 2752 1459 2816 1242 2816 
C 736 2816 371 2407 371 1971 
C 371 1728 563 1728 602 1728 
C 685 1728 832 1778 832 1954 
C 832 2112 710 2181 602 2181 
C 576 2181 544 2174 525 2168 
C 659 2592 1005 2714 1229 2714 
C 1549 2714 1901 2429 1901 1885 
L 1901 1600 
C 1523 1600 1069 1549 710 1357 
C 307 1133 192 813 192 570 
C 192 77 768 -64 1107 -64 
C 1459 -64 1786 139 1926 511 
C 1939 233 2118 -18 2400 -18 
C 2534 -18 2874 70 2874 567 
z
M 1901 870 
C 1901 317 1504 38 1152 38 
C 832 38 582 275 582 570 
C 582 761 666 1100 1037 1305 
C 1344 1478 1696 1504 1901 1504 
L 1901 870 
z
" transform="scale(0.015625)"/>
       <path id="LMRoman17-Regular-44" d="M 4224 2141 
C 4224 3346 3411 4352 2368 4352 
L 333 4352 
L 333 4186 
C 774 4186 845 4186 845 3900 
L 845 452 
C 845 166 774 166 333 166 
L 333 0 
L 2368 0 
C 3398 0 4224 943 4224 2141 
z
M 3750 2141 
C 3750 1242 3488 879 3366 707 
C 3213 510 2848 166 2240 166 
L 1523 166 
C 1267 166 1254 197 1254 414 
L 1254 3938 
C 1254 4155 1267 4186 1523 4186 
L 2240 4186 
C 2771 4186 3750 3874 3750 2141 
z
" transform="scale(0.015625)"/>
       <path id="LMRoman17-Regular-b" d="M 3578 4067 
C 3578 4308 3347 4454 3091 4454 
C 2842 4454 2637 4333 2477 4181 
C 2330 4390 2086 4454 1837 4454 
C 1338 4454 634 4168 634 3469 
L 634 2725 
L 122 2725 
L 122 2560 
L 634 2560 
L 634 427 
C 634 184 608 153 198 153 
L 198 -13 
C 352 0 634 0 794 0 
C 960 0 1242 0 1395 -13 
L 1395 153 
C 986 153 960 178 960 427 
L 960 2560 
L 2227 2560 
L 2227 427 
C 2227 184 2202 153 1792 153 
L 1792 -13 
C 1946 0 2240 0 2406 0 
C 2592 0 2918 0 3091 -13 
L 3091 153 
C 2630 153 2554 153 2554 439 
L 2554 2560 
L 3283 2560 
L 3283 2725 
L 2541 2725 
L 2541 3494 
C 2541 4022 2810 4352 3085 4352 
C 3168 4352 3264 4327 3328 4282 
C 3277 4269 3142 4225 3142 4067 
C 3142 3901 3270 3850 3360 3850 
C 3450 3850 3578 3901 3578 4067 
z
M 2323 4187 
C 2208 4187 2099 4136 2099 3977 
C 2099 3812 2259 3767 2259 3767 
C 2227 3652 2227 3526 2227 3481 
L 2227 2725 
L 947 2725 
L 947 3469 
C 947 4047 1395 4352 1824 4352 
C 1920 4352 2170 4332 2323 4187 
z
" transform="scale(0.015625)"/>
       <path id="LMRoman17-Regular-72" d="M 2131 2458 
C 2131 2663 1926 2790 1709 2790 
C 1222 2790 1011 2317 947 2093 
L 941 2093 
L 941 2790 
L 198 2720 
L 198 2554 
C 576 2554 634 2515 634 2208 
L 634 428 
C 634 184 608 153 198 153 
L 198 -13 
C 352 0 646 0 813 0 
C 998 0 1325 0 1498 -13 
L 1498 153 
C 1037 153 960 153 960 440 
L 960 1497 
C 960 2112 1222 2688 1702 2688 
C 1747 2688 1792 2682 1837 2662 
C 1837 2662 1696 2617 1696 2452 
C 1696 2298 1818 2234 1914 2234 
C 1990 2234 2131 2279 2131 2458 
z
" transform="scale(0.015625)"/>
       <path id="LMRoman17-Regular-63" d="M 2458 748 
C 2458 774 2451 793 2406 793 
C 2362 793 2355 787 2330 703 
C 2163 180 1798 51 1523 51 
C 1114 51 621 427 621 1369 
C 621 2338 1094 2688 1472 2688 
C 1722 2688 2093 2573 2234 2240 
C 2112 2240 1933 2240 1933 2017 
C 1933 1838 2080 1787 2163 1787 
C 2208 1787 2394 1807 2394 2024 
C 2394 2467 1958 2803 1466 2803 
C 787 2803 211 2178 211 1363 
C 211 516 813 -64 1466 -64 
C 2259 -64 2458 677 2458 748 
z
" transform="scale(0.015625)"/>
      </defs>
      <use xlink:href="#LMRoman17-Regular-4d" transform="scale(0.996264)"/>
      <use xlink:href="#LMRoman17-Regular-65" transform="translate(84.682471 0) scale(0.996264)"/>
      <use xlink:href="#LMRoman17-Regular-61" transform="translate(125.16728 0) scale(0.996264)"/>
      <use xlink:href="#LMRoman17-Regular-6e" transform="translate(170.858229 0) scale(0.996264)"/>
      <use xlink:href="#LMRoman17-Regular-44" transform="translate(251.831465 0) scale(0.996264)"/>
      <use xlink:href="#LMRoman17-Regular-69" transform="translate(322.22721 0) scale(0.996264)"/>
      <use xlink:href="#LMRoman17-Regular-b" transform="translate(347.099226 0) scale(0.996264)"/>
      <use xlink:href="#LMRoman17-Regular-65" transform="translate(399.443417 0) scale(0.996264)"/>
      <use xlink:href="#LMRoman17-Regular-72" transform="translate(439.928226 0) scale(0.996264)"/>
      <use xlink:href="#LMRoman17-Regular-65" transform="translate(475.209754 0) scale(0.996264)"/>
      <use xlink:href="#LMRoman17-Regular-6e" transform="translate(515.694563 0) scale(0.996264)"/>
      <use xlink:href="#LMRoman17-Regular-63" transform="translate(566.591651 0) scale(0.996264)"/>
      <use xlink:href="#LMRoman17-Regular-65" transform="translate(607.07646 0) scale(0.996264)"/>
     </g>
    </g>
   </g>
   <g id="line2d_13">
    <path d="M 53.243765 252.95031 
L 54.472934 175.119638 
L 55.702102 183.542291 
L 56.93127 153.497899 
L 58.160438 157.322417 
L 59.389607 183.560951 
L 60.618775 167.12324 
L 61.847943 159.792711 
L 63.077111 162.667902 
L 64.30628 154.263255 
L 65.535448 179.275908 
L 66.764616 179.445841 
L 67.993784 174.276777 
L 69.222953 171.076904 
L 70.452121 169.427457 
L 71.681289 190.451997 
L 72.910457 184.761062 
L 74.139626 181.559478 
L 75.368794 192.154206 
L 76.597962 179.046289 
L 77.82713 195.672041 
L 79.056299 176.47729 
L 80.285467 182.806231 
L 81.514635 171.834038 
L 82.743803 177.832647 
L 83.972972 176.889187 
L 85.20214 179.197975 
L 86.431308 181.033873 
L 87.660476 181.80309 
L 88.889645 182.078281 
L 90.118813 180.109833 
L 91.347981 185.781866 
L 92.577149 175.637702 
L 93.806318 174.966018 
L 95.035486 181.242344 
L 96.264654 176.917684 
L 97.493822 165.401128 
L 98.722991 167.01124 
L 99.952159 169.915337 
L 101.181327 174.672402 
L 102.410495 167.435328 
L 103.639664 164.012894 
L 104.868832 166.318544 
L 106.098 173.267436 
L 107.327168 168.131011 
L 108.556337 170.245103 
L 109.785505 171.149605 
L 111.014673 169.681611 
L 112.243841 174.3629 
L 113.47301 168.392023 
L 114.702178 169.869319 
L 115.931346 165.513896 
L 117.160514 159.973643 
L 118.389683 151.733283 
L 119.618851 164.588421 
L 120.848019 153.247819 
L 122.077187 159.918121 
L 123.306356 161.258765 
L 124.535524 154.413576 
L 125.764692 146.416966 
L 126.99386 159.749155 
L 128.223029 161.936477 
L 129.452197 149.926466 
L 130.681365 146.494577 
L 131.910533 151.123133 
L 133.139702 156.35524 
L 134.36887 150.925936 
L 135.598038 149.968536 
L 136.827206 153.339979 
L 138.056375 150.991123 
L 139.285543 154.289097 
L 140.514711 148.081676 
L 141.743879 158.865657 
L 142.973048 143.116097 
L 144.202216 144.518412 
L 145.431384 162.417321 
L 146.660552 134.97756 
L 147.889721 162.914405 
L 149.118889 141.788429 
L 150.348057 146.336973 
L 151.577225 141.347356 
L 152.806394 131.54439 
L 154.035562 143.106497 
L 155.26473 158.924805 
L 156.493898 142.309134 
L 157.723067 142.593778 
L 158.952235 139.494878 
L 160.181403 140.285646 
L 161.410571 140.302877 
L 162.63974 152.053632 
L 163.868908 134.666281 
L 165.098076 161.02393 
L 166.327244 140.350156 
L 167.556413 147.791645 
L 168.785581 153.023901 
L 170.014749 133.375119 
L 171.243917 155.501616 
L 172.473086 160.140444 
L 173.702254 157.666361 
L 174.931422 142.846285 
L 176.16059 147.230616 
L 177.389759 155.627631 
L 178.618927 166.270804 
L 179.848095 164.272743 
L 181.077263 162.732593 
L 182.306432 160.120927 
L 183.5356 161.403329 
L 184.764768 164.759201 
L 185.993936 172.584343 
L 187.223105 173.276632 
L 188.452273 171.570948 
L 189.681441 172.656058 
L 190.910609 170.898545 
L 192.139778 171.912495 
L 193.368946 172.106163 
L 194.598114 174.431589 
L 195.827282 169.054198 
L 197.056451 184.888809 
L 198.285619 185.264127 
L 199.514787 187.506587 
L 200.743955 185.503055 
L 201.973124 185.132861 
L 203.202292 177.005456 
L 204.43146 200.399389 
L 205.660628 184.370238 
L 206.889797 188.835403 
L 208.118965 191.629016 
L 209.348133 195.20852 
L 210.577301 195.544109 
L 211.80647 189.211618 
L 213.035638 198.866275 
L 214.264806 199.363096 
L 215.493974 201.090479 
L 216.723143 189.630609 
L 217.952311 206.027812 
L 219.181479 200.623449 
L 220.410647 210.083848 
L 221.639816 206.491113 
L 222.868984 206.166575 
L 224.098152 208.011659 
L 225.32732 217.088173 
L 226.556488 215.016699 
L 227.785657 219.152795 
L 229.014825 214.405272 
L 230.243993 215.967238 
L 231.473161 222.348657 
L 232.70233 220.681437 
L 233.931498 217.660271 
L 235.160666 217.907745 
L 236.389834 228.415529 
L 237.619003 226.666586 
L 238.848171 226.914458 
L 240.077339 217.659371 
L 241.306507 228.066092 
L 242.535676 228.520466 
L 243.764844 231.861677 
L 244.994012 227.408239 
L 246.22318 230.789552 
L 247.452349 236.022341 
L 248.681517 227.977149 
L 249.910685 228.906516 
L 251.139853 233.163472 
L 252.369022 224.624138 
L 253.59819 229.003914 
L 254.827358 225.904185 
L 256.056526 225.835611 
L 257.285695 232.407191 
L 258.514863 229.682608 
L 259.744031 212.359042 
L 260.973199 223.688675 
L 262.202368 213.914166 
L 263.431536 229.221438 
L 264.660704 236.92973 
L 265.889872 227.536244 
L 267.119041 226.976757 
L 268.348209 228.231706 
L 269.577377 236.016554 
L 270.806545 237.304752 
L 272.035714 227.217032 
L 273.264882 226.936222 
L 274.49405 234.238171 
L 275.723218 233.730915 
L 276.952387 235.313031 
L 278.181555 238.509511 
L 279.410723 243.77636 
L 280.639891 243.599573 
L 281.86906 246.650642 
L 283.098228 244.262188 
L 284.327396 245.204938 
L 285.556564 243.48802 
L 286.785733 243.363088 
L 288.014901 245.785085 
L 289.244069 247.266632 
L 290.473237 245.535791 
L 291.702406 247.032956 
L 292.931574 246.890035 
L 294.160742 248.4206 
L 295.38991 249.737943 
L 296.619079 249.240279 
L 297.848247 248.156205 
L 299.077415 247.84207 
L 300.306583 239.862211 
L 301.535752 230.504773 
L 302.76492 235.282127 
L 303.994088 231.975263 
L 305.223256 242.136777 
L 306.452425 133.468812 
L 306.452425 133.468812 
" clip-path="url(#pc7e913c301)" style="fill: none; stroke: #1f77b4; stroke-width: 1.5; stroke-linecap: square"/>
   </g>
   <g id="patch_3">
    <path d="M 40.583332 264.387189 
L 40.583332 23.223189 
" style="fill: none; stroke: #000000; stroke-width: 0.8; stroke-linejoin: miter; stroke-linecap: square"/>
   </g>
   <g id="patch_4">
    <path d="M 364.223332 264.387189 
L 364.223332 23.223189 
" style="fill: none; stroke: #000000; stroke-width: 0.8; stroke-linejoin: miter; stroke-linecap: square"/>
   </g>
   <g id="patch_5">
    <path d="M 40.583332 264.387189 
L 364.223332 264.387189 
" style="fill: none; stroke: #000000; stroke-width: 0.8; stroke-linejoin: miter; stroke-linecap: square"/>
   </g>
   <g id="patch_6">
    <path d="M 40.583332 23.223189 
L 364.223332 23.223189 
" style="fill: none; stroke: #000000; stroke-width: 0.8; stroke-linejoin: miter; stroke-linecap: square"/>
   </g>
   <g id="text_15">
    <!-- Mean HAB Difference From Neighbors -->
    <g transform="translate(83.269077 17.223189) scale(0.144 -0.144)">
     <defs>
      <path id="LMRoman17-Regular-46" d="M 3635 2916 
L 3482 4325 
L 326 4325 
L 326 4160 
C 768 4160 838 4160 838 3874 
L 838 446 
C 838 160 768 160 326 160 
L 326 0 
C 512 0 870 0 1069 0 
C 1331 0 1638 0 1901 0 
L 1901 160 
L 1760 160 
C 1274 160 1261 223 1261 452 
L 1261 2075 
L 1837 2075 
C 2432 2075 2490 1865 2490 1332 
L 2605 1332 
L 2605 2987 
L 2490 2987 
C 2490 2450 2432 2240 1837 2240 
L 1261 2240 
L 1261 3911 
C 1261 4128 1274 4160 1530 4160 
L 2355 4160 
C 3322 4160 3430 3765 3520 2916 
L 3635 2916 
z
" transform="scale(0.015625)"/>
      <path id="LMRoman17-Regular-6f" d="M 2758 1356 
C 2758 2176 2163 2816 1466 2816 
C 768 2816 173 2176 173 1356 
C 173 551 768 -64 1466 -64 
C 2163 -64 2758 551 2758 1356 
z
M 2349 1408 
C 2349 1158 2336 775 2163 467 
C 1984 173 1709 51 1466 51 
C 1165 51 909 230 762 480 
C 602 767 582 1126 582 1408 
C 582 1677 595 2010 762 2298 
C 890 2509 1139 2714 1466 2714 
C 1754 2714 1997 2554 2150 2330 
C 2349 2029 2349 1607 2349 1408 
z
" transform="scale(0.015625)"/>
      <path id="LMRoman17-Regular-6d" d="M 4762 -13 
L 4762 153 
C 4352 153 4326 178 4326 428 
L 4326 1933 
C 4326 2252 4269 2790 3507 2790 
C 3072 2790 2771 2496 2656 2151 
L 2650 2151 
C 2573 2676 2195 2790 1837 2790 
C 1331 2790 1069 2400 973 2144 
L 966 2144 
L 966 2790 
L 211 2720 
L 211 2554 
C 589 2554 646 2515 646 2208 
L 646 428 
C 646 184 621 153 211 153 
L 211 -13 
C 365 0 646 0 813 0 
C 979 0 1267 0 1421 -13 
L 1421 153 
C 1011 153 986 178 986 428 
L 986 1658 
C 986 2247 1344 2688 1792 2688 
C 2266 2688 2317 2266 2317 1958 
L 2317 428 
C 2317 184 2291 153 1882 153 
L 1882 -13 
C 2035 0 2317 0 2483 0 
C 2650 0 2938 0 3091 -13 
L 3091 153 
C 2682 153 2656 178 2656 428 
L 2656 1658 
C 2656 2247 3014 2688 3462 2688 
C 3936 2688 3987 2266 3987 1958 
L 3987 428 
C 3987 184 3962 153 3552 153 
L 3552 -13 
C 3706 0 3987 0 4154 0 
C 4320 0 4608 0 4762 -13 
z
" transform="scale(0.015625)"/>
      <path id="LMRoman17-Regular-4e" d="M 4102 4160 
L 4102 4326 
C 3955 4313 3686 4313 3526 4313 
C 3366 4313 3098 4313 2950 4326 
L 2950 4160 
C 3462 4160 3462 3862 3462 3703 
L 3462 763 
L 1312 4243 
C 1267 4313 1261 4313 1139 4313 
L 326 4313 
L 326 4160 
L 448 4160 
C 704 4160 819 4129 838 4122 
L 838 610 
C 838 451 838 153 326 153 
L 326 -13 
C 474 0 742 0 902 0 
C 1062 0 1331 0 1478 -13 
L 1478 153 
C 966 153 966 451 966 610 
L 966 4033 
C 1011 3995 1011 3982 1056 3919 
L 3430 76 
C 3475 0 3494 0 3526 0 
C 3590 0 3590 19 3590 139 
L 3590 3705 
C 3590 3863 3590 4160 4102 4160 
z
" transform="scale(0.015625)"/>
      <path id="LMRoman17-Regular-67" d="M 2886 2614 
C 2886 2731 2790 2854 2586 2854 
C 2330 2854 2106 2738 1926 2580 
C 1734 2753 1504 2816 1299 2816 
C 794 2816 358 2419 358 1888 
C 358 1522 570 1292 634 1228 
C 442 1004 442 743 442 711 
C 442 545 506 302 723 168 
C 390 85 128 -169 128 -486 
C 128 -943 736 -1280 1466 -1280 
C 2170 -1280 2803 -956 2803 -479 
C 2803 384 1856 384 1363 384 
C 1216 384 954 384 922 391 
C 723 423 589 602 589 825 
C 589 882 589 1024 710 1164 
C 832 1068 1043 960 1299 960 
C 1805 960 2240 1357 2240 1888 
C 2240 2054 2189 2310 1997 2509 
C 2176 2692 2438 2752 2586 2752 
C 2611 2752 2650 2752 2682 2734 
C 2656 2728 2598 2703 2598 2605 
C 2598 2527 2656 2471 2739 2471 
C 2835 2471 2886 2533 2886 2614 
z
M 1862 1889 
C 1862 1760 1862 1068 1299 1068 
C 736 1068 736 1760 736 1889 
C 736 2016 736 2708 1299 2708 
C 1862 2708 1862 2016 1862 1889 
z
M 2547 -486 
C 2547 -835 2106 -1171 1466 -1171 
C 826 -1171 384 -835 384 -486 
C 384 -289 493 -105 634 -4 
C 794 104 858 104 1293 104 
C 1818 104 2547 104 2547 -486 
z
" transform="scale(0.015625)"/>
      <path id="LMRoman17-Regular-68" d="M 3091 -13 
L 3091 153 
C 2682 153 2656 178 2656 428 
L 2656 1933 
C 2656 2259 2592 2790 1837 2790 
C 1312 2790 1056 2368 979 2157 
L 973 2157 
L 973 4396 
L 211 4326 
L 211 4160 
C 589 4160 646 4122 646 3817 
L 646 426 
C 646 184 621 153 211 153 
L 211 -13 
C 365 0 646 0 813 0 
C 979 0 1267 0 1421 -13 
L 1421 153 
C 1011 153 986 178 986 428 
L 986 1658 
C 986 2247 1344 2688 1792 2688 
C 2266 2688 2317 2266 2317 1958 
L 2317 428 
C 2317 184 2291 153 1882 153 
L 1882 -13 
C 2035 0 2317 0 2483 0 
C 2650 0 2938 0 3091 -13 
z
" transform="scale(0.015625)"/>
      <path id="LMRoman17-Regular-62" d="M 3053 1370 
C 3053 2188 2477 2790 1830 2790 
C 1434 2790 1152 2579 960 2330 
L 960 4396 
L 198 4326 
L 198 4160 
C 576 4160 634 4122 634 3817 
L 634 -13 
L 749 -13 
L 934 441 
C 1120 141 1395 -64 1766 -64 
C 2406 -64 3053 500 3053 1370 
z
M 2643 1376 
C 2643 108 1888 38 1734 38 
C 1536 38 1248 114 1043 486 
C 973 608 973 621 973 735 
L 973 2004 
C 973 2118 973 2138 1062 2272 
C 1312 2657 1670 2688 1792 2688 
C 1984 2688 2643 2585 2643 1376 
z
" transform="scale(0.015625)"/>
      <path id="LMRoman17-Regular-73" d="M 2131 784 
C 2131 1112 1958 1285 1875 1362 
C 1683 1561 1459 1606 1190 1657 
C 838 1735 390 1825 390 2217 
C 390 2383 480 2737 1126 2737 
C 1811 2737 1850 2094 1862 1888 
C 1869 1856 1901 1849 1920 1849 
C 1978 1849 1978 1869 1978 1978 
L 1978 2697 
C 1978 2813 1971 2819 1933 2819 
C 1907 2819 1901 2813 1824 2717 
C 1805 2691 1747 2626 1728 2601 
C 1523 2819 1235 2819 1126 2819 
C 416 2819 160 2447 160 2076 
C 160 1498 813 1365 998 1325 
C 1402 1243 1542 1217 1677 1101 
C 1760 1025 1901 884 1901 654 
C 1901 384 1747 38 1158 38 
C 602 38 403 460 288 1021 
C 269 1110 269 1117 218 1117 
C 166 1117 160 1110 160 983 
L 160 63 
C 160 -51 166 -58 205 -58 
C 237 -58 243 -51 275 0 
L 448 276 
C 576 103 800 -64 1158 -64 
C 1792 -64 2131 283 2131 784 
z
" transform="scale(0.015625)"/>
     </defs>
     <use xlink:href="#LMRoman17-Regular-4d" transform="scale(0.996264)"/>
     <use xlink:href="#LMRoman17-Regular-65" transform="translate(84.682471 0) scale(0.996264)"/>
     <use xlink:href="#LMRoman17-Regular-61" transform="translate(125.16728 0) scale(0.996264)"/>
     <use xlink:href="#LMRoman17-Regular-6e" transform="translate(170.858229 0) scale(0.996264)"/>
     <use xlink:href="#LMRoman17-Regular-48" transform="translate(251.831465 0) scale(0.996264)"/>
     <use xlink:href="#LMRoman17-Regular-41" transform="translate(320.901143 0) scale(0.996264)"/>
     <use xlink:href="#LMRoman17-Regular-42" transform="translate(389.970822 0) scale(0.996264)"/>
     <use xlink:href="#LMRoman17-Regular-44" transform="translate(485.236576 0) scale(0.996264)"/>
     <use xlink:href="#LMRoman17-Regular-69" transform="translate(555.632321 0) scale(0.996264)"/>
     <use xlink:href="#LMRoman17-Regular-b" transform="translate(580.504337 0) scale(0.996264)"/>
     <use xlink:href="#LMRoman17-Regular-65" transform="translate(632.848528 0) scale(0.996264)"/>
     <use xlink:href="#LMRoman17-Regular-72" transform="translate(673.333337 0) scale(0.996264)"/>
     <use xlink:href="#LMRoman17-Regular-65" transform="translate(708.614865 0) scale(0.996264)"/>
     <use xlink:href="#LMRoman17-Regular-6e" transform="translate(749.099674 0) scale(0.996264)"/>
     <use xlink:href="#LMRoman17-Regular-63" transform="translate(799.996762 0) scale(0.996264)"/>
     <use xlink:href="#LMRoman17-Regular-65" transform="translate(840.481571 0) scale(0.996264)"/>
     <use xlink:href="#LMRoman17-Regular-46" transform="translate(911.042529 0) scale(0.996264)"/>
     <use xlink:href="#LMRoman17-Regular-72" transform="translate(963.218923 0) scale(0.996264)"/>
     <use xlink:href="#LMRoman17-Regular-6f" transform="translate(998.500451 0) scale(0.996264)"/>
     <use xlink:href="#LMRoman17-Regular-6d" transform="translate(1044.191399 0) scale(0.996264)"/>
     <use xlink:href="#LMRoman17-Regular-4e" transform="translate(1151.189707 0) scale(0.996264)"/>
     <use xlink:href="#LMRoman17-Regular-65" transform="translate(1220.259385 0) scale(0.996264)"/>
     <use xlink:href="#LMRoman17-Regular-69" transform="translate(1260.744194 0) scale(0.996264)"/>
     <use xlink:href="#LMRoman17-Regular-67" transform="translate(1285.61621 0) scale(0.996264)"/>
     <use xlink:href="#LMRoman17-Regular-68" transform="translate(1331.307159 0) scale(0.996264)"/>
     <use xlink:href="#LMRoman17-Regular-62" transform="translate(1379.601792 0) scale(0.996264)"/>
     <use xlink:href="#LMRoman17-Regular-6f" transform="translate(1433.101319 0) scale(0.996264)"/>
     <use xlink:href="#LMRoman17-Regular-72" transform="translate(1478.792267 0) scale(0.996264)"/>
     <use xlink:href="#LMRoman17-Regular-73" transform="translate(1514.073795 0) scale(0.996264)"/>
    </g>
   </g>
  </g>
 </g>
 <defs>
  <clipPath id="pc7e913c301">
   <rect x="40.583332" y="23.223189" width="323.64" height="241.164"/>
  </clipPath>
 </defs>
</svg>
