<?xml version="1.0" encoding="utf-8" standalone="no"?>
<!DOCTYPE svg PUBLIC "-//W3C//DTD SVG 1.1//EN"
  "http://www.w3.org/Graphics/SVG/1.1/DTD/svg11.dtd">
<svg xmlns:xlink="http://www.w3.org/1999/xlink" width="417.6pt" height="313.2pt" viewBox="0 0 417.6 313.2" xmlns="http://www.w3.org/2000/svg" version="1.1">
 <metadata>
  <rdf:RDF xmlns:dc="http://purl.org/dc/elements/1.1/" xmlns:cc="http://creativecommons.org/ns#" xmlns:rdf="http://www.w3.org/1999/02/22-rdf-syntax-ns#">
   <cc:Work>
    <dc:type rdf:resource="http://purl.org/dc/dcmitype/StillImage"/>
    <dc:date>2024-03-13T16:19:20.848792</dc:date>
    <dc:format>image/svg+xml</dc:format>
    <dc:creator>
     <cc:Agent>
      <dc:title>Matplotlib v3.7.0, https://matplotlib.org/</dc:title>
     </cc:Agent>
    </dc:creator>
   </cc:Work>
  </rdf:RDF>
 </metadata>
 <defs>
  <style type="text/css">*{stroke-linejoin: round; stroke-linecap: butt}</style>
 </defs>
 <g id="figure_1">
  <g id="patch_1">
   <path d="M 0 313.2 
L 417.6 313.2 
L 417.6 0 
L 0 0 
z
" style="fill: #ffffff"/>
  </g>
  <g id="axes_1">
   <g id="patch_2">
    <path d="M 52.2 278.748 
L 375.84 278.748 
L 375.84 37.584 
L 52.2 37.584 
z
" style="fill: #ffffff"/>
   </g>
   <g id="PolyCollection_1"/>
   <g id="PolyCollection_2"/>
   <g id="PolyCollection_3"/>
   <g id="PolyCollection_4"/>
   <g id="PolyCollection_5"/>
   <g id="PolyCollection_6"/>
   <g id="PolyCollection_7"/>
   <g id="PolyCollection_8"/>
   <g id="PolyCollection_9"/>
   <g id="matplotlib.axis_1">
    <g id="xtick_1">
     <g id="line2d_1">
      <defs>
       <path id="m34a3393bc0" d="M 0 0 
L 0 3.5 
" style="stroke: #000000; stroke-width: 0.8"/>
      </defs>
      <g>
       <use xlink:href="#m34a3393bc0" x="66.910909" y="278.748" style="stroke: #000000; stroke-width: 0.8"/>
      </g>
     </g>
     <g id="text_1">
      <!-- $\mathdefault{0}$ -->
      <g transform="translate(63.984391 294.100665) scale(0.12 -0.12)">
       <defs>
        <path id="LMRoman17-Regular-30" d="M 2688 2025 
C 2688 2416 2682 3080 2413 3591 
C 2176 4039 1798 4198 1466 4198 
C 1158 4198 768 4058 525 3597 
C 269 3118 243 2524 243 2025 
C 243 1661 250 1106 448 619 
C 723 -39 1216 -128 1466 -128 
C 1760 -128 2208 -7 2470 600 
C 2662 1042 2688 1559 2688 2025 
z
M 2278 2096 
C 2278 1680 2278 1169 2202 792 
C 2067 95 1690 -26 1466 -26 
C 1056 -26 813 325 723 812 
C 653 1188 653 1738 653 2096 
C 653 2588 653 2997 736 3387 
C 858 3929 1216 4096 1466 4096 
C 1728 4096 2067 3923 2189 3400 
C 2272 3036 2278 2607 2278 2096 
z
" transform="scale(0.015625)"/>
       </defs>
       <use xlink:href="#LMRoman17-Regular-30" transform="scale(0.996264)"/>
      </g>
     </g>
    </g>
    <g id="xtick_2">
     <g id="line2d_2">
      <g>
       <use xlink:href="#m34a3393bc0" x="125.056795" y="278.748" style="stroke: #000000; stroke-width: 0.8"/>
      </g>
     </g>
     <g id="text_2">
      <!-- $\mathdefault{50}$ -->
      <g transform="translate(119.203759 294.100665) scale(0.12 -0.12)">
       <defs>
        <path id="LMRoman17-Regular-35" d="M 2669 1264 
C 2669 2030 2170 2624 1549 2624 
C 1222 2624 947 2503 730 2274 
L 730 3692 
C 794 3666 1056 3584 1325 3584 
C 1920 3584 2246 3911 2432 4100 
C 2432 4157 2432 4192 2394 4192 
C 2394 4192 2374 4192 2323 4163 
C 2099 4058 1837 3973 1517 3973 
C 1325 3973 1037 3999 723 4139 
C 653 4171 634 4171 634 4171 
C 602 4171 595 4164 595 4037 
L 595 2203 
C 595 2089 595 2057 659 2057 
C 691 2057 704 2070 736 2114 
C 941 2401 1222 2522 1542 2522 
C 1766 2522 2246 2382 2246 1289 
C 2246 1085 2246 715 2054 421 
C 1894 159 1645 25 1370 25 
C 947 25 518 320 403 814 
C 429 807 480 795 506 795 
C 589 795 749 840 749 1038 
C 749 1210 627 1280 506 1280 
C 358 1280 262 1190 262 1011 
C 262 454 704 -128 1382 -128 
C 2042 -128 2669 440 2669 1264 
z
" transform="scale(0.015625)"/>
       </defs>
       <use xlink:href="#LMRoman17-Regular-35" transform="scale(0.996264)"/>
       <use xlink:href="#LMRoman17-Regular-30" transform="translate(45.690948 0) scale(0.996264)"/>
      </g>
     </g>
    </g>
    <g id="xtick_3">
     <g id="line2d_3">
      <g>
       <use xlink:href="#m34a3393bc0" x="183.202681" y="278.748" style="stroke: #000000; stroke-width: 0.8"/>
      </g>
     </g>
     <g id="text_3">
      <!-- $\mathdefault{100}$ -->
      <g transform="translate(174.423127 294.100665) scale(0.12 -0.12)">
       <defs>
        <path id="LMRoman17-Regular-31" d="M 2458 0 
L 2458 160 
L 2266 160 
C 1715 160 1702 230 1702 458 
L 1702 4058 
C 1702 4192 1696 4192 1606 4192 
C 1357 3916 979 3827 621 3827 
C 602 3827 570 3827 563 3808 
C 557 3795 557 3782 557 3648 
C 755 3648 1088 3686 1344 3839 
L 1344 461 
C 1344 236 1331 160 781 160 
L 589 160 
L 589 0 
L 1523 0 
L 2458 0 
z
" transform="scale(0.015625)"/>
       </defs>
       <use xlink:href="#LMRoman17-Regular-31" transform="scale(0.996264)"/>
       <use xlink:href="#LMRoman17-Regular-30" transform="translate(45.690948 0) scale(0.996264)"/>
       <use xlink:href="#LMRoman17-Regular-30" transform="translate(91.381897 0) scale(0.996264)"/>
      </g>
     </g>
    </g>
    <g id="xtick_4">
     <g id="line2d_4">
      <g>
       <use xlink:href="#m34a3393bc0" x="241.348566" y="278.748" style="stroke: #000000; stroke-width: 0.8"/>
      </g>
     </g>
     <g id="text_4">
      <!-- $\mathdefault{150}$ -->
      <g transform="translate(232.569013 294.100665) scale(0.12 -0.12)">
       <use xlink:href="#LMRoman17-Regular-31" transform="scale(0.996264)"/>
       <use xlink:href="#LMRoman17-Regular-35" transform="translate(45.690948 0) scale(0.996264)"/>
       <use xlink:href="#LMRoman17-Regular-30" transform="translate(91.381897 0) scale(0.996264)"/>
      </g>
     </g>
    </g>
    <g id="xtick_5">
     <g id="line2d_5">
      <g>
       <use xlink:href="#m34a3393bc0" x="299.494452" y="278.748" style="stroke: #000000; stroke-width: 0.8"/>
      </g>
     </g>
     <g id="text_5">
      <!-- $\mathdefault{200}$ -->
      <g transform="translate(290.714898 294.100665) scale(0.12 -0.12)">
       <defs>
        <path id="LMRoman17-Regular-32" d="M 2669 989 
L 2554 989 
C 2490 536 2438 459 2413 420 
C 2381 369 1920 369 1830 369 
L 602 369 
L 1824 1597 
C 2214 1967 2669 2402 2669 3035 
C 2669 3790 2067 4224 1395 4224 
C 691 4224 262 3604 262 3030 
C 262 2780 448 2748 525 2748 
C 589 2748 781 2787 781 3010 
C 781 3207 614 3264 525 3264 
C 486 3264 448 3258 422 3245 
C 544 3790 915 4058 1306 4058 
C 1862 4058 2227 3617 2227 3035 
C 2227 2479 1901 2000 1536 1584 
L 262 146 
L 262 0 
L 2515 0 
L 2669 989 
z
" transform="scale(0.015625)"/>
       </defs>
       <use xlink:href="#LMRoman17-Regular-32" transform="scale(0.996264)"/>
       <use xlink:href="#LMRoman17-Regular-30" transform="translate(45.690948 0) scale(0.996264)"/>
       <use xlink:href="#LMRoman17-Regular-30" transform="translate(91.381897 0) scale(0.996264)"/>
      </g>
     </g>
    </g>
    <g id="xtick_6">
     <g id="line2d_6">
      <g>
       <use xlink:href="#m34a3393bc0" x="357.640338" y="278.748" style="stroke: #000000; stroke-width: 0.8"/>
      </g>
     </g>
     <g id="text_6">
      <!-- $\mathdefault{250}$ -->
      <g transform="translate(348.860784 294.100665) scale(0.12 -0.12)">
       <use xlink:href="#LMRoman17-Regular-32" transform="scale(0.996264)"/>
       <use xlink:href="#LMRoman17-Regular-35" transform="translate(45.690948 0) scale(0.996264)"/>
       <use xlink:href="#LMRoman17-Regular-30" transform="translate(91.381897 0) scale(0.996264)"/>
      </g>
     </g>
    </g>
    <g id="text_7">
     <!-- HAB Value -->
     <g transform="translate(184.843713 308.777926) scale(0.12 -0.12)">
      <defs>
       <path id="LMRoman17-Regular-48" d="M 4102 0 
L 4102 160 
C 3661 160 3590 160 3590 447 
L 3590 3905 
C 3590 4192 3661 4192 4102 4192 
L 4102 4352 
C 3917 4352 3578 4352 3379 4352 
C 3181 4352 2842 4352 2656 4352 
L 2656 4192 
C 3098 4192 3168 4192 3168 3904 
L 3168 2341 
L 1261 2341 
L 1261 3904 
C 1261 4192 1331 4192 1773 4192 
L 1773 4352 
C 1587 4352 1248 4352 1050 4352 
C 851 4352 512 4352 326 4352 
L 326 4192 
C 768 4192 838 4192 838 3905 
L 838 447 
C 838 160 768 160 326 160 
L 326 0 
C 512 0 851 0 1050 0 
C 1248 0 1587 0 1773 0 
L 1773 160 
C 1331 160 1261 160 1261 446 
L 1261 2176 
L 3168 2176 
L 3168 446 
C 3168 160 3098 160 2656 160 
L 2656 0 
C 2842 0 3181 0 3379 0 
C 3578 0 3917 0 4102 0 
z
" transform="scale(0.015625)"/>
       <path id="LMRoman17-Regular-41" d="M 4282 -13 
L 4282 153 
C 3942 153 3827 153 3744 387 
L 2323 4378 
C 2291 4461 2278 4480 2214 4480 
C 2150 4480 2138 4461 2106 4378 
L 749 566 
C 627 223 371 153 147 153 
L 147 -13 
C 262 0 518 0 640 0 
C 800 0 1056 0 1210 -13 
L 1210 153 
C 909 153 864 361 864 439 
C 864 497 877 530 890 569 
L 1229 1536 
L 2906 1536 
L 3290 442 
C 3322 365 3322 352 3322 327 
C 3322 153 3046 153 2925 153 
L 2925 0 
C 3110 0 3443 0 3642 0 
C 3808 0 4128 0 4282 -13 
z
M 2848 1702 
L 1286 1702 
L 2067 3874 
L 2848 1702 
z
" transform="scale(0.015625)"/>
       <path id="LMRoman17-Regular-42" d="M 3885 1164 
C 3885 1741 3360 2233 2675 2233 
C 3290 2356 3718 2771 3718 3264 
C 3718 3802 3194 4352 2368 4352 
L 333 4352 
L 333 4186 
C 774 4186 845 4186 845 3900 
L 845 452 
C 845 166 774 166 333 166 
L 333 0 
L 2534 0 
C 3354 0 3885 583 3885 1164 
z
M 3251 3277 
C 3251 2791 2861 2304 2170 2304 
L 1248 2304 
L 1248 3937 
C 1248 4155 1261 4186 1517 4186 
L 2336 4186 
C 2970 4186 3251 3674 3251 3277 
z
M 3411 1162 
C 3411 699 3046 166 2349 166 
L 1517 166 
C 1261 166 1248 197 1248 413 
L 1248 2202 
L 2432 2202 
C 3091 2202 3411 1625 3411 1162 
z
" transform="scale(0.015625)"/>
       <path id="LMRoman17-Regular-56" d="M 4365 4160 
L 4365 4338 
C 4218 4325 4051 4325 3891 4325 
C 3738 4325 3475 4325 3328 4338 
L 3328 4160 
C 3648 4160 3661 3936 3661 3898 
C 3661 3827 3642 3783 3622 3732 
L 2362 447 
L 1043 3892 
C 1024 3937 1011 3969 1011 4000 
C 1011 4160 1267 4160 1402 4160 
L 1402 4325 
C 1197 4325 896 4325 685 4325 
C 518 4325 218 4325 64 4338 
L 64 4160 
C 435 4160 506 4135 582 3931 
L 2106 -26 
C 2138 -115 2144 -128 2214 -128 
C 2285 -128 2291 -115 2323 -26 
L 3776 3745 
C 3834 3886 3936 4160 4365 4160 
z
" transform="scale(0.015625)"/>
       <path id="LMRoman17-Regular-61" d="M 2874 567 
L 2874 920 
L 2758 920 
L 2758 562 
C 2758 178 2586 128 2502 128 
C 2240 128 2240 458 2240 738 
L 2240 1653 
C 2240 2072 2240 2294 1971 2543 
C 1734 2752 1459 2816 1242 2816 
C 736 2816 371 2407 371 1971 
C 371 1728 563 1728 602 1728 
C 685 1728 832 1778 832 1954 
C 832 2112 710 2181 602 2181 
C 576 2181 544 2174 525 2168 
C 659 2592 1005 2714 1229 2714 
C 1549 2714 1901 2429 1901 1885 
L 1901 1600 
C 1523 1600 1069 1549 710 1357 
C 307 1133 192 813 192 570 
C 192 77 768 -64 1107 -64 
C 1459 -64 1786 139 1926 511 
C 1939 233 2118 -18 2400 -18 
C 2534 -18 2874 70 2874 567 
z
M 1901 870 
C 1901 317 1504 38 1152 38 
C 832 38 582 275 582 570 
C 582 761 666 1100 1037 1305 
C 1344 1478 1696 1504 1901 1504 
L 1901 870 
z
" transform="scale(0.015625)"/>
       <path id="LMRoman17-Regular-6c" d="M 1414 -13 
L 1414 153 
C 1005 153 979 178 979 426 
L 979 4396 
L 218 4326 
L 218 4160 
C 595 4160 653 4122 653 3817 
L 653 426 
C 653 184 627 153 218 153 
L 218 -13 
C 371 0 653 0 813 0 
C 979 0 1261 0 1414 -13 
z
" transform="scale(0.015625)"/>
       <path id="LMRoman17-Regular-75" d="M 3091 -63 
L 3091 128 
C 2714 128 2656 166 2656 473 
L 2656 2763 
L 1882 2693 
L 1882 2528 
C 2259 2528 2317 2489 2317 2186 
L 2317 1032 
C 2317 500 2029 38 1555 38 
C 1030 38 986 348 986 678 
L 986 2763 
L 211 2693 
L 211 2528 
C 467 2528 640 2528 646 2274 
L 646 1058 
C 646 633 646 361 813 183 
C 896 101 1056 -64 1517 -64 
C 2061 -64 2272 377 2323 506 
L 2330 506 
L 2330 -63 
L 3091 -63 
z
" transform="scale(0.015625)"/>
       <path id="LMRoman17-Regular-65" d="M 2464 1576 
C 2464 2238 2118 2816 1389 2816 
C 710 2816 173 2169 173 1383 
C 173 551 781 -64 1459 -64 
C 2176 -64 2458 606 2458 739 
C 2458 784 2406 784 2406 784 
C 2362 784 2355 771 2330 695 
C 2189 265 1837 51 1504 51 
C 1229 51 954 203 781 480 
C 582 803 582 1176 582 1472 
L 2438 1472 
C 2464 1498 2464 1511 2464 1576 
z
M 2118 1568 
L 589 1568 
C 634 2505 1126 2714 1382 2714 
C 1818 2714 2112 2297 2118 1568 
z
" transform="scale(0.015625)"/>
      </defs>
      <use xlink:href="#LMRoman17-Regular-48" transform="scale(0.996264)"/>
      <use xlink:href="#LMRoman17-Regular-41" transform="translate(69.069678 0) scale(0.996264)"/>
      <use xlink:href="#LMRoman17-Regular-42" transform="translate(138.139357 0) scale(0.996264)"/>
      <use xlink:href="#LMRoman17-Regular-56" transform="translate(233.405111 0) scale(0.996264)"/>
      <use xlink:href="#LMRoman17-Regular-61" transform="translate(294.667716 0) scale(0.996264)"/>
      <use xlink:href="#LMRoman17-Regular-6c" transform="translate(340.358665 0) scale(0.996264)"/>
      <use xlink:href="#LMRoman17-Regular-75" transform="translate(365.230681 0) scale(0.996264)"/>
      <use xlink:href="#LMRoman17-Regular-65" transform="translate(416.127769 0) scale(0.996264)"/>
     </g>
    </g>
   </g>
   <g id="matplotlib.axis_2">
    <g id="ytick_1">
     <g id="line2d_7">
      <defs>
       <path id="mac5432b240" d="M 0 0 
L -3.5 0 
" style="stroke: #000000; stroke-width: 0.8"/>
      </defs>
      <g>
       <use xlink:href="#mac5432b240" x="52.2" y="227.081402" style="stroke: #000000; stroke-width: 0.8"/>
      </g>
     </g>
     <g id="text_8">
      <!-- $\mathdefault{10^{-7}}$ -->
      <g transform="translate(21.718688 231.257734) scale(0.12 -0.12)">
       <defs>
        <path id="LMMathSymbols10-Regular-0" d="M 4442 1600 
C 4442 1728 4320 1728 4230 1728 
L 742 1728 
C 653 1728 531 1728 531 1600 
C 531 1472 653 1472 742 1472 
L 4230 1472 
C 4320 1472 4442 1472 4442 1600 
z
" transform="scale(0.015625)"/>
        <path id="LMRoman17-Regular-37" d="M 2886 3941 
L 2886 4081 
L 1382 4081 
C 634 4081 621 4165 595 4288 
L 480 4288 
L 294 3094 
L 410 3094 
C 429 3215 474 3540 550 3661 
C 589 3712 1062 3712 1171 3712 
L 2579 3712 
L 1869 2661 
C 1395 1954 1069 999 1069 165 
C 1069 89 1069 -128 1299 -128 
C 1530 -128 1530 89 1530 171 
L 1530 465 
C 1530 1508 1709 2196 2003 2636 
L 2886 3941 
z
" transform="scale(0.015625)"/>
       </defs>
       <use xlink:href="#LMRoman17-Regular-31" transform="scale(0.996264)"/>
       <use xlink:href="#LMRoman17-Regular-30" transform="translate(45.690948 0) scale(0.996264)"/>
       <use xlink:href="#LMMathSymbols10-Regular-0" transform="translate(91.381897 36.153639) scale(0.757155)"/>
       <use xlink:href="#LMRoman17-Regular-37" transform="translate(150.271945 36.153639) scale(0.757155)"/>
      </g>
     </g>
    </g>
    <g id="ytick_2">
     <g id="line2d_8">
      <g>
       <use xlink:href="#mac5432b240" x="52.2" y="175.21513" style="stroke: #000000; stroke-width: 0.8"/>
      </g>
     </g>
     <g id="text_9">
      <!-- $\mathdefault{10^{-5}}$ -->
      <g transform="translate(21.718688 179.391462) scale(0.12 -0.12)">
       <use xlink:href="#LMRoman17-Regular-31" transform="scale(0.996264)"/>
       <use xlink:href="#LMRoman17-Regular-30" transform="translate(45.690948 0) scale(0.996264)"/>
       <use xlink:href="#LMMathSymbols10-Regular-0" transform="translate(91.381897 36.153639) scale(0.757155)"/>
       <use xlink:href="#LMRoman17-Regular-35" transform="translate(150.271945 36.153639) scale(0.757155)"/>
      </g>
     </g>
    </g>
    <g id="ytick_3">
     <g id="line2d_9">
      <g>
       <use xlink:href="#mac5432b240" x="52.2" y="123.348858" style="stroke: #000000; stroke-width: 0.8"/>
      </g>
     </g>
     <g id="text_10">
      <!-- $\mathdefault{10^{-3}}$ -->
      <g transform="translate(21.718688 127.52519) scale(0.12 -0.12)">
       <defs>
        <path id="LMRoman17-Regular-33" d="M 2720 1085 
C 2720 1707 2208 2157 1600 2227 
C 2086 2328 2554 2756 2554 3329 
C 2554 3820 2048 4179 1472 4179 
C 890 4179 378 3829 378 3329 
C 378 3110 544 3072 627 3072 
C 762 3072 877 3155 877 3321 
C 877 3486 762 3569 627 3569 
C 602 3569 570 3569 544 3557 
C 730 3959 1235 4032 1459 4032 
C 1683 4032 2106 3925 2106 3320 
C 2106 3143 2080 2828 1862 2550 
C 1670 2304 1453 2304 1242 2284 
C 1210 2284 1062 2269 1037 2269 
C 992 2263 966 2257 966 2208 
C 966 2163 973 2157 1101 2157 
L 1414 2157 
C 1984 2157 2234 1662 2234 1090 
C 2234 320 1824 25 1453 25 
C 1114 25 563 194 390 693 
C 422 680 454 680 486 680 
C 640 680 755 782 755 948 
C 755 1133 614 1216 486 1216 
C 378 1216 211 1165 211 926 
C 211 335 787 -128 1466 -128 
C 2176 -128 2720 430 2720 1085 
z
" transform="scale(0.015625)"/>
       </defs>
       <use xlink:href="#LMRoman17-Regular-31" transform="scale(0.996264)"/>
       <use xlink:href="#LMRoman17-Regular-30" transform="translate(45.690948 0) scale(0.996264)"/>
       <use xlink:href="#LMMathSymbols10-Regular-0" transform="translate(91.381897 36.153639) scale(0.757155)"/>
       <use xlink:href="#LMRoman17-Regular-33" transform="translate(150.271945 36.153639) scale(0.757155)"/>
      </g>
     </g>
    </g>
    <g id="ytick_4">
     <g id="line2d_10">
      <g>
       <use xlink:href="#mac5432b240" x="52.2" y="71.482586" style="stroke: #000000; stroke-width: 0.8"/>
      </g>
     </g>
     <g id="text_11">
      <!-- $\mathdefault{10^{-1}}$ -->
      <g transform="translate(21.718688 75.658918) scale(0.12 -0.12)">
       <use xlink:href="#LMRoman17-Regular-31" transform="scale(0.996264)"/>
       <use xlink:href="#LMRoman17-Regular-30" transform="translate(45.690948 0) scale(0.996264)"/>
       <use xlink:href="#LMMathSymbols10-Regular-0" transform="translate(91.381897 36.153639) scale(0.757155)"/>
       <use xlink:href="#LMRoman17-Regular-31" transform="translate(150.271945 36.153639) scale(0.757155)"/>
      </g>
     </g>
    </g>
    <g id="text_12">
     <!-- Fraction of Occurances -->
     <g transform="translate(15.394093 216.971382) rotate(-90) scale(0.12 -0.12)">
      <defs>
       <path id="LMRoman17-Regular-46" d="M 3635 2916 
L 3482 4325 
L 326 4325 
L 326 4160 
C 768 4160 838 4160 838 3874 
L 838 446 
C 838 160 768 160 326 160 
L 326 0 
C 512 0 870 0 1069 0 
C 1331 0 1638 0 1901 0 
L 1901 160 
L 1760 160 
C 1274 160 1261 223 1261 452 
L 1261 2075 
L 1837 2075 
C 2432 2075 2490 1865 2490 1332 
L 2605 1332 
L 2605 2987 
L 2490 2987 
C 2490 2450 2432 2240 1837 2240 
L 1261 2240 
L 1261 3911 
C 1261 4128 1274 4160 1530 4160 
L 2355 4160 
C 3322 4160 3430 3765 3520 2916 
L 3635 2916 
z
" transform="scale(0.015625)"/>
       <path id="LMRoman17-Regular-72" d="M 2131 2458 
C 2131 2663 1926 2790 1709 2790 
C 1222 2790 1011 2317 947 2093 
L 941 2093 
L 941 2790 
L 198 2720 
L 198 2554 
C 576 2554 634 2515 634 2208 
L 634 428 
C 634 184 608 153 198 153 
L 198 -13 
C 352 0 646 0 813 0 
C 998 0 1325 0 1498 -13 
L 1498 153 
C 1037 153 960 153 960 440 
L 960 1497 
C 960 2112 1222 2688 1702 2688 
C 1747 2688 1792 2682 1837 2662 
C 1837 2662 1696 2617 1696 2452 
C 1696 2298 1818 2234 1914 2234 
C 1990 2234 2131 2279 2131 2458 
z
" transform="scale(0.015625)"/>
       <path id="LMRoman17-Regular-63" d="M 2458 748 
C 2458 774 2451 793 2406 793 
C 2362 793 2355 787 2330 703 
C 2163 180 1798 51 1523 51 
C 1114 51 621 427 621 1369 
C 621 2338 1094 2688 1472 2688 
C 1722 2688 2093 2573 2234 2240 
C 2112 2240 1933 2240 1933 2017 
C 1933 1838 2080 1787 2163 1787 
C 2208 1787 2394 1807 2394 2024 
C 2394 2467 1958 2803 1466 2803 
C 787 2803 211 2178 211 1363 
C 211 516 813 -64 1466 -64 
C 2259 -64 2458 677 2458 748 
z
" transform="scale(0.015625)"/>
       <path id="LMRoman17-Regular-74" d="M 1965 777 
L 1965 1140 
L 1850 1140 
L 1850 783 
C 1850 344 1677 51 1408 51 
C 1222 51 966 178 966 758 
L 966 2560 
L 1862 2560 
L 1862 2725 
L 966 2725 
L 966 3904 
L 851 3904 
C 838 3245 614 2668 70 2668 
L 70 2560 
L 627 2560 
L 627 771 
C 627 650 627 -64 1370 -64 
C 1747 -64 1965 306 1965 777 
z
" transform="scale(0.015625)"/>
       <path id="LMRoman17-Regular-69" d="M 1370 -13 
L 1370 153 
C 992 153 979 191 979 420 
L 979 2778 
L 243 2708 
L 243 2542 
C 602 2542 653 2503 653 2198 
L 653 427 
C 653 184 627 153 218 153 
L 218 -13 
C 371 0 646 0 806 0 
C 960 0 1222 0 1370 -13 
z
M 1056 3835 
C 1056 3988 934 4096 800 4096 
C 646 4096 538 3975 538 3835 
C 538 3682 659 3574 794 3574 
C 947 3574 1056 3695 1056 3835 
z
" transform="scale(0.015625)"/>
       <path id="LMRoman17-Regular-6f" d="M 2758 1356 
C 2758 2176 2163 2816 1466 2816 
C 768 2816 173 2176 173 1356 
C 173 551 768 -64 1466 -64 
C 2163 -64 2758 551 2758 1356 
z
M 2349 1408 
C 2349 1158 2336 775 2163 467 
C 1984 173 1709 51 1466 51 
C 1165 51 909 230 762 480 
C 602 767 582 1126 582 1408 
C 582 1677 595 2010 762 2298 
C 890 2509 1139 2714 1466 2714 
C 1754 2714 1997 2554 2150 2330 
C 2349 2029 2349 1607 2349 1408 
z
" transform="scale(0.015625)"/>
       <path id="LMRoman17-Regular-6e" d="M 3091 -13 
L 3091 153 
C 2682 153 2656 178 2656 428 
L 2656 1933 
C 2656 2259 2592 2790 1837 2790 
C 1331 2790 1069 2400 973 2144 
L 966 2144 
L 966 2790 
L 211 2720 
L 211 2554 
C 589 2554 646 2515 646 2208 
L 646 428 
C 646 184 621 153 211 153 
L 211 -13 
C 365 0 646 0 813 0 
C 979 0 1267 0 1421 -13 
L 1421 153 
C 1011 153 986 178 986 428 
L 986 1658 
C 986 2247 1344 2688 1792 2688 
C 2266 2688 2317 2266 2317 1958 
L 2317 428 
C 2317 184 2291 153 1882 153 
L 1882 -13 
C 2035 0 2317 0 2483 0 
C 2650 0 2938 0 3091 -13 
z
" transform="scale(0.015625)"/>
       <path id="LMRoman17-Regular-66" d="M 2003 4067 
C 2003 4308 1773 4454 1517 4454 
C 1152 4454 653 4156 653 3481 
L 653 2725 
L 141 2725 
L 141 2560 
L 653 2560 
L 653 427 
C 653 184 627 153 218 153 
L 218 -13 
C 371 0 666 0 832 0 
C 1018 0 1344 0 1517 -13 
L 1517 153 
C 1056 153 979 153 979 439 
L 979 2560 
L 1709 2560 
L 1709 2725 
L 966 2725 
L 966 3494 
C 966 4022 1235 4352 1510 4352 
C 1594 4352 1690 4327 1754 4282 
C 1702 4269 1568 4225 1568 4067 
C 1568 3901 1696 3850 1786 3850 
C 1875 3850 2003 3901 2003 4067 
z
" transform="scale(0.015625)"/>
       <path id="LMRoman17-Regular-4f" d="M 4307 2135 
C 4307 3437 3366 4416 2304 4416 
C 1216 4416 294 3424 294 2135 
C 294 845 1229 -128 2298 -128 
C 3392 -128 4307 864 4307 2135 
z
M 3821 2217 
C 3821 686 3008 -13 2304 -13 
C 1574 -13 781 711 781 2217 
C 781 3716 1651 4301 2298 4301 
C 2976 4301 3821 3698 3821 2217 
z
" transform="scale(0.015625)"/>
       <path id="LMRoman17-Regular-73" d="M 2131 784 
C 2131 1112 1958 1285 1875 1362 
C 1683 1561 1459 1606 1190 1657 
C 838 1735 390 1825 390 2217 
C 390 2383 480 2737 1126 2737 
C 1811 2737 1850 2094 1862 1888 
C 1869 1856 1901 1849 1920 1849 
C 1978 1849 1978 1869 1978 1978 
L 1978 2697 
C 1978 2813 1971 2819 1933 2819 
C 1907 2819 1901 2813 1824 2717 
C 1805 2691 1747 2626 1728 2601 
C 1523 2819 1235 2819 1126 2819 
C 416 2819 160 2447 160 2076 
C 160 1498 813 1365 998 1325 
C 1402 1243 1542 1217 1677 1101 
C 1760 1025 1901 884 1901 654 
C 1901 384 1747 38 1158 38 
C 602 38 403 460 288 1021 
C 269 1110 269 1117 218 1117 
C 166 1117 160 1110 160 983 
L 160 63 
C 160 -51 166 -58 205 -58 
C 237 -58 243 -51 275 0 
L 448 276 
C 576 103 800 -64 1158 -64 
C 1792 -64 2131 283 2131 784 
z
" transform="scale(0.015625)"/>
      </defs>
      <use xlink:href="#LMRoman17-Regular-46" transform="scale(0.996264)"/>
      <use xlink:href="#LMRoman17-Regular-72" transform="translate(52.176394 0) scale(0.996264)"/>
      <use xlink:href="#LMRoman17-Regular-61" transform="translate(87.457921 0) scale(0.996264)"/>
      <use xlink:href="#LMRoman17-Regular-63" transform="translate(133.14887 0) scale(0.996264)"/>
      <use xlink:href="#LMRoman17-Regular-74" transform="translate(173.633679 0) scale(0.996264)"/>
      <use xlink:href="#LMRoman17-Regular-69" transform="translate(208.915207 0) scale(0.996264)"/>
      <use xlink:href="#LMRoman17-Regular-6f" transform="translate(233.787223 0) scale(0.996264)"/>
      <use xlink:href="#LMRoman17-Regular-6e" transform="translate(279.478171 0) scale(0.996264)"/>
      <use xlink:href="#LMRoman17-Regular-6f" transform="translate(360.451408 0) scale(0.996264)"/>
      <use xlink:href="#LMRoman17-Regular-66" transform="translate(406.142356 0) scale(0.996264)"/>
      <use xlink:href="#LMRoman17-Regular-4f" transform="translate(463.69068 0) scale(0.996264)"/>
      <use xlink:href="#LMRoman17-Regular-63" transform="translate(535.406699 0) scale(0.996264)"/>
      <use xlink:href="#LMRoman17-Regular-63" transform="translate(575.891509 0) scale(0.996264)"/>
      <use xlink:href="#LMRoman17-Regular-75" transform="translate(616.376318 0) scale(0.996264)"/>
      <use xlink:href="#LMRoman17-Regular-72" transform="translate(667.273405 0) scale(0.996264)"/>
      <use xlink:href="#LMRoman17-Regular-61" transform="translate(702.554933 0) scale(0.996264)"/>
      <use xlink:href="#LMRoman17-Regular-6e" transform="translate(748.245882 0) scale(0.996264)"/>
      <use xlink:href="#LMRoman17-Regular-63" transform="translate(799.142969 0) scale(0.996264)"/>
      <use xlink:href="#LMRoman17-Regular-65" transform="translate(839.627778 0) scale(0.996264)"/>
      <use xlink:href="#LMRoman17-Regular-73" transform="translate(880.112587 0) scale(0.996264)"/>
     </g>
    </g>
   </g>
   <g id="line2d_11">
    <path d="M 66.910909 48.766484 
L 68.073827 109.733417 
L 69.236745 112.5468 
L 70.399662 114.156313 
L 71.56258 115.295211 
L 72.725498 116.176601 
L 73.888415 116.864025 
L 75.051333 117.487741 
L 76.214251 117.967584 
L 77.377169 118.379311 
L 78.540086 118.765913 
L 79.703004 119.09484 
L 80.865922 119.349256 
L 82.028839 119.619172 
L 83.191757 119.83684 
L 84.354675 120.086142 
L 85.517593 120.243687 
L 86.68051 120.396048 
L 87.843428 120.540863 
L 89.006346 120.675789 
L 90.169263 120.732904 
L 91.332181 120.877205 
L 92.495099 120.964535 
L 93.658017 121.034834 
L 94.820934 121.118853 
L 95.983852 121.176118 
L 97.14677 121.23289 
L 98.309687 121.278548 
L 99.472605 121.303325 
L 100.635523 121.346004 
L 101.798441 121.376142 
L 102.961358 121.385456 
L 104.124276 121.382128 
L 105.287194 121.435205 
L 106.450111 121.370603 
L 107.613029 121.351737 
L 108.775947 121.29753 
L 109.938865 121.302568 
L 111.101782 121.250413 
L 112.2647 121.243421 
L 113.427618 121.219704 
L 114.590535 121.144828 
L 115.753453 121.069591 
L 116.916371 121.016364 
L 118.079289 120.981338 
L 119.242206 120.994896 
L 120.405124 120.908858 
L 121.568042 120.873477 
L 122.730959 120.785859 
L 123.893877 120.699812 
L 125.056795 120.661039 
L 126.219713 120.605135 
L 127.38263 120.579136 
L 128.545548 120.481357 
L 129.708466 120.387612 
L 130.871383 120.263032 
L 132.034301 120.281587 
L 133.197219 120.201453 
L 134.360137 120.067113 
L 135.523054 120.03302 
L 136.685972 119.924135 
L 137.84889 119.832961 
L 139.011807 119.766688 
L 140.174725 119.666916 
L 141.337643 119.577217 
L 142.500561 119.46805 
L 143.663478 119.445226 
L 144.826396 119.32409 
L 145.989314 119.193941 
L 147.152231 119.146547 
L 148.315149 119.022796 
L 149.478067 118.997864 
L 150.640985 118.883069 
L 151.803902 118.817942 
L 152.96682 118.724613 
L 154.129738 118.691902 
L 155.292655 118.61164 
L 156.455573 118.564478 
L 157.618491 118.521298 
L 158.781409 118.396132 
L 159.944326 118.3684 
L 161.107244 118.311449 
L 162.270162 118.285923 
L 163.433079 118.138609 
L 164.595997 118.069404 
L 165.758915 118.062484 
L 166.921833 117.991583 
L 168.08475 117.937925 
L 169.247668 117.933155 
L 170.410586 117.922642 
L 171.573503 117.869711 
L 172.736421 117.817498 
L 173.899339 117.740212 
L 175.062257 117.726224 
L 176.225174 117.737222 
L 177.388092 117.69773 
L 178.55101 117.667181 
L 179.713927 117.617514 
L 180.876845 117.617268 
L 182.039763 117.654462 
" clip-path="url(#p4e57f93072)" style="fill: none; stroke: #959595; stroke-width: 1.5; stroke-linecap: square"/>
   </g>
   <g id="line2d_12">
    <path d="M 66.910909 48.80751 
L 68.073827 109.249632 
L 69.236745 112.060838 
L 70.399662 113.683984 
L 71.56258 114.822683 
L 72.725498 115.718878 
L 73.888415 116.408445 
L 75.051333 117.027494 
L 76.214251 117.515091 
L 77.377169 117.915113 
L 78.540086 118.310842 
L 79.703004 118.641316 
L 80.865922 118.914404 
L 82.028839 119.161084 
L 83.191757 119.361853 
L 84.354675 119.61841 
L 85.517593 119.793651 
L 86.68051 119.94626 
L 87.843428 120.066783 
L 89.006346 120.211359 
L 90.169263 120.265751 
L 91.332181 120.401807 
L 92.495099 120.477731 
L 93.658017 120.541229 
L 94.820934 120.644179 
L 95.983852 120.679137 
L 97.14677 120.73909 
L 98.309687 120.807142 
L 99.472605 120.817011 
L 100.635523 120.845594 
L 101.798441 120.862861 
L 102.961358 120.871381 
L 104.124276 120.880257 
L 105.287194 120.929954 
L 106.450111 120.865032 
L 107.613029 120.843529 
L 108.775947 120.768566 
L 109.938865 120.789883 
L 111.101782 120.725313 
L 112.2647 120.740727 
L 113.427618 120.688702 
L 114.590535 120.619597 
L 115.753453 120.531462 
L 116.916371 120.493318 
L 118.079289 120.44379 
L 119.242206 120.459494 
L 120.405124 120.356098 
L 121.568042 120.3164 
L 122.730959 120.235926 
L 123.893877 120.155917 
L 125.056795 120.098723 
L 126.219713 120.045479 
L 127.38263 120.006164 
L 128.545548 119.919904 
L 129.708466 119.823466 
L 130.871383 119.70814 
L 132.034301 119.726286 
L 133.197219 119.646319 
L 134.360137 119.508386 
L 135.523054 119.468328 
L 136.685972 119.375064 
L 137.84889 119.269437 
L 139.011807 119.21314 
L 140.174725 119.123608 
L 141.337643 119.022097 
L 142.500561 118.918514 
L 143.663478 118.882546 
L 144.826396 118.744562 
L 145.989314 118.621381 
L 147.152231 118.562791 
L 148.315149 118.458022 
L 149.478067 118.431717 
L 150.640985 118.307727 
L 151.803902 118.235301 
L 152.96682 118.154446 
L 154.129738 118.108282 
L 155.292655 118.035791 
L 156.455573 117.979548 
L 157.618491 117.939562 
L 158.781409 117.828831 
L 159.944326 117.79494 
L 161.107244 117.720227 
L 162.270162 117.725581 
L 163.433079 117.589983 
L 164.595997 117.535723 
L 165.758915 117.504612 
L 166.921833 117.469618 
L 168.08475 117.407594 
L 169.247668 117.422952 
L 170.410586 117.409403 
L 171.573503 117.368236 
L 172.736421 117.335039 
L 173.899339 117.242891 
L 175.062257 117.251067 
L 176.225174 117.27415 
L 177.388092 117.230064 
L 178.55101 117.237229 
L 179.713927 117.14628 
L 180.876845 117.195297 
L 182.039763 117.209231 
" clip-path="url(#p4e57f93072)" style="fill: none; stroke-dasharray: 6,2.25; stroke-dashoffset: 0; stroke: #959595; stroke-width: 1.5"/>
   </g>
   <g id="line2d_13">
    <path d="M 66.910909 48.546 
L 68.073827 112.80414 
L 69.236745 115.633763 
L 70.399662 117.141994 
L 71.56258 118.282368 
L 72.725498 119.054915 
L 73.888415 119.726679 
L 75.051333 120.384526 
L 76.214251 120.807732 
L 77.377169 121.305079 
L 78.540086 121.624858 
L 79.703004 121.942503 
L 80.865922 122.061742 
L 82.028839 122.500153 
L 83.191757 122.842193 
L 84.354675 123.037903 
L 85.517593 123.065958 
L 86.68051 123.216513 
L 87.843428 123.539492 
L 89.006346 123.603264 
L 90.169263 123.680405 
L 91.332181 123.885599 
L 92.495099 124.057787 
L 93.658017 124.17903 
L 94.820934 124.121884 
L 95.983852 124.3457 
L 97.14677 124.378552 
L 98.309687 124.257406 
L 99.472605 124.392913 
L 100.635523 124.541436 
L 101.798441 124.669216 
L 102.961358 124.684585 
L 104.124276 124.588594 
L 105.287194 124.66725 
L 106.450111 124.605071 
L 107.613029 124.606215 
L 108.775947 124.71088 
L 109.938865 124.591099 
L 111.101782 124.633991 
L 112.2647 124.456113 
L 113.427618 124.648794 
L 114.590535 124.529411 
L 115.753453 124.553914 
L 116.916371 124.384157 
L 118.079289 124.461138 
L 119.242206 124.458043 
L 120.405124 124.507522 
L 121.568042 124.506132 
L 122.730959 124.362331 
L 123.893877 124.229044 
L 125.056795 124.335107 
L 126.219713 124.258157 
L 127.38263 124.337953 
L 128.545548 124.148596 
L 129.708466 124.076179 
L 130.871383 123.878473 
L 132.034301 123.900246 
L 133.197219 123.818803 
L 134.360137 123.712801 
L 135.523054 123.725928 
L 136.685972 123.493846 
L 137.84889 123.516596 
L 139.011807 123.371554 
L 140.174725 123.191562 
L 141.337643 123.194458 
L 142.500561 123.041402 
L 143.663478 123.12218 
L 144.826396 123.135414 
L 145.989314 122.949475 
L 147.152231 122.991876 
L 148.315149 122.716349 
L 149.478067 122.702321 
L 150.640985 122.660839 
L 151.803902 122.654291 
L 152.96682 122.461054 
L 154.129738 122.536134 
L 155.292655 122.393471 
L 156.455573 122.419264 
L 157.618491 122.35036 
L 158.781409 122.109758 
L 159.944326 122.131118 
L 161.107244 122.217116 
L 162.270162 121.944367 
L 163.433079 121.704837 
L 164.595997 121.519216 
L 165.758915 121.701416 
L 166.921833 121.351074 
L 168.08475 121.361828 
L 169.247668 121.20279 
L 170.410586 121.215396 
L 171.573503 121.073188 
L 172.736421 120.878333 
L 173.899339 120.912352 
L 175.062257 120.732836 
L 176.225174 120.65472 
L 177.388092 120.649007 
L 178.55101 120.344504 
L 179.713927 120.59511 
L 180.876845 120.23757 
L 182.039763 120.441856 
" clip-path="url(#p4e57f93072)" style="fill: none; stroke-dasharray: 1.5,1.5; stroke-dashoffset: 0; stroke: #959595; stroke-width: 1.5"/>
   </g>
   <g id="line2d_14">
    <path d="M 183.202681 117.665943 
L 184.365598 117.630201 
L 185.528516 117.624413 
L 186.691434 117.677994 
L 187.854351 117.589106 
L 189.017269 117.655414 
L 190.180187 117.581517 
L 191.343105 117.559252 
L 192.506022 117.632225 
L 193.66894 117.600816 
L 194.831858 117.656444 
L 195.994775 117.599727 
L 197.157693 117.677601 
L 198.320611 117.679478 
L 199.483529 117.724613 
L 200.646446 117.754993 
L 201.809364 117.777408 
L 202.972282 117.84413 
L 204.135199 117.944388 
L 205.298117 117.992838 
L 206.461035 118.016128 
L 207.623953 118.154893 
L 208.78687 118.24331 
L 209.949788 118.277977 
L 211.112706 118.297075 
L 212.275623 118.369935 
L 213.438541 118.491301 
L 214.601459 118.569238 
L 215.764377 118.687825 
L 216.927294 118.754717 
L 218.090212 118.79481 
L 219.25313 118.983036 
L 220.416047 119.059689 
L 221.578965 119.172246 
L 222.741883 119.236963 
L 223.904801 119.460916 
L 225.067718 119.548771 
L 226.230636 119.705453 
L 227.393554 119.799714 
L 228.556471 119.873558 
L 229.719389 120.058063 
L 230.882307 120.156983 
L 232.045225 120.355601 
L 233.208142 120.540359 
L 234.37106 120.661358 
L 235.533978 120.826167 
L 236.696895 121.003192 
L 237.859813 121.125486 
L 239.022731 121.404952 
L 240.185649 121.645252 
L 241.348566 121.848232 
L 242.511484 121.968339 
L 243.674402 122.256227 
L 244.837319 122.480757 
L 246.000237 122.679342 
L 247.163155 122.993695 
L 248.326073 123.261725 
L 249.48899 123.542992 
L 250.651908 123.742949 
L 251.814826 124.148015 
L 252.977743 124.457415 
L 254.140661 124.778894 
L 255.303579 124.990698 
L 256.466497 125.425904 
L 257.629414 125.785675 
L 258.792332 126.20825 
L 259.95525 126.556526 
L 261.118167 126.757311 
L 262.281085 127.216792 
L 263.444003 127.507092 
L 264.606921 128.020247 
L 265.769838 128.427079 
L 266.932756 128.852267 
L 268.095674 129.467636 
L 269.258591 129.859459 
L 270.421509 130.468224 
L 271.584427 130.965094 
L 272.747345 131.523292 
L 273.910262 132.258892 
L 275.07318 132.982114 
L 276.236098 133.920585 
L 277.399015 134.443665 
L 278.561933 135.256994 
L 279.724851 136.265016 
L 280.887769 137.018807 
L 282.050686 137.968812 
L 283.213604 138.807191 
L 284.376522 139.661626 
L 285.539439 140.776379 
L 286.702357 141.446029 
L 287.865275 142.603938 
L 289.028193 143.74672 
L 290.19111 144.771311 
L 291.354028 145.912197 
L 292.516946 147.086303 
L 293.679863 147.814332 
L 294.842781 148.592982 
L 296.005699 149.398115 
L 297.168617 150.48024 
L 298.331534 151.096909 
" clip-path="url(#p4e57f93072)" style="fill: none; stroke: #ecad0a; stroke-width: 1.5; stroke-linecap: square"/>
   </g>
   <g id="line2d_15">
    <path d="M 183.202681 117.236569 
L 184.365598 117.224733 
L 185.528516 117.260708 
L 186.691434 117.286347 
L 187.854351 117.217252 
L 189.017269 117.31062 
L 190.180187 117.224789 
L 191.343105 117.230847 
L 192.506022 117.31149 
L 193.66894 117.276712 
L 194.831858 117.369113 
L 195.994775 117.332314 
L 197.157693 117.393785 
L 198.320611 117.427173 
L 199.483529 117.477495 
L 200.646446 117.546434 
L 201.809364 117.591257 
L 202.972282 117.655307 
L 204.135199 117.787794 
L 205.298117 117.853071 
L 206.461035 117.907785 
L 207.623953 118.055287 
L 208.78687 118.190359 
L 209.949788 118.263461 
L 211.112706 118.295884 
L 212.275623 118.400404 
L 213.438541 118.518103 
L 214.601459 118.660505 
L 215.764377 118.803787 
L 216.927294 118.917405 
L 218.090212 118.991136 
L 219.25313 119.18134 
L 220.416047 119.301258 
L 221.578965 119.44758 
L 222.741883 119.565679 
L 223.904801 119.82261 
L 225.067718 119.919076 
L 226.230636 120.090096 
L 227.393554 120.217511 
L 228.556471 120.322596 
L 229.719389 120.535753 
L 230.882307 120.678874 
L 232.045225 120.913601 
L 233.208142 121.114366 
L 234.37106 121.208889 
L 235.533978 121.4202 
L 236.696895 121.608186 
L 237.859813 121.777179 
L 239.022731 122.0852 
L 240.185649 122.360001 
L 241.348566 122.573986 
L 242.511484 122.729583 
L 243.674402 123.06169 
L 244.837319 123.285497 
L 246.000237 123.502437 
L 247.163155 123.836203 
L 248.326073 124.161245 
L 249.48899 124.524735 
L 250.651908 124.677212 
L 251.814826 125.146587 
L 252.977743 125.441187 
L 254.140661 125.784087 
L 255.303579 126.003957 
L 256.466497 126.427817 
L 257.629414 126.827852 
L 258.792332 127.226947 
L 259.95525 127.624382 
L 261.118167 127.829402 
L 262.281085 128.307304 
L 263.444003 128.613058 
L 264.606921 129.119678 
L 265.769838 129.539189 
L 266.932756 129.980726 
L 268.095674 130.615355 
L 269.258591 131.016863 
L 270.421509 131.706827 
L 271.584427 132.170429 
L 272.747345 132.672904 
L 273.910262 133.497429 
L 275.07318 134.311825 
L 276.236098 135.306064 
L 277.399015 135.886095 
L 278.561933 136.794055 
L 279.724851 137.895083 
L 280.887769 138.815378 
L 282.050686 140.037887 
L 283.213604 140.90534 
L 284.376522 142.087743 
L 285.539439 143.271648 
L 286.702357 144.161009 
L 287.865275 145.581123 
L 289.028193 147.110104 
L 290.19111 148.725586 
L 291.354028 149.959329 
L 292.516946 151.911573 
L 293.679863 153.178285 
L 294.842781 154.432995 
L 296.005699 155.677366 
L 297.168617 157.143256 
L 298.331534 157.84157 
" clip-path="url(#p4e57f93072)" style="fill: none; stroke-dasharray: 6,2.25; stroke-dashoffset: 0; stroke: #ecad0a; stroke-width: 1.5"/>
   </g>
   <g id="line2d_16">
    <path d="M 183.202681 120.339123 
L 184.365598 120.13365 
L 185.528516 119.83817 
L 186.691434 120.084627 
L 187.854351 119.858723 
L 189.017269 119.740752 
L 190.180187 119.7477 
L 191.343105 119.534644 
L 192.506022 119.556582 
L 193.66894 119.547561 
L 194.831858 119.361587 
L 195.994775 119.17647 
L 197.157693 119.359966 
L 198.320611 119.159944 
L 199.483529 119.172233 
L 200.646446 118.961937 
L 201.809364 118.847176 
L 202.972282 118.930155 
L 204.135199 118.836142 
L 205.298117 118.784696 
L 206.461035 118.624161 
L 207.623953 118.712435 
L 208.78687 118.535648 
L 209.949788 118.357228 
L 211.112706 118.303555 
L 212.275623 118.205702 
L 213.438541 118.346684 
L 214.601459 118.085553 
L 215.764377 118.077409 
L 216.927294 117.909081 
L 218.090212 117.78342 
L 219.25313 117.961987 
L 220.416047 117.829894 
L 221.578965 117.782735 
L 222.741883 117.600409 
L 223.904801 117.674983 
L 225.067718 117.724234 
L 226.230636 117.816985 
L 227.393554 117.765097 
L 228.556471 117.703328 
L 229.719389 117.765197 
L 230.882307 117.678113 
L 232.045225 117.727558 
L 233.208142 117.846966 
L 234.37106 118.076314 
L 235.533978 118.051673 
L 236.696895 118.184615 
L 237.859813 118.121484 
L 239.022731 118.289419 
L 240.185649 118.396801 
L 241.348566 118.557792 
L 242.511484 118.543828 
L 243.674402 118.66745 
L 244.837319 118.894642 
L 246.000237 119.025905 
L 247.163155 119.269613 
L 248.326073 119.333371 
L 249.48899 119.328174 
L 250.651908 119.692405 
L 251.814826 119.875702 
L 252.977743 120.235643 
L 254.140661 120.484067 
L 255.303579 120.668521 
L 256.466497 121.142223 
L 257.629414 121.366143 
L 258.792332 121.867678 
L 259.95525 122.051446 
L 261.118167 122.238203 
L 262.281085 122.636933 
L 263.444003 122.876596 
L 264.606921 123.411131 
L 265.769838 123.776536 
L 266.932756 124.148596 
L 268.095674 124.701798 
L 269.258591 125.06253 
L 270.421509 125.414965 
L 271.584427 126.015928 
L 272.747345 126.75137 
L 273.910262 127.205839 
L 275.07318 127.650138 
L 276.236098 128.422425 
L 277.399015 128.779118 
L 278.561933 129.323091 
L 279.724851 130.07464 
L 280.887769 130.388371 
L 282.050686 130.666143 
L 283.213604 131.436033 
L 284.376522 131.556761 
L 285.539439 132.525317 
L 286.702357 132.748321 
L 287.865275 133.405966 
L 289.028193 133.869379 
L 290.19111 133.967207 
L 291.354028 134.973293 
L 292.516946 135.115612 
L 293.679863 135.217651 
L 294.842781 135.493297 
L 296.005699 135.87084 
L 297.168617 136.60497 
L 298.331534 137.150456 
" clip-path="url(#p4e57f93072)" style="fill: none; stroke-dasharray: 1.5,1.5; stroke-dashoffset: 0; stroke: #ecad0a; stroke-width: 1.5"/>
   </g>
   <g id="line2d_17">
    <path d="M 299.494452 151.605069 
L 300.65737 152.518982 
L 301.820287 152.963331 
L 302.983205 153.685116 
L 304.146123 153.916551 
L 305.309041 154.103974 
L 306.471958 154.451558 
L 307.634876 154.34387 
L 308.797794 154.911233 
L 309.960711 155.409265 
L 311.123629 155.979286 
L 312.286547 156.150017 
L 313.449465 157.166354 
L 314.612382 157.348248 
L 315.7753 157.364205 
L 316.938218 157.423822 
L 318.101135 158.245578 
L 319.264053 159.062694 
L 320.426971 159.483705 
L 321.589889 159.644751 
L 322.752806 160.153349 
L 323.915724 160.341017 
L 325.078642 161.188168 
L 326.241559 161.860638 
L 327.404477 162.562482 
L 328.567395 163.646346 
L 329.730313 164.759919 
L 330.89323 165.522109 
L 332.056148 167.4769 
L 333.219066 168.541579 
L 334.381983 169.298799 
L 335.544901 171.520177 
L 336.707819 172.868989 
L 337.870737 174.046287 
L 339.033654 176.978855 
L 340.196572 179.432547 
L 341.35949 181.296748 
L 342.522407 186.500686 
L 343.685325 189.585907 
L 344.848243 194.978966 
L 346.011161 199.60053 
L 347.174078 201.907863 
L 348.336996 208.728144 
L 349.499914 212.09957 
L 350.662831 217.314707 
L 351.825749 221.838318 
L 352.988667 226.51811 
L 354.151585 229.516984 
L 355.314502 237.778097 
L 356.47742 238.460889 
L 357.640338 225.627876 
L 357.644337 314.2 
" clip-path="url(#p4e57f93072)" style="fill: none; stroke: #a90000; stroke-width: 1.5; stroke-linecap: square"/>
   </g>
   <g id="line2d_18">
    <path d="M 299.494452 158.932634 
L 300.65737 160.397424 
L 301.820287 161.426068 
L 302.983205 162.860043 
L 304.146123 163.49666 
L 305.309041 163.854966 
L 306.471958 164.798604 
L 307.634876 164.589263 
L 308.797794 165.431929 
L 309.960711 166.636682 
L 311.123629 168.058007 
L 312.286547 167.165693 
L 313.449465 169.886562 
L 314.612382 170.124611 
L 315.7753 169.977671 
L 316.938218 170.237551 
L 318.101135 171.756073 
L 319.264053 172.258563 
L 320.426971 172.887692 
L 321.589889 171.963749 
L 322.752806 173.15286 
L 323.915724 174.055698 
L 325.078642 176.116564 
L 326.241559 176.813499 
L 327.404477 177.380011 
L 328.567395 178.219527 
L 329.730313 178.014597 
L 330.89323 177.504249 
L 332.056148 179.361001 
L 333.219066 180.131216 
L 334.381983 180.56187 
L 335.544901 181.750131 
L 336.707819 182.934478 
L 337.870737 184.338363 
L 339.033654 186.955701 
L 340.196572 188.823408 
L 341.35949 190.257884 
L 342.522407 192.773372 
L 343.685325 195.902425 
L 344.848243 201.4058 
L 346.011161 204.825258 
L 347.174078 207.101235 
L 348.336996 209.200042 
L 349.499914 213.370565 
L 350.662831 217.670895 
L 351.825749 221.123457 
L 352.988667 225.013575 
L 354.151585 227.615488 
L 355.314502 235.876601 
L 356.47742 243.039499 
L 357.640338 267.786 
L 357.642437 314.2 
" clip-path="url(#p4e57f93072)" style="fill: none; stroke-dasharray: 6,2.25; stroke-dashoffset: 0; stroke: #a90000; stroke-width: 1.5"/>
   </g>
   <g id="line2d_19">
    <path d="M 299.494452 137.177118 
L 300.65737 137.675222 
L 301.820287 137.715202 
L 302.983205 137.988935 
L 304.146123 137.985062 
L 305.309041 138.077163 
L 306.471958 138.109174 
L 307.634876 138.05352 
L 308.797794 138.481581 
L 309.960711 138.644373 
L 311.123629 138.849072 
L 312.286547 139.482339 
L 313.449465 139.785481 
L 314.612382 139.946358 
L 315.7753 140.023679 
L 316.938218 140.008027 
L 318.101135 140.581685 
L 319.264053 141.508258 
L 320.426971 141.856405 
L 321.589889 142.418314 
L 322.752806 142.669351 
L 323.915724 142.608254 
L 325.078642 143.078382 
L 326.241559 143.743783 
L 327.404477 144.484978 
L 328.567395 145.641459 
L 329.730313 147.184708 
L 330.89323 148.431392 
L 332.056148 150.42677 
L 333.219066 151.616409 
L 334.381983 152.517798 
L 335.544901 155.237792 
L 336.707819 156.672493 
L 337.870737 157.731953 
L 339.033654 160.829451 
L 340.196572 163.6093 
L 341.35949 165.730265 
L 342.522407 172.979564 
L 343.685325 176.023834 
L 344.848243 181.315178 
L 346.011161 187.159516 
L 347.174078 189.502477 
L 348.336996 206.459937 
L 349.499914 206.946169 
L 350.662831 215.553547 
L 351.825749 226.799596 
L 352.988667 243.422167 
L 352.991865 314.2 
M 356.473473 314.2 
L 356.47742 226.799596 
L 357.640338 204.883553 
L 357.64527 314.2 
" clip-path="url(#p4e57f93072)" style="fill: none; stroke-dasharray: 1.5,1.5; stroke-dashoffset: 0; stroke: #a90000; stroke-width: 1.5"/>
   </g>
   <g id="line2d_20"/>
   <g id="line2d_21"/>
   <g id="line2d_22"/>
   <g id="line2d_23"/>
   <g id="line2d_24"/>
   <g id="line2d_25"/>
   <g id="patch_3">
    <path d="M 52.2 278.748 
L 52.2 37.584 
" style="fill: none; stroke: #000000; stroke-width: 0.8; stroke-linejoin: miter; stroke-linecap: square"/>
   </g>
   <g id="patch_4">
    <path d="M 375.84 278.748 
L 375.84 37.584 
" style="fill: none; stroke: #000000; stroke-width: 0.8; stroke-linejoin: miter; stroke-linecap: square"/>
   </g>
   <g id="patch_5">
    <path d="M 52.2 278.748 
L 375.84 278.748 
" style="fill: none; stroke: #000000; stroke-width: 0.8; stroke-linejoin: miter; stroke-linecap: square"/>
   </g>
   <g id="patch_6">
    <path d="M 52.2 37.584 
L 375.84 37.584 
" style="fill: none; stroke: #000000; stroke-width: 0.8; stroke-linejoin: miter; stroke-linecap: square"/>
   </g>
   <g id="text_13">
    <!-- Pixel Count Fraction by HAB Level -->
    <g transform="translate(103.407811 31.584) scale(0.144 -0.144)">
     <defs>
      <path id="LMRoman17-Regular-50" d="M 3718 3184 
C 3718 3791 3130 4352 2291 4352 
L 333 4352 
L 333 4186 
C 774 4186 845 4186 845 3899 
L 845 446 
C 845 160 774 160 333 160 
L 333 0 
C 518 0 858 0 1056 0 
C 1254 0 1594 0 1779 0 
L 1779 160 
C 1338 160 1267 160 1267 446 
L 1267 2042 
L 2291 2042 
C 3117 2042 3718 2578 3718 3184 
z
M 3232 3184 
C 3232 2604 2950 2176 2170 2176 
L 1254 2176 
L 1254 3938 
C 1254 4155 1267 4186 1523 4186 
L 2170 4186 
C 2995 4186 3232 3714 3232 3184 
z
" transform="scale(0.015625)"/>
      <path id="LMRoman17-Regular-78" d="M 3091 -6 
L 3091 160 
C 2771 160 2675 172 2522 370 
L 1664 1478 
L 2253 2216 
C 2464 2458 2707 2560 2989 2560 
L 2989 2726 
L 2541 2726 
C 2368 2726 2170 2726 2022 2732 
L 2022 2566 
C 2112 2553 2163 2489 2163 2400 
C 2163 2285 2099 2215 2067 2171 
L 1594 1573 
L 1030 2306 
C 973 2376 973 2388 973 2420 
C 973 2497 1037 2560 1146 2560 
L 1146 2732 
C 992 2726 717 2726 557 2726 
C 384 2726 179 2726 38 2732 
L 38 2560 
C 384 2560 461 2534 614 2343 
L 1350 1395 
C 1363 1382 1395 1344 1395 1325 
C 1395 1299 838 619 768 530 
C 480 185 179 160 6 160 
L 6 0 
L 454 0 
C 582 0 864 0 979 -6 
L 979 160 
C 941 166 838 179 838 325 
C 838 440 890 510 947 586 
L 1478 1236 
L 2035 512 
C 2086 442 2163 346 2163 301 
C 2163 211 2086 160 1984 160 
L 1984 -6 
C 2138 0 2413 0 2573 0 
C 2746 0 2950 0 3091 -6 
z
" transform="scale(0.015625)"/>
      <path id="LMRoman17-Regular-43" d="M 3974 1461 
C 3974 1524 3974 1550 3917 1550 
C 3866 1550 3866 1531 3859 1474 
C 3808 585 3168 38 2477 38 
C 1824 38 781 495 781 2147 
C 781 3805 1843 4250 2464 4250 
C 3187 4250 3712 3628 3834 2745 
C 3846 2668 3846 2655 3904 2655 
C 3974 2655 3974 2668 3974 2783 
L 3974 4289 
C 3974 4403 3968 4410 3930 4410 
C 3904 4410 3898 4403 3853 4327 
L 3571 3792 
C 3258 4187 2874 4416 2381 4416 
C 1286 4416 294 3456 294 2148 
C 294 826 1286 -128 2387 -128 
C 3366 -128 3974 730 3974 1461 
z
" transform="scale(0.015625)"/>
      <path id="LMRoman17-Regular-62" d="M 3053 1370 
C 3053 2188 2477 2790 1830 2790 
C 1434 2790 1152 2579 960 2330 
L 960 4396 
L 198 4326 
L 198 4160 
C 576 4160 634 4122 634 3817 
L 634 -13 
L 749 -13 
L 934 441 
C 1120 141 1395 -64 1766 -64 
C 2406 -64 3053 500 3053 1370 
z
M 2643 1376 
C 2643 108 1888 38 1734 38 
C 1536 38 1248 114 1043 486 
C 973 608 973 621 973 735 
L 973 2004 
C 973 2118 973 2138 1062 2272 
C 1312 2657 1670 2688 1792 2688 
C 1984 2688 2643 2585 2643 1376 
z
" transform="scale(0.015625)"/>
      <path id="LMRoman17-Regular-79" d="M 3034 2593 
L 3034 2752 
L 2630 2752 
C 2496 2752 2285 2752 2157 2758 
L 2157 2593 
C 2400 2574 2406 2395 2406 2344 
C 2406 2281 2394 2249 2362 2171 
L 1664 449 
L 902 2312 
C 870 2389 870 2440 870 2440 
C 870 2580 1018 2593 1171 2593 
L 1171 2758 
C 1018 2752 742 2752 582 2752 
C 410 2752 205 2752 64 2758 
L 64 2593 
C 410 2593 448 2561 531 2357 
L 1485 15 
C 1197 -738 1030 -1178 627 -1178 
C 557 -1178 397 -1159 282 -1044 
C 429 -1031 493 -942 493 -833 
C 493 -725 416 -629 288 -629 
C 147 -629 77 -725 77 -840 
C 77 -1095 339 -1280 627 -1280 
C 998 -1280 1229 -922 1357 -603 
L 2496 2204 
C 2656 2593 2944 2593 3034 2593 
z
" transform="scale(0.015625)"/>
      <path id="LMRoman17-Regular-4c" d="M 3469 1615 
L 3354 1615 
C 3302 983 3219 166 2125 166 
L 1530 166 
C 1274 166 1261 197 1261 414 
L 1261 3898 
C 1261 4129 1274 4192 1760 4192 
L 1901 4192 
L 1901 4352 
C 1638 4352 1331 4352 1069 4352 
C 870 4352 512 4352 326 4352 
L 326 4192 
C 768 4192 838 4192 838 3905 
L 838 452 
C 838 166 768 166 326 166 
L 326 0 
L 3315 0 
L 3469 1615 
z
" transform="scale(0.015625)"/>
      <path id="LMRoman17-Regular-76" d="M 3034 2560 
L 3034 2719 
L 2630 2719 
C 2496 2719 2285 2719 2157 2725 
L 2157 2560 
C 2317 2547 2406 2471 2406 2305 
C 2406 2248 2406 2235 2368 2146 
L 1664 375 
L 902 2286 
C 864 2369 864 2381 864 2407 
C 864 2560 1075 2560 1171 2560 
L 1171 2725 
C 1018 2719 736 2719 576 2719 
C 403 2719 205 2719 64 2725 
L 64 2560 
C 307 2560 442 2560 518 2362 
L 1446 44 
C 1485 -51 1491 -64 1549 -64 
C 1606 -64 1613 -51 1651 44 
L 2502 2163 
C 2560 2304 2662 2560 3034 2560 
z
" transform="scale(0.015625)"/>
     </defs>
     <use xlink:href="#LMRoman17-Regular-50" transform="scale(0.996264)"/>
     <use xlink:href="#LMRoman17-Regular-69" transform="translate(62.583549 0) scale(0.996264)"/>
     <use xlink:href="#LMRoman17-Regular-78" transform="translate(87.455565 0) scale(0.996264)"/>
     <use xlink:href="#LMRoman17-Regular-65" transform="translate(135.746778 0) scale(0.996264)"/>
     <use xlink:href="#LMRoman17-Regular-6c" transform="translate(176.231588 0) scale(0.996264)"/>
     <use xlink:href="#LMRoman17-Regular-43" transform="translate(231.179753 0) scale(0.996264)"/>
     <use xlink:href="#LMRoman17-Regular-6f" transform="translate(297.689542 0) scale(0.996264)"/>
     <use xlink:href="#LMRoman17-Regular-75" transform="translate(343.38049 0) scale(0.996264)"/>
     <use xlink:href="#LMRoman17-Regular-6e" transform="translate(394.277578 0) scale(0.996264)"/>
     <use xlink:href="#LMRoman17-Regular-74" transform="translate(442.572212 0) scale(0.996264)"/>
     <use xlink:href="#LMRoman17-Regular-46" transform="translate(507.929888 0) scale(0.996264)"/>
     <use xlink:href="#LMRoman17-Regular-72" transform="translate(560.106282 0) scale(0.996264)"/>
     <use xlink:href="#LMRoman17-Regular-61" transform="translate(595.38781 0) scale(0.996264)"/>
     <use xlink:href="#LMRoman17-Regular-63" transform="translate(641.078758 0) scale(0.996264)"/>
     <use xlink:href="#LMRoman17-Regular-74" transform="translate(681.563567 0) scale(0.996264)"/>
     <use xlink:href="#LMRoman17-Regular-69" transform="translate(716.845095 0) scale(0.996264)"/>
     <use xlink:href="#LMRoman17-Regular-6f" transform="translate(741.717111 0) scale(0.996264)"/>
     <use xlink:href="#LMRoman17-Regular-6e" transform="translate(787.40806 0) scale(0.996264)"/>
     <use xlink:href="#LMRoman17-Regular-62" transform="translate(868.381296 0) scale(0.996264)"/>
     <use xlink:href="#LMRoman17-Regular-79" transform="translate(916.67593 0) scale(0.996264)"/>
     <use xlink:href="#LMRoman17-Regular-48" transform="translate(995.043292 0) scale(0.996264)"/>
     <use xlink:href="#LMRoman17-Regular-41" transform="translate(1064.11297 0) scale(0.996264)"/>
     <use xlink:href="#LMRoman17-Regular-42" transform="translate(1133.182648 0) scale(0.996264)"/>
     <use xlink:href="#LMRoman17-Regular-4c" transform="translate(1228.448403 0) scale(0.996264)"/>
     <use xlink:href="#LMRoman17-Regular-65" transform="translate(1285.831604 0) scale(0.996264)"/>
     <use xlink:href="#LMRoman17-Regular-76" transform="translate(1326.316414 0) scale(0.996264)"/>
     <use xlink:href="#LMRoman17-Regular-65" transform="translate(1372.005173 0) scale(0.996264)"/>
     <use xlink:href="#LMRoman17-Regular-6c" transform="translate(1412.489982 0) scale(0.996264)"/>
    </g>
   </g>
   <g id="legend_1">
    <g id="patch_7">
     <path d="M 60.6 272.748 
L 253.02154 272.748 
Q 255.42154 272.748 255.42154 270.348 
L 255.42154 137.751234 
Q 255.42154 135.351234 253.02154 135.351234 
L 60.6 135.351234 
Q 58.2 135.351234 58.2 137.751234 
L 58.2 270.348 
Q 58.2 272.748 60.6 272.748 
z
" style="fill: #ffffff; opacity: 0.8; stroke: #cccccc; stroke-linejoin: miter"/>
    </g>
    <g id="text_14">
     <!-- class -->
     <g transform="translate(96.6 148.551234) scale(0.12 -0.12)">
      <use xlink:href="#LMRoman17-Regular-63" transform="scale(0.996264)"/>
      <use xlink:href="#LMRoman17-Regular-6c" transform="translate(40.484809 0) scale(0.996264)"/>
      <use xlink:href="#LMRoman17-Regular-61" transform="translate(65.356825 0) scale(0.996264)"/>
      <use xlink:href="#LMRoman17-Regular-73" transform="translate(111.047774 0) scale(0.996264)"/>
      <use xlink:href="#LMRoman17-Regular-73" transform="translate(146.851012 0) scale(0.996264)"/>
     </g>
    </g>
    <g id="line2d_26">
     <path d="M 63 161.07583 
L 75 161.07583 
L 87 161.07583 
" style="fill: none; stroke: #959595; stroke-width: 1.5; stroke-linecap: square"/>
    </g>
    <g id="text_15">
     <!-- 0-99 HAB, low risk -->
     <g transform="translate(96.6 165.27583) scale(0.12 -0.12)">
      <defs>
       <path id="LMRoman17-Regular-2d" d="M 1632 1216 
L 1632 1496 
L 26 1496 
L 26 1216 
L 1632 1216 
z
" transform="scale(0.015625)"/>
       <path id="LMRoman17-Regular-39" d="M 2688 2073 
C 2688 3817 1971 4179 1485 4179 
C 851 4179 243 3628 243 2778 
C 243 1991 762 1408 1414 1408 
C 1952 1408 2189 1903 2253 2112 
L 2253 1864 
C 2253 464 1670 31 1190 31 
C 1043 31 685 31 538 294 
C 704 268 826 357 826 518 
C 826 692 685 749 595 749 
C 538 749 365 723 365 506 
C 365 71 742 -128 1203 -128 
C 1939 -128 2688 674 2688 2073 
z
M 2240 2632 
C 2240 2182 2035 1510 1427 1510 
C 1254 1510 1011 1542 813 1922 
C 678 2169 678 2461 678 2771 
C 678 3146 678 3405 858 3684 
C 947 3817 1114 4032 1485 4032 
C 2240 4032 2240 2885 2240 2632 
z
" transform="scale(0.015625)"/>
       <path id="LMRoman17-Regular-2c" d="M 1126 -87 
C 1126 124 1101 522 800 522 
C 659 522 538 427 538 261 
C 538 96 659 0 800 0 
C 877 0 960 32 1011 102 
C 1024 44 1024 24 1024 -78 
C 1024 -464 896 -817 627 -1139 
C 595 -1170 595 -1197 595 -1197 
C 595 -1222 621 -1248 646 -1248 
C 685 -1248 1126 -799 1126 -87 
z
" transform="scale(0.015625)"/>
       <path id="LMRoman17-Regular-77" d="M 4205 2560 
L 4205 2726 
C 4077 2726 3949 2726 3821 2726 
C 3699 2726 3424 2726 3315 2732 
L 3315 2560 
C 3514 2560 3622 2442 3622 2280 
C 3622 2235 3610 2178 3597 2134 
L 2995 401 
L 2342 2274 
C 2330 2319 2310 2370 2310 2395 
C 2310 2560 2528 2560 2630 2560 
L 2630 2732 
C 2483 2726 2214 2726 2061 2726 
C 1901 2726 1734 2726 1587 2732 
L 1587 2560 
C 1939 2560 1939 2547 2074 2147 
L 1485 445 
L 851 2280 
C 819 2363 819 2376 819 2395 
C 819 2560 1037 2560 1139 2560 
L 1139 2732 
C 986 2726 717 2726 557 2726 
C 416 2726 198 2726 64 2732 
L 64 2560 
C 346 2560 416 2541 486 2331 
L 1274 44 
C 1299 -39 1318 -58 1370 -58 
C 1414 -58 1440 -45 1472 50 
L 2131 1974 
L 2797 50 
C 2829 -45 2854 -58 2899 -58 
C 2950 -58 2970 -39 2995 44 
L 3725 2182 
C 3853 2560 4109 2560 4205 2560 
z
" transform="scale(0.015625)"/>
       <path id="LMRoman17-Regular-6b" d="M 3040 0 
L 3040 153 
C 2739 153 2669 210 2477 491 
L 1670 1673 
C 1664 1686 1632 1724 1632 1743 
L 2144 2222 
C 2509 2528 2739 2560 2906 2560 
L 2906 2733 
C 2867 2733 2848 2720 2848 2720 
L 2534 2720 
C 2355 2720 2080 2720 1907 2733 
L 1907 2566 
C 1997 2559 2061 2508 2061 2419 
C 2061 2291 1926 2170 1926 2170 
L 960 1289 
L 960 4396 
L 198 4326 
L 198 4160 
C 576 4160 634 4122 634 3817 
L 634 426 
C 634 184 608 153 198 153 
L 198 -13 
C 352 0 634 0 794 0 
C 954 0 1235 0 1389 -13 
L 1389 153 
C 979 153 954 178 954 428 
L 954 1130 
L 1395 1532 
L 2042 574 
C 2118 459 2182 369 2182 286 
C 2182 172 2067 153 1990 153 
L 1990 -13 
C 2144 0 2419 0 2579 0 
L 3040 0 
z
" transform="scale(0.015625)"/>
      </defs>
      <use xlink:href="#LMRoman17-Regular-30" transform="scale(0.996264)"/>
      <use xlink:href="#LMRoman17-Regular-2d" transform="translate(45.690948 0) scale(0.996264)"/>
      <use xlink:href="#LMRoman17-Regular-39" transform="translate(75.767188 0) scale(0.996264)"/>
      <use xlink:href="#LMRoman17-Regular-39" transform="translate(121.458137 0) scale(0.996264)"/>
      <use xlink:href="#LMRoman17-Regular-48" transform="translate(197.225234 0) scale(0.996264)"/>
      <use xlink:href="#LMRoman17-Regular-41" transform="translate(266.294912 0) scale(0.996264)"/>
      <use xlink:href="#LMRoman17-Regular-42" transform="translate(335.36459 0) scale(0.996264)"/>
      <use xlink:href="#LMRoman17-Regular-2c" transform="translate(400.554196 0) scale(0.996264)"/>
      <use xlink:href="#LMRoman17-Regular-6c" transform="translate(455.502361 0) scale(0.996264)"/>
      <use xlink:href="#LMRoman17-Regular-6f" transform="translate(480.374377 0) scale(0.996264)"/>
      <use xlink:href="#LMRoman17-Regular-77" transform="translate(523.462872 0) scale(0.996264)"/>
      <use xlink:href="#LMRoman17-Regular-72" transform="translate(620.04881 0) scale(0.996264)"/>
      <use xlink:href="#LMRoman17-Regular-69" transform="translate(655.330338 0) scale(0.996264)"/>
      <use xlink:href="#LMRoman17-Regular-73" transform="translate(680.202354 0) scale(0.996264)"/>
      <use xlink:href="#LMRoman17-Regular-6b" transform="translate(716.005592 0) scale(0.996264)"/>
     </g>
    </g>
    <g id="line2d_27">
     <path d="M 63 177.800425 
L 75 177.800425 
L 87 177.800425 
" style="fill: none; stroke: #ecad0a; stroke-width: 1.5; stroke-linecap: square"/>
    </g>
    <g id="text_16">
     <!-- 100 - 199 HAB, moderate risk -->
     <g transform="translate(96.6 182.000425) scale(0.12 -0.12)">
      <defs>
       <path id="LMRoman17-Regular-6d" d="M 4762 -13 
L 4762 153 
C 4352 153 4326 178 4326 428 
L 4326 1933 
C 4326 2252 4269 2790 3507 2790 
C 3072 2790 2771 2496 2656 2151 
L 2650 2151 
C 2573 2676 2195 2790 1837 2790 
C 1331 2790 1069 2400 973 2144 
L 966 2144 
L 966 2790 
L 211 2720 
L 211 2554 
C 589 2554 646 2515 646 2208 
L 646 428 
C 646 184 621 153 211 153 
L 211 -13 
C 365 0 646 0 813 0 
C 979 0 1267 0 1421 -13 
L 1421 153 
C 1011 153 986 178 986 428 
L 986 1658 
C 986 2247 1344 2688 1792 2688 
C 2266 2688 2317 2266 2317 1958 
L 2317 428 
C 2317 184 2291 153 1882 153 
L 1882 -13 
C 2035 0 2317 0 2483 0 
C 2650 0 2938 0 3091 -13 
L 3091 153 
C 2682 153 2656 178 2656 428 
L 2656 1658 
C 2656 2247 3014 2688 3462 2688 
C 3936 2688 3987 2266 3987 1958 
L 3987 428 
C 3987 184 3962 153 3552 153 
L 3552 -13 
C 3706 0 3987 0 4154 0 
C 4320 0 4608 0 4762 -13 
z
" transform="scale(0.015625)"/>
       <path id="LMRoman17-Regular-64" d="M 3066 -63 
L 3066 128 
C 2688 128 2630 166 2630 473 
L 2630 4396 
L 1869 4326 
L 1869 4160 
C 2246 4160 2304 4122 2304 3820 
L 2304 2345 
C 2278 2377 2016 2790 1498 2790 
C 845 2790 211 2208 211 1364 
C 211 525 806 -64 1434 -64 
C 1978 -64 2259 337 2291 380 
L 2291 -63 
L 3066 -63 
z
M 2291 755 
C 2291 563 2176 390 2029 262 
C 1811 70 1594 38 1472 38 
C 1286 38 621 134 621 1356 
C 621 2612 1363 2688 1530 2688 
C 1824 2688 2061 2522 2208 2291 
C 2291 2157 2291 2138 2291 2023 
L 2291 755 
z
" transform="scale(0.015625)"/>
      </defs>
      <use xlink:href="#LMRoman17-Regular-31" transform="scale(0.996264)"/>
      <use xlink:href="#LMRoman17-Regular-30" transform="translate(45.690948 0) scale(0.996264)"/>
      <use xlink:href="#LMRoman17-Regular-30" transform="translate(91.381897 0) scale(0.996264)"/>
      <use xlink:href="#LMRoman17-Regular-2d" transform="translate(167.148994 0) scale(0.996264)"/>
      <use xlink:href="#LMRoman17-Regular-31" transform="translate(227.301383 0) scale(0.996264)"/>
      <use xlink:href="#LMRoman17-Regular-39" transform="translate(272.992331 0) scale(0.996264)"/>
      <use xlink:href="#LMRoman17-Regular-39" transform="translate(318.683279 0) scale(0.996264)"/>
      <use xlink:href="#LMRoman17-Regular-48" transform="translate(394.450377 0) scale(0.996264)"/>
      <use xlink:href="#LMRoman17-Regular-41" transform="translate(463.520055 0) scale(0.996264)"/>
      <use xlink:href="#LMRoman17-Regular-42" transform="translate(532.589733 0) scale(0.996264)"/>
      <use xlink:href="#LMRoman17-Regular-2c" transform="translate(597.779339 0) scale(0.996264)"/>
      <use xlink:href="#LMRoman17-Regular-6d" transform="translate(652.727504 0) scale(0.996264)"/>
      <use xlink:href="#LMRoman17-Regular-6f" transform="translate(729.649663 0) scale(0.996264)"/>
      <use xlink:href="#LMRoman17-Regular-64" transform="translate(777.94305 0) scale(0.996264)"/>
      <use xlink:href="#LMRoman17-Regular-65" transform="translate(828.840137 0) scale(0.996264)"/>
      <use xlink:href="#LMRoman17-Regular-72" transform="translate(869.324947 0) scale(0.996264)"/>
      <use xlink:href="#LMRoman17-Regular-61" transform="translate(904.606474 0) scale(0.996264)"/>
      <use xlink:href="#LMRoman17-Regular-74" transform="translate(950.297423 0) scale(0.996264)"/>
      <use xlink:href="#LMRoman17-Regular-65" transform="translate(985.578951 0) scale(0.996264)"/>
      <use xlink:href="#LMRoman17-Regular-72" transform="translate(1056.139909 0) scale(0.996264)"/>
      <use xlink:href="#LMRoman17-Regular-69" transform="translate(1091.421437 0) scale(0.996264)"/>
      <use xlink:href="#LMRoman17-Regular-73" transform="translate(1116.293453 0) scale(0.996264)"/>
      <use xlink:href="#LMRoman17-Regular-6b" transform="translate(1152.096691 0) scale(0.996264)"/>
     </g>
    </g>
    <g id="line2d_28">
     <path d="M 63 194.525021 
L 75 194.525021 
L 87 194.525021 
" style="fill: none; stroke: #a90000; stroke-width: 1.5; stroke-linecap: square"/>
    </g>
    <g id="text_17">
     <!-- 200-253 HAB, high risk -->
     <g transform="translate(96.6 198.725021) scale(0.12 -0.12)">
      <defs>
       <path id="LMRoman17-Regular-68" d="M 3091 -13 
L 3091 153 
C 2682 153 2656 178 2656 428 
L 2656 1933 
C 2656 2259 2592 2790 1837 2790 
C 1312 2790 1056 2368 979 2157 
L 973 2157 
L 973 4396 
L 211 4326 
L 211 4160 
C 589 4160 646 4122 646 3817 
L 646 426 
C 646 184 621 153 211 153 
L 211 -13 
C 365 0 646 0 813 0 
C 979 0 1267 0 1421 -13 
L 1421 153 
C 1011 153 986 178 986 428 
L 986 1658 
C 986 2247 1344 2688 1792 2688 
C 2266 2688 2317 2266 2317 1958 
L 2317 428 
C 2317 184 2291 153 1882 153 
L 1882 -13 
C 2035 0 2317 0 2483 0 
C 2650 0 2938 0 3091 -13 
z
" transform="scale(0.015625)"/>
       <path id="LMRoman17-Regular-67" d="M 2886 2614 
C 2886 2731 2790 2854 2586 2854 
C 2330 2854 2106 2738 1926 2580 
C 1734 2753 1504 2816 1299 2816 
C 794 2816 358 2419 358 1888 
C 358 1522 570 1292 634 1228 
C 442 1004 442 743 442 711 
C 442 545 506 302 723 168 
C 390 85 128 -169 128 -486 
C 128 -943 736 -1280 1466 -1280 
C 2170 -1280 2803 -956 2803 -479 
C 2803 384 1856 384 1363 384 
C 1216 384 954 384 922 391 
C 723 423 589 602 589 825 
C 589 882 589 1024 710 1164 
C 832 1068 1043 960 1299 960 
C 1805 960 2240 1357 2240 1888 
C 2240 2054 2189 2310 1997 2509 
C 2176 2692 2438 2752 2586 2752 
C 2611 2752 2650 2752 2682 2734 
C 2656 2728 2598 2703 2598 2605 
C 2598 2527 2656 2471 2739 2471 
C 2835 2471 2886 2533 2886 2614 
z
M 1862 1889 
C 1862 1760 1862 1068 1299 1068 
C 736 1068 736 1760 736 1889 
C 736 2016 736 2708 1299 2708 
C 1862 2708 1862 2016 1862 1889 
z
M 2547 -486 
C 2547 -835 2106 -1171 1466 -1171 
C 826 -1171 384 -835 384 -486 
C 384 -289 493 -105 634 -4 
C 794 104 858 104 1293 104 
C 1818 104 2547 104 2547 -486 
z
" transform="scale(0.015625)"/>
      </defs>
      <use xlink:href="#LMRoman17-Regular-32" transform="scale(0.996264)"/>
      <use xlink:href="#LMRoman17-Regular-30" transform="translate(45.690948 0) scale(0.996264)"/>
      <use xlink:href="#LMRoman17-Regular-30" transform="translate(91.381897 0) scale(0.996264)"/>
      <use xlink:href="#LMRoman17-Regular-2d" transform="translate(137.072845 0) scale(0.996264)"/>
      <use xlink:href="#LMRoman17-Regular-32" transform="translate(167.149085 0) scale(0.996264)"/>
      <use xlink:href="#LMRoman17-Regular-35" transform="translate(212.840033 0) scale(0.996264)"/>
      <use xlink:href="#LMRoman17-Regular-33" transform="translate(258.530982 0) scale(0.996264)"/>
      <use xlink:href="#LMRoman17-Regular-48" transform="translate(334.298079 0) scale(0.996264)"/>
      <use xlink:href="#LMRoman17-Regular-41" transform="translate(403.367757 0) scale(0.996264)"/>
      <use xlink:href="#LMRoman17-Regular-42" transform="translate(472.437436 0) scale(0.996264)"/>
      <use xlink:href="#LMRoman17-Regular-2c" transform="translate(537.627041 0) scale(0.996264)"/>
      <use xlink:href="#LMRoman17-Regular-68" transform="translate(592.575206 0) scale(0.996264)"/>
      <use xlink:href="#LMRoman17-Regular-69" transform="translate(643.472294 0) scale(0.996264)"/>
      <use xlink:href="#LMRoman17-Regular-67" transform="translate(668.34431 0) scale(0.996264)"/>
      <use xlink:href="#LMRoman17-Regular-68" transform="translate(714.035258 0) scale(0.996264)"/>
      <use xlink:href="#LMRoman17-Regular-72" transform="translate(795.008495 0) scale(0.996264)"/>
      <use xlink:href="#LMRoman17-Regular-69" transform="translate(830.290023 0) scale(0.996264)"/>
      <use xlink:href="#LMRoman17-Regular-73" transform="translate(855.162039 0) scale(0.996264)"/>
      <use xlink:href="#LMRoman17-Regular-6b" transform="translate(890.965277 0) scale(0.996264)"/>
     </g>
    </g>
    <g id="text_18">
     <!-- subset -->
     <g transform="translate(96.6 215.449617) scale(0.12 -0.12)">
      <use xlink:href="#LMRoman17-Regular-73" transform="scale(0.996264)"/>
      <use xlink:href="#LMRoman17-Regular-75" transform="translate(35.803238 0) scale(0.996264)"/>
      <use xlink:href="#LMRoman17-Regular-62" transform="translate(86.700325 0) scale(0.996264)"/>
      <use xlink:href="#LMRoman17-Regular-73" transform="translate(137.597413 0) scale(0.996264)"/>
      <use xlink:href="#LMRoman17-Regular-65" transform="translate(173.400651 0) scale(0.996264)"/>
      <use xlink:href="#LMRoman17-Regular-74" transform="translate(213.88546 0) scale(0.996264)"/>
     </g>
    </g>
    <g id="line2d_29">
     <path d="M 63 227.974213 
L 75 227.974213 
L 87 227.974213 
" style="fill: none; stroke: #333333; stroke-width: 1.5; stroke-linecap: square"/>
    </g>
    <g id="text_19">
     <!-- all -->
     <g transform="translate(96.6 232.174213) scale(0.12 -0.12)">
      <use xlink:href="#LMRoman17-Regular-61" transform="scale(0.996264)"/>
      <use xlink:href="#LMRoman17-Regular-6c" transform="translate(45.690948 0) scale(0.996264)"/>
      <use xlink:href="#LMRoman17-Regular-6c" transform="translate(70.562965 0) scale(0.996264)"/>
     </g>
    </g>
    <g id="line2d_30">
     <path d="M 63 244.698808 
L 75 244.698808 
L 87 244.698808 
" style="fill: none; stroke-dasharray: 6,2.25; stroke-dashoffset: 0; stroke: #333333; stroke-width: 1.5"/>
    </g>
    <g id="text_20">
     <!-- train -->
     <g transform="translate(96.6 248.898808) scale(0.12 -0.12)">
      <use xlink:href="#LMRoman17-Regular-74" transform="scale(0.996264)"/>
      <use xlink:href="#LMRoman17-Regular-72" transform="translate(35.281528 0) scale(0.996264)"/>
      <use xlink:href="#LMRoman17-Regular-61" transform="translate(70.563056 0) scale(0.996264)"/>
      <use xlink:href="#LMRoman17-Regular-69" transform="translate(116.254004 0) scale(0.996264)"/>
      <use xlink:href="#LMRoman17-Regular-6e" transform="translate(141.12602 0) scale(0.996264)"/>
     </g>
    </g>
    <g id="line2d_31">
     <path d="M 63 261.423404 
L 75 261.423404 
L 87 261.423404 
" style="fill: none; stroke-dasharray: 1.5,1.5; stroke-dashoffset: 0; stroke: #333333; stroke-width: 1.5"/>
    </g>
    <g id="text_21">
     <!-- test -->
     <g transform="translate(96.6 265.623404) scale(0.12 -0.12)">
      <use xlink:href="#LMRoman17-Regular-74" transform="scale(0.996264)"/>
      <use xlink:href="#LMRoman17-Regular-65" transform="translate(35.281528 0) scale(0.996264)"/>
      <use xlink:href="#LMRoman17-Regular-73" transform="translate(75.766337 0) scale(0.996264)"/>
      <use xlink:href="#LMRoman17-Regular-74" transform="translate(111.569575 0) scale(0.996264)"/>
     </g>
    </g>
   </g>
  </g>
 </g>
 <defs>
  <clipPath id="p4e57f93072">
   <rect x="52.2" y="37.584" width="323.64" height="241.164"/>
  </clipPath>
 </defs>
</svg>
